<svg width="522" height="501" viewBox="0 0 522 501" fill="none" xmlns="http://www.w3.org/2000/svg">
<g clip-path="url(#clip0)" filter="url(#filter0_d)">
<path d="M246.008 492.897C379.666 492.897 488.017 430.215 488.017 352.894C488.017 275.572 379.666 212.89 246.008 212.89C112.351 212.89 4 275.572 4 352.894C4 430.215 112.351 492.897 246.008 492.897Z" fill="#F5F5F5"/>
<path d="M224.848 432.881L125.209 375.232C122.744 373.791 122.744 371.526 125.209 370.085L233.271 307.598C235.736 306.157 239.742 306.157 242.207 307.598L341.846 365.247C344.311 366.688 344.311 368.953 341.846 370.394L233.887 432.881C231.319 434.219 227.313 434.219 224.848 432.881Z" fill="#E0E0E0"/>
<path d="M396.185 428.145C422.111 428.145 443.128 415.978 443.128 400.968C443.128 385.959 422.111 373.791 396.185 373.791C370.259 373.791 349.242 385.959 349.242 400.968C349.242 415.978 370.259 428.145 396.185 428.145Z" fill="#E0E0E0"/>
<path d="M64.5026 407.66L22.7983 383.468C20.4357 382.13 20.4357 379.865 22.7983 378.527L265.628 238.009C267.991 236.67 271.792 236.67 274.154 238.009L315.858 262.2C318.221 263.539 318.221 265.803 315.858 267.142L73.0284 407.66C70.6658 408.998 66.8652 408.998 64.5026 407.66Z" fill="#E0E0E0"/>
<path d="M214.575 359.791L250.424 338.996C254.122 336.834 255.971 334.055 255.971 331.276C255.971 328.496 255.971 326.231 255.971 326.231L218.787 305.231C216.835 304.098 215.191 301.319 215.191 299.054V260.656L152.532 296.995V335.393C152.532 337.658 154.176 340.438 156.127 341.57L187.765 359.894C195.161 364.115 207.179 364.115 214.575 359.791Z" fill="#263238"/>
<path d="M167.632 343.217V348.158L156.127 341.57C154.176 340.438 152.532 337.658 152.532 335.393V296.995L164.448 290.098C164.653 293.186 164.961 296.275 165.167 299.363L156.744 304.201V332.82C156.744 335.084 158.285 337.864 160.339 338.996L167.632 343.217Z" fill="black"/>
<path d="M156.847 332.82C156.847 335.084 158.49 337.864 160.442 338.996L187.765 354.747C195.161 359.07 207.179 359.07 214.575 354.747L250.527 333.952C257.923 329.628 257.923 322.731 250.527 318.408L223.204 302.657C221.252 301.525 219.609 298.745 219.609 296.481V267.759L156.949 304.098V332.82H156.847Z" fill="#455A64"/>
<path d="M230.394 306.981L223.101 302.76C221.149 301.628 219.506 298.848 219.506 296.583V267.862L156.847 304.201V332.923C156.847 335.187 158.49 337.967 160.442 339.099L167.632 343.217L230.394 306.981Z" fill="#37474F"/>
<path d="M255.971 326.231C255.971 326.231 255.971 328.393 255.971 331.276C255.971 334.158 254.122 336.835 250.424 338.996L214.575 359.791C210.98 361.85 206.46 362.879 201.838 362.982V358.041C206.46 357.938 211.083 356.909 214.575 354.85L250.424 334.055C254.122 331.893 255.971 329.114 255.971 326.231Z" fill="#37474F"/>
<path d="M56.1812 375.85C58.5438 377.189 62.3444 377.086 64.8097 375.644C95.6257 357.835 276.413 253.244 307.229 235.435C309.694 233.994 311.646 230.494 311.646 227.714V37.1656C311.646 34.2832 309.797 30.8861 307.434 29.5478C305.072 28.2095 301.271 28.3125 298.806 29.7537L56.3867 169.963C53.9214 171.404 51.9697 174.904 51.9697 177.684V368.232C52.0724 371.115 53.9214 374.512 56.1812 375.85Z" fill="#455A64"/>
<path d="M64.9128 375.747L307.332 235.538C309.797 234.097 311.749 230.597 311.749 227.817V37.1656C311.749 34.2832 309.797 33.1508 307.332 34.592L64.9128 174.801C62.4476 176.242 60.4959 179.743 60.4959 182.522V373.071C60.3932 375.953 62.4476 377.189 64.9128 375.747Z" fill="#37474F"/>
<path d="M64.1934 380.792C61.7281 381.924 58.3384 381.821 56.1812 380.586C53.9214 379.247 51.9697 375.85 51.9697 372.968V361.129L60.3928 365.968V377.909C60.3928 380.483 62.0363 381.718 64.1934 380.792Z" fill="#37474F"/>
<path d="M60.3926 365.968V377.909C60.3926 380.792 62.3443 381.924 64.8095 380.483L307.229 240.273C309.694 238.832 311.646 235.332 311.646 232.553V220.611L60.3926 365.968Z" fill="#455A64"/>
<path d="M68.8154 343.526V185.302C68.8154 183.552 70.0481 181.493 71.4861 180.669L300.655 48.0777C302.093 47.2542 303.325 47.8718 303.325 49.6219V207.846C303.325 209.596 302.093 211.655 300.655 212.479L71.4861 345.07C69.9453 345.997 68.8154 345.276 68.8154 343.526Z" fill="#2ECC71"/>
<path d="M68.8154 343.526V185.302C68.8154 183.552 70.0481 181.493 71.4861 180.669L300.655 48.0777C302.093 47.2542 303.325 47.8718 303.325 49.6219V207.846C303.325 209.596 302.093 211.655 300.655 212.479L71.4861 345.07C69.9453 345.997 68.8154 345.276 68.8154 343.526Z" fill="#2ECC71"/>
<path opacity="0.8" d="M68.8154 343.526V185.302C68.8154 183.552 70.0481 181.493 71.4861 180.669L300.655 48.0777C302.093 47.2542 303.325 47.8718 303.325 49.6219V207.846C303.325 209.596 302.093 211.655 300.655 212.479L71.4861 345.07C69.9453 345.997 68.8154 345.276 68.8154 343.526Z" fill="white"/>
<path d="M186.123 297.716C184.068 298.848 182.425 301.731 182.425 304.098C182.425 306.466 184.068 307.393 186.123 306.26C188.177 305.128 189.821 302.245 189.821 299.878C189.821 297.51 188.074 296.584 186.123 297.716Z" fill="#2ECC71"/>
<path d="M61.7281 178.198C60.9064 179.64 60.3928 181.184 60.3928 182.625V366.07L51.9697 361.232V177.787C51.9697 176.345 52.4833 174.801 53.3051 173.36L61.7281 178.198Z" fill="#263238"/>
<path d="M115.451 194.566L252.48 115.3L257.924 118.491C259.362 119.314 260.492 121.373 260.492 122.917V224.214C260.492 225.861 259.362 227.817 257.924 228.641L126.031 304.922C124.593 305.745 122.333 305.745 120.895 304.922L118.019 303.275C116.581 302.451 115.451 300.392 115.451 298.848V194.566Z" fill="#2ECC71"/>
<path opacity="0.2" d="M115.451 194.566L252.48 115.3L257.924 118.491C259.362 119.314 260.492 121.373 260.492 122.917V224.214C260.492 225.861 259.362 227.817 257.924 228.641L126.031 304.922C124.593 305.745 122.333 305.745 120.895 304.922L118.019 303.275C116.581 302.451 115.451 300.392 115.451 298.848V194.566Z" fill="black"/>
<path d="M251.761 106.344L252.274 106.035L250.117 104.799C249.912 104.696 249.706 104.594 249.501 104.491L189.307 82.1518C187.663 81.5342 185.609 82.2548 184.684 83.593L117.197 182.316C116.273 183.757 115.451 186.228 115.451 187.978C115.451 190.757 115.451 194.566 115.451 194.566L117.506 195.802L252.377 115.3V108.711C252.48 107.888 252.171 107.064 251.761 106.344Z" fill="#2ECC71"/>
<path opacity="0.1" d="M187.458 84.1077C187.15 84.3136 186.944 84.6224 186.739 84.8283L119.252 183.551C118.738 184.272 118.327 185.301 118.019 186.331L115.965 185.095C116.068 184.581 116.273 184.066 116.478 183.654C116.581 183.448 116.684 183.242 116.787 183.037C116.787 183.037 116.787 182.934 116.889 182.934C116.992 182.728 117.095 182.522 117.197 182.316L184.685 83.593C184.787 83.3871 184.89 83.2841 184.993 83.1812C185.095 83.0783 185.198 82.9753 185.404 82.8724L187.458 84.1077Z" fill="black"/>
<path opacity="0.35" d="M252.274 106.035C252.069 105.932 251.863 105.829 251.658 105.726L191.361 83.2842C190.128 82.7695 188.485 83.1813 187.458 84.0048L185.403 82.7695C186.533 81.946 188.074 81.5342 189.307 82.0489L249.603 104.491C249.809 104.594 250.014 104.697 250.22 104.799L252.274 106.035Z" fill="white"/>
<path d="M116.89 182.934C116.992 182.728 117.095 182.522 117.301 182.316C117.095 182.522 116.992 182.728 116.89 182.934Z" fill="#2ECC71"/>
<path d="M184.992 83.1821C185.095 83.0789 185.198 82.9756 185.404 82.8724C185.198 82.9756 185.095 83.0789 184.992 83.1821Z" fill="#2ECC71"/>
<path d="M115.965 185.198C116.17 184.684 116.273 184.169 116.478 183.654C116.273 184.169 116.068 184.684 115.965 185.198Z" fill="#2ECC71"/>
<path d="M116.479 183.654C116.581 183.448 116.684 183.243 116.787 183.037C116.684 183.243 116.581 183.448 116.479 183.654Z" fill="#2ECC71"/>
<path opacity="0.2" d="M184.685 83.5943C184.788 83.491 184.891 83.2845 184.994 83.1813C184.891 83.3878 184.788 83.491 184.685 83.5943Z" fill="black"/>
<path d="M186.739 84.8284L119.252 183.551C118.328 184.993 117.506 187.463 117.506 189.213C117.506 191.993 117.506 195.802 117.506 195.802L254.534 116.535V109.947C254.534 108.197 253.199 106.344 251.658 105.829L191.362 83.3872C189.821 82.7695 187.664 83.3872 186.739 84.8284Z" fill="#2ECC71"/>
<path opacity="0.05" d="M254.534 109.947C254.534 109.123 254.226 108.3 253.815 107.682L118.019 186.331C117.711 187.257 117.506 188.287 117.506 189.11C117.506 191.89 117.506 195.699 117.506 195.699L254.534 116.432V109.947Z" fill="black"/>
<path d="M176.26 208.258C179.034 214.743 180.472 221.744 180.472 229.053V233.067L129.317 259.73V247.274V198.067C129.317 196.831 129.42 195.699 129.728 194.566C129.831 194.155 129.934 193.64 130.139 193.228C130.242 193.022 130.242 192.816 130.345 192.611C130.55 191.993 130.858 191.272 131.166 190.758C131.68 189.728 132.399 188.802 133.118 187.875C133.323 187.566 133.529 187.36 133.837 187.155C134.043 186.949 134.351 186.64 134.556 186.434C135.378 185.713 136.2 185.096 137.124 184.581C142.055 181.699 147.807 181.699 152.738 184.581C152.738 184.581 153.662 184.169 155.306 183.552C162.907 188.287 169.07 194.772 173.384 202.184C174.411 204.243 175.336 206.199 176.26 208.258Z" fill="#E0E0E0"/>
<path d="M340.613 366.071L229.367 430.513V424.543L340.613 359.997V366.071Z" fill="#F5F5F5"/>
<path d="M176.261 208.258C175.439 206.199 174.412 204.243 173.282 202.287C172.46 200.846 171.639 199.508 170.611 198.169C170.303 197.758 170.098 197.449 169.79 197.037C169.584 196.728 169.276 196.419 169.071 196.008C168.865 195.699 168.66 195.493 168.454 195.184C168.352 195.081 168.352 194.978 168.249 194.875C167.941 194.566 167.735 194.258 167.427 193.846C167.324 193.64 167.222 193.537 167.016 193.434C166.811 193.125 166.605 192.919 166.297 192.713C165.784 192.096 165.27 191.581 164.654 191.066C164.346 190.757 164.037 190.449 163.729 190.14C163.626 190.037 163.524 189.934 163.421 189.831C163.113 189.522 162.805 189.316 162.599 189.007C162.291 188.699 161.88 188.39 161.572 188.081C161.264 187.875 160.956 187.566 160.75 187.36C160.648 187.257 160.442 187.154 160.339 187.052C160.031 186.743 159.723 186.537 159.312 186.228C158.901 185.919 158.388 185.61 157.977 185.301C157.566 184.993 157.052 184.684 156.642 184.375C156.128 184.066 155.717 183.757 155.203 183.448C155.101 183.346 154.998 183.346 154.895 183.243C154.484 183.037 154.074 182.728 153.663 182.522C153.252 182.316 152.944 182.11 152.533 181.904C151.916 181.596 151.3 181.287 150.581 181.081C149.862 180.772 149.143 180.669 148.424 180.463C148.218 180.36 147.91 180.36 147.705 180.36C146.678 180.154 145.753 180.154 144.726 180.154C144.418 180.154 144.212 180.154 143.904 180.154C143.493 180.154 143.082 180.154 142.774 180.257C142.569 180.257 142.363 180.257 142.158 180.36C142.055 180.36 141.85 180.36 141.747 180.463C141.542 180.463 141.439 180.463 141.234 180.566C141.234 180.566 141.234 180.566 141.131 180.566C140.925 180.669 140.617 180.669 140.412 180.772C140.206 180.772 140.001 180.875 139.898 180.875C139.795 180.875 139.693 180.978 139.59 180.978C139.385 181.081 139.179 181.081 138.974 181.184C138.46 181.39 137.946 181.596 137.433 181.801C137.125 181.904 136.817 182.11 136.508 182.213C136.406 182.213 136.303 182.316 136.2 182.316C135.995 182.419 135.892 182.522 135.687 182.625C135.481 182.728 135.378 182.831 135.173 182.934C134.557 183.243 134.043 183.654 133.427 184.066L133.324 184.169C133.016 184.375 132.81 184.581 132.502 184.89C132.297 185.096 132.091 185.301 131.886 185.404C131.783 185.507 131.681 185.61 131.578 185.713C131.064 186.228 130.551 186.846 130.14 187.36C129.934 187.566 129.729 187.875 129.626 188.081C129.421 188.39 129.215 188.699 129.01 189.007C128.804 189.316 128.702 189.625 128.496 189.934C128.291 190.346 128.085 190.757 127.88 191.272C127.777 191.478 127.674 191.684 127.674 191.89C127.674 191.993 127.572 192.096 127.572 192.199C127.469 192.508 127.366 192.816 127.264 193.228C127.161 193.537 127.058 193.846 127.058 194.258C126.955 194.463 126.955 194.669 126.955 194.978C126.955 195.081 126.955 195.184 126.955 195.287C126.955 195.493 126.853 195.699 126.853 195.905C126.853 196.214 126.75 196.522 126.75 196.831C126.75 197.243 126.75 197.655 126.75 198.066V247.274H131.989V198.066C131.989 193.537 134.351 189.419 138.255 187.154C142.158 184.89 146.883 184.89 150.786 187.154C159.62 192.302 166.708 200.228 170.817 209.596L177.083 211.14C177.083 210.214 176.672 209.184 176.261 208.258Z" fill="#EBEBEB"/>
<path d="M257.102 225.552C257.102 225.655 257 225.655 257 225.758L199.887 207.64C195.368 205.684 190.129 207.228 187.561 211.449L126.545 302.348L124.285 303.687C123.566 304.098 122.95 304.098 122.539 303.892L185.301 210.214C187.869 205.993 193.21 204.449 197.627 206.405L257.102 225.552Z" fill="#2ECC71"/>
<path opacity="0.4" d="M181.808 220.302L181.911 220.199L126.339 302.348L124.079 303.687C123.36 304.098 122.744 304.098 122.333 303.892L179.651 219.067L181.808 220.302Z" fill="white"/>
<path opacity="0.4" d="M257.102 225.552C257.102 225.655 256.999 225.655 256.999 225.758L199.887 207.64C195.367 205.684 190.129 207.228 187.561 211.449L185.301 210.111C187.869 205.993 193.108 204.346 197.627 206.302L257.102 225.552Z" fill="white"/>
<path d="M260.492 122.3C260.389 121.579 259.978 121.373 259.465 121.682C259.259 121.785 259.054 122.094 258.848 122.403L258.54 122.815L202.147 208.67L193.724 220.405C192.799 221.743 190.745 222.567 189.102 222.155L181.808 220.405L126.34 199.919C125.929 199.816 125.518 199.816 125.21 199.919C125.107 199.919 124.902 200.022 124.799 200.022L126.853 198.787L179.959 218.346L186.944 220.817C188.588 221.229 190.642 220.405 191.567 219.067L199.99 207.331L256.589 121.065C256.794 120.756 256.999 120.653 257.205 120.447L252.274 117.564L254.329 116.329L257.718 118.285C259.157 119.109 260.184 120.756 260.492 122.3Z" fill="#2ECC71"/>
<path opacity="0.4" d="M202.147 208.567L193.724 220.302C192.8 221.64 190.745 222.464 189.102 222.052L181.809 220.302L181.911 220.199L182.219 219.685L186.945 220.817C188.588 221.229 190.642 220.405 191.567 219.067L199.887 207.434L202.147 208.567Z" fill="white"/>
<path opacity="0.1" d="M257.924 118.388L254.534 116.432L252.48 117.667L257.41 120.55C257.205 120.756 256.897 120.859 256.794 121.167L200.195 207.331L200.093 207.434L202.147 208.567L258.54 122.712L258.849 122.3C259.054 121.991 259.259 121.785 259.465 121.579C259.978 121.27 260.389 121.476 260.492 122.197C260.184 120.756 259.157 119.109 257.924 118.388Z" fill="black"/>
<path d="M127.572 201.566L115.451 194.566V298.848C115.451 300.495 116.581 302.451 118.019 303.275L120.895 304.922C122.333 305.745 124.593 305.745 126.031 304.922L127.469 304.098V201.566H127.572Z" fill="#2ECC71"/>
<path opacity="0.15" d="M127.572 201.566L115.451 194.566V298.848C115.451 300.495 116.581 302.451 118.019 303.275L120.895 304.922C122.333 305.745 124.593 305.745 126.031 304.922L127.469 304.098V201.566H127.572Z" fill="black"/>
<path d="M258.541 122.712V222.876C258.541 223.699 258.233 224.626 257.719 225.449C257.308 226.17 256.794 226.788 256.178 227.096L256.075 227.199C255.973 227.199 255.973 227.302 255.87 227.302L123.977 303.584C123.772 303.687 123.669 303.789 123.464 303.789C123.464 303.686 123.464 303.481 123.464 303.275V201.978C123.464 200.331 124.799 199.302 126.34 199.713L181.809 220.199L189.102 221.949C190.745 222.361 192.8 221.537 193.724 220.199L202.147 208.464L258.541 122.712Z" fill="#455A64"/>
<path d="M260.491 122.918V224.214C260.491 225.038 260.183 225.964 259.67 226.788C259.259 227.508 258.745 228.126 258.129 228.538H258.026C257.923 228.538 257.923 228.641 257.821 228.641L125.928 304.922C125.209 305.334 124.593 305.334 124.182 305.128C123.771 304.922 123.463 304.51 123.36 303.892C123.36 303.79 123.36 303.584 123.36 303.378V202.081C123.36 200.434 124.696 199.405 126.237 199.816L181.705 220.302L188.998 222.052C190.642 222.464 192.696 221.641 193.621 220.302L202.044 208.567L258.437 122.712L258.745 122.3C259.772 120.962 260.491 121.27 260.491 122.918Z" fill="#2ECC71"/>
<path d="M257.924 228.641C258.027 228.641 258.027 228.538 258.13 228.538L258.232 228.435C258.849 228.023 259.362 227.405 259.773 226.788C260.287 225.964 260.595 225.038 260.595 224.214L202.25 208.567L241.284 238.317L257.924 228.641Z" fill="#2ECC71"/>
<path opacity="0.2" d="M257.924 228.641C258.027 228.641 258.027 228.538 258.13 228.538L258.232 228.435C258.849 228.023 259.362 227.405 259.773 226.788C260.287 225.964 260.595 225.038 260.595 224.214L202.25 208.567L241.284 238.317L257.924 228.641Z" fill="black"/>
<path d="M123.566 303.481C123.566 304.304 123.875 304.922 124.388 305.231C124.799 305.437 125.415 305.437 126.134 305.025L171.537 278.774L181.911 220.405L123.566 301.834V303.481Z" fill="#2ECC71"/>
<path opacity="0.15" d="M187.458 211.449L124.286 305.231C123.772 304.922 123.464 304.407 123.464 303.584V301.937L185.096 210.317L187.458 211.449Z" fill="black"/>
<path d="M259.773 226.788C259.362 227.508 258.848 228.023 258.232 228.435L258.129 228.538L126.134 304.922C125.415 305.334 124.799 305.334 124.388 305.128L187.56 211.346C190.128 207.126 195.47 205.581 199.99 207.537L259.773 226.788Z" fill="#2ECC71"/>
<path d="M259.773 226.788C259.362 227.508 258.848 228.126 258.232 228.435L258.129 228.538L126.134 304.922C125.415 305.334 124.799 305.334 124.388 305.128L126.134 302.348L255.869 227.302L255.972 227.199C256.486 226.788 256.999 226.273 257.307 225.758L259.773 226.788Z" fill="#2ECC71"/>
<path opacity="0.15" d="M115.965 185.198L118.019 186.434C117.711 187.463 117.506 188.39 117.506 189.213C117.506 191.993 117.506 195.802 117.506 195.802L115.451 194.566C115.451 194.566 115.451 190.86 115.451 187.978C115.451 187.154 115.657 186.125 115.965 185.198Z" fill="black"/>
<path d="M126.956 198.787L124.902 200.022L122.745 198.787L117.506 195.699L119.56 194.566L126.956 198.787Z" fill="#2ECC71"/>
<path opacity="0.1" d="M127.059 198.787L119.56 194.566L117.506 195.802L122.745 198.787L124.902 200.022C125.004 199.919 125.21 199.919 125.313 199.919C125.621 199.816 126.032 199.816 126.443 199.919L130.654 201.463L179.035 219.273L179.754 218.14L127.059 198.787Z" fill="black"/>
<path d="M207.078 411.366C190.745 401.895 180.679 384.394 180.679 365.556V229.155C180.679 221.949 179.241 214.846 176.467 208.155C175.645 206.096 174.618 204.037 173.488 202.081C168.763 193.846 161.984 187.051 153.766 182.316C150.89 180.669 147.808 179.845 144.624 179.845C143.494 179.845 142.364 179.948 141.337 180.154L149.965 175.11L198.86 146.8L247.036 118.697L247.139 118.594C249.809 117.05 252.788 116.226 255.767 116.226C258.746 116.226 261.725 117.05 264.396 118.594C272.408 123.226 279.084 129.918 283.707 137.947C288.329 145.977 290.795 155.139 290.795 164.404V300.701C290.795 319.952 301.067 337.864 317.707 347.438L339.176 359.894L228.957 423.822L207.078 411.366Z" fill="white"/>
<path d="M255.869 116.02V117.05C258.848 117.05 261.622 117.77 264.19 119.314C272.099 123.947 278.776 130.535 283.296 138.462C287.918 146.389 290.281 155.448 290.281 164.713V301.01C290.281 320.363 300.655 338.482 317.502 348.158L338.148 360.1L228.957 423.41L207.386 410.954C191.259 401.586 181.192 384.188 181.192 365.556V229.155C181.192 221.846 179.754 214.743 176.878 207.949C176.056 205.89 175.029 203.831 173.899 201.875C169.174 193.64 162.292 186.743 153.971 181.904C151.095 180.257 147.911 179.331 144.624 179.331C144.316 179.331 144.007 179.331 143.699 179.331L150.171 175.522L199.065 147.212L247.344 119.109L247.446 119.006C250.014 117.564 252.891 116.741 255.869 116.741V116.02ZM255.869 116.02C252.685 116.02 249.604 116.844 246.933 118.388L246.83 118.491L198.654 146.595L149.76 174.801L136.509 182.419C138.974 181.184 141.748 180.463 144.624 180.463C147.603 180.463 150.581 181.184 153.458 182.934C161.675 187.669 168.352 194.463 172.974 202.493C174.104 204.449 175.029 206.405 175.953 208.464C178.727 214.949 180.165 221.949 180.165 229.258V365.556C180.165 384.703 190.334 402.307 206.872 411.88L229.06 424.748L340.305 360.203L318.118 347.335C301.58 337.761 291.411 320.158 291.411 301.01V164.713C291.411 155.139 288.843 145.977 284.22 137.947C279.598 129.918 272.921 123.123 264.703 118.388C261.827 116.741 258.848 116.02 255.869 116.02Z" fill="#F5F5F5"/>
<path d="M229.367 424.542L207.18 411.674C190.642 402.101 180.473 384.497 180.473 365.35V229.052C180.473 222.876 179.445 216.905 177.391 211.243L171.125 209.699C171.228 210.008 171.33 210.214 171.433 210.522C173.898 216.39 175.131 222.67 175.131 229.052V365.35C175.131 386.247 186.328 405.807 204.406 416.204L226.697 429.072L229.265 430.513L229.367 424.542Z" fill="#F0F0F0"/>
<path d="M208.516 191.581L256.486 163.889C257.205 163.477 257.616 162.448 257.205 161.727C256.588 160.183 255.869 158.639 255.048 157.095C254.329 155.86 253.61 154.521 252.891 153.286C252.48 152.565 251.452 152.359 250.733 152.771L202.763 180.463C202.044 180.875 201.736 181.698 202.147 182.316C202.352 182.625 202.558 183.037 202.866 183.345C203.996 185.198 205.023 187.051 205.948 189.007C206.256 189.625 206.461 190.243 206.769 190.86C206.872 191.684 207.797 191.993 208.516 191.581Z" fill="#2ECC71"/>
<path d="M177.186 185.507L265.628 134.344C266.347 133.933 266.45 133.109 265.936 132.491C265.628 132.182 265.32 131.874 265.011 131.565C264.395 130.947 263.265 130.844 262.546 131.256L174.104 182.419C173.385 182.831 173.283 183.654 173.899 184.272C174.207 184.581 174.515 184.89 174.823 185.198C175.337 185.816 176.467 185.919 177.186 185.507Z" fill="#E0E0E0"/>
<path d="M168.044 179.537C167.531 179.125 166.914 178.713 166.298 178.404C165.374 177.786 164.552 177.272 163.627 176.757C163.217 176.551 162.806 176.345 162.395 176.139C161.676 175.831 161.676 175.213 162.395 174.801L250.837 123.638C251.556 123.226 252.275 122.918 252.377 122.918C252.48 122.918 252.48 122.918 252.583 123.02C253.405 123.329 254.329 123.741 255.151 124.256C256.486 125.079 257.924 125.903 259.157 126.829C259.876 127.344 259.773 128.065 259.054 128.476L170.612 179.639C169.893 180.051 168.763 180.051 168.044 179.537Z" fill="#2ECC71"/>
<path opacity="0.4" d="M168.044 179.537C167.531 179.125 166.914 178.713 166.298 178.404C165.374 177.786 164.552 177.272 163.627 176.757C163.217 176.551 162.806 176.345 162.395 176.139C161.676 175.831 161.676 175.213 162.395 174.801L250.837 123.638C251.556 123.226 252.275 122.918 252.377 122.918C252.48 122.918 252.48 122.918 252.583 123.02C253.405 123.329 254.329 123.741 255.151 124.256C256.486 125.079 257.924 125.903 259.157 126.829C259.876 127.344 259.773 128.065 259.054 128.476L170.612 179.639C169.893 180.051 168.763 180.051 168.044 179.537Z" fill="black"/>
<path d="M251.248 228.023V189.934C251.248 188.699 251.145 185.507 251.042 184.272C250.94 182.419 250.631 180.566 250.323 178.713C250.221 177.89 249.399 177.581 248.68 177.992L190.746 211.552C190.027 211.964 189.513 212.993 189.718 213.817C190.232 216.699 190.54 219.685 190.54 222.67C190.54 222.876 190.54 228.023 190.54 228.229V263.23C190.54 264.053 191.157 264.465 191.876 264.053L249.912 230.494C250.631 229.979 251.248 228.95 251.248 228.023Z" fill="#2ECC71"/>
<path opacity="0.8" d="M251.248 228.023V189.934C251.248 188.699 251.145 185.507 251.042 184.272C250.94 182.419 250.631 180.566 250.323 178.713C250.221 177.89 249.399 177.581 248.68 177.992L190.746 211.552C190.027 211.964 189.513 212.993 189.718 213.817C190.232 216.699 190.54 219.685 190.54 222.67C190.54 222.876 190.54 228.023 190.54 228.229V263.23C190.54 264.053 191.157 264.465 191.876 264.053L249.912 230.494C250.631 229.979 251.248 228.95 251.248 228.023Z" fill="white"/>
<path d="M233.477 207.434L223.41 227.817L227.108 232.656L206.462 214.949L190.54 254.171V263.23C190.54 264.053 191.156 264.465 191.875 264.053L249.912 230.494C250.631 230.082 251.248 229.053 251.248 228.126V222.155L233.477 207.434Z" fill="#2ECC71"/>
<path d="M212.111 261.892L259.978 234.2C260.697 233.788 261.314 234.097 261.314 235.023V241.612C261.314 242.435 260.697 243.465 259.978 243.979L212.111 271.568C211.392 271.98 210.775 271.671 210.775 270.745V264.156C210.775 263.333 211.392 262.303 212.111 261.892Z" fill="#2ECC71"/>
<path d="M201.943 282.274L270.046 242.847C270.765 242.435 271.382 242.744 271.382 243.671V245.421C271.382 246.244 270.765 247.274 270.046 247.788L201.943 287.01C201.224 287.422 200.607 287.113 200.607 286.186V284.436C200.607 283.716 201.224 282.686 201.943 282.274Z" fill="#E0E0E0"/>
<path d="M197.32 294.628L273.949 250.259C274.668 249.847 275.284 250.156 275.284 251.083V252.833C275.284 253.656 274.668 254.686 273.949 255.2L197.32 299.569C196.601 299.981 195.984 299.672 195.984 298.745V296.995C195.984 296.069 196.498 295.04 197.32 294.628Z" fill="#E0E0E0"/>
<path d="M191.875 312.231L215.501 298.539C216.22 298.128 216.836 298.437 216.836 299.363V325.202C216.836 326.025 216.22 327.055 215.501 327.57L191.875 341.261C191.156 341.673 190.54 341.364 190.54 340.437V314.599C190.54 313.672 191.156 312.643 191.875 312.231Z" fill="#2ECC71"/>
<path opacity="0.5" d="M191.875 312.231L215.501 298.539C216.22 298.128 216.836 298.437 216.836 299.363V325.202C216.836 326.025 216.22 327.055 215.501 327.57L191.875 341.261C191.156 341.673 190.54 341.364 190.54 340.437V314.599C190.54 313.672 191.156 312.643 191.875 312.231Z" fill="white"/>
<path d="M224.233 293.495L247.858 279.804C248.577 279.392 249.194 279.701 249.194 280.627V306.466C249.194 307.29 248.577 308.319 247.858 308.834L224.233 322.525C223.514 322.937 222.897 322.628 222.897 321.702V295.863C222.897 294.936 223.514 293.907 224.233 293.495Z" fill="#2ECC71"/>
<path d="M256.589 274.76L280.215 261.068C280.934 260.656 281.55 260.965 281.55 261.892V287.73C281.55 288.554 280.934 289.583 280.215 290.098L256.589 303.79C255.87 304.201 255.254 303.893 255.254 302.966V277.127C255.254 276.201 255.87 275.171 256.589 274.76Z" fill="#2ECC71"/>
<path opacity="0.3" d="M256.589 274.76L280.215 261.068C280.934 260.656 281.55 260.965 281.55 261.892V287.73C281.55 288.554 280.934 289.583 280.215 290.098L256.589 303.79C255.87 304.201 255.254 303.893 255.254 302.966V277.127C255.254 276.201 255.87 275.171 256.589 274.76Z" fill="black"/>
<path d="M276.619 306.672L198.346 351.967C197.627 352.379 197.011 352.07 197.011 351.144V349.394C197.011 348.57 197.627 347.541 198.346 347.026L276.619 301.731C277.338 301.319 277.954 301.628 277.954 302.554V304.304C277.954 305.231 277.441 306.26 276.619 306.672Z" fill="#E0E0E0"/>
<path d="M198.86 361.335L277.132 316.04C277.851 315.628 278.365 314.599 278.262 313.775C278.262 313.26 278.16 312.746 278.16 312.231C278.057 311.407 277.44 310.996 276.721 311.51L198.551 356.805C197.832 357.217 197.216 358.247 197.319 359.07C197.319 359.585 197.422 360.1 197.422 360.614C197.422 361.438 198.038 361.747 198.86 361.335Z" fill="#E0E0E0"/>
<path d="M241.9 345.996L194.032 373.791C193.313 374.203 192.902 375.232 193.108 376.056C196.805 387.38 204.099 397.262 214.165 403.954C214.884 404.468 216.014 404.468 216.836 404.057L264.806 376.365C265.525 375.953 265.525 375.232 264.806 374.718C254.74 368.026 247.344 358.144 243.646 346.82C243.44 345.893 242.721 345.585 241.9 345.996Z" fill="#2ECC71"/>
<path opacity="0.8" d="M241.9 345.996L194.032 373.791C193.313 374.203 192.902 375.232 193.108 376.056C196.805 387.38 204.099 397.262 214.165 403.954C214.884 404.468 216.014 404.468 216.836 404.057L264.806 376.365C265.525 375.953 265.525 375.232 264.806 374.718C254.74 368.026 247.344 358.144 243.646 346.82C243.44 345.893 242.721 345.585 241.9 345.996Z" fill="white"/>
<path opacity="0.8" d="M264.909 374.615C261.828 372.556 258.952 370.085 256.384 367.512C248.372 366.894 235.634 364.217 235.634 364.217L231.936 376.879L240.462 379.865C233.169 380.483 210.776 375.026 210.776 375.026C209.132 382.644 209.235 395.821 209.338 400.145C210.879 401.483 212.522 402.718 214.268 403.851C214.988 404.365 216.117 404.366 216.939 403.954L264.909 376.262C265.526 375.85 265.526 375.129 264.909 374.615Z" fill="#2ECC71"/>
<path opacity="0.8" d="M236.352 358.556C237.174 360.1 239.537 360.717 241.078 359.791C242.618 358.864 243.029 356.805 242.208 355.261C241.386 353.717 239.229 352.894 237.688 353.82C236.147 354.747 235.531 357.011 236.352 358.556Z" fill="#2ECC71"/>
<path d="M261.93 353.82L289.664 337.761C290.383 337.349 290.589 336.423 290.178 335.702C289.253 334.261 288.329 332.717 287.507 331.173C287.096 330.452 286.274 330.143 285.453 330.555L257.718 346.614C256.999 347.026 256.691 348.055 257.102 348.776C257.924 350.32 258.746 351.864 259.773 353.305C260.184 354.026 261.211 354.232 261.93 353.82Z" fill="#2ECC71"/>
<path d="M262.136 363.291L299.937 341.364C300.656 340.952 300.759 340.129 300.245 339.408C299.937 339.099 299.731 338.79 299.423 338.481C298.91 337.864 297.883 337.658 297.061 338.07L259.363 360.1C258.644 360.511 258.438 361.438 259.054 362.056C259.26 362.364 259.568 362.673 259.876 362.982C260.39 363.6 261.417 363.703 262.136 363.291Z" fill="#E0E0E0"/>
<path d="M265.115 368.129C265.423 368.438 265.834 368.747 266.142 368.953C266.758 369.468 267.991 369.571 268.71 369.159L306.511 347.335C307.23 346.923 307.333 346.099 306.614 345.585C306.203 345.276 305.895 344.967 305.586 344.658C304.97 344.143 303.84 344.041 303.121 344.452L265.32 366.276C264.601 366.688 264.498 367.512 265.115 368.129Z" fill="#E0E0E0"/>
<path d="M245.393 397.159L293.363 369.365C294.082 368.953 295.315 368.953 296.034 369.365L297.575 370.188C298.294 370.6 298.294 371.321 297.575 371.732L249.604 399.527C248.885 399.939 247.653 399.939 246.934 399.527L245.393 398.704C244.674 398.189 244.674 397.571 245.393 397.159Z" fill="#E0E0E0"/>
<path d="M236.843 201.875L284.711 174.183C285.43 173.772 286.046 174.08 286.046 174.904V181.492C286.046 182.316 285.43 183.345 284.711 183.86L236.843 211.552C236.124 211.964 235.508 211.655 235.508 210.728V204.14C235.508 203.419 236.124 202.39 236.843 201.875Z" fill="#FAFAFA"/>
<path d="M236.227 212.273C236.021 212.273 235.816 212.17 235.61 212.067C235.2 211.861 234.994 211.346 234.994 210.728V204.14C234.994 203.111 235.713 201.875 236.535 201.361L284.402 173.669C284.916 173.36 285.43 173.36 285.841 173.566C286.251 173.772 286.457 174.286 286.457 174.904V181.492C286.457 182.522 285.738 183.757 284.916 184.272L237.049 211.964C236.74 212.17 236.535 212.273 236.227 212.273ZM237.049 202.39C236.432 202.699 236.021 203.625 236.021 204.243V210.831C236.021 211.037 236.124 211.243 236.124 211.243C236.227 211.243 236.33 211.243 236.535 211.14L284.402 183.448C285.019 183.139 285.43 182.213 285.43 181.595V175.007C285.43 174.801 285.327 174.595 285.327 174.595C285.224 174.595 285.121 174.595 284.916 174.698L237.049 202.39Z" fill="#E0E0E0"/>
<path d="M236.843 216.493L284.711 188.801C285.43 188.39 286.046 188.698 286.046 189.522V196.11C286.046 196.934 285.43 197.963 284.711 198.478L236.843 226.17C236.124 226.582 235.508 226.273 235.508 225.346V218.758C235.508 217.934 236.124 216.905 236.843 216.493Z" fill="#FAFAFA"/>
<path d="M236.227 226.787C236.021 226.787 235.816 226.685 235.61 226.582C235.2 226.376 234.994 225.861 234.994 225.243V218.655C234.994 217.625 235.713 216.39 236.535 215.875L284.402 188.184C284.916 187.875 285.43 187.875 285.841 188.081C286.251 188.287 286.457 188.801 286.457 189.419V196.007C286.457 197.037 285.738 198.272 284.916 198.787L237.049 226.479C236.74 226.684 236.535 226.787 236.227 226.787ZM285.327 189.11C285.224 189.11 285.121 189.11 285.019 189.213L237.151 216.905C236.535 217.214 236.124 218.14 236.124 218.758V225.346C236.124 225.552 236.227 225.758 236.227 225.758C236.329 225.758 236.432 225.758 236.638 225.655L284.505 197.963C285.121 197.654 285.532 196.728 285.532 196.11V189.522C285.532 189.316 285.43 189.11 285.327 189.11Z" fill="#E0E0E0"/>
<path d="M110.418 397.674L119.458 392.424C119.458 392.424 122.539 372.762 119.458 355.776C115.143 331.893 98.7083 323.967 92.7505 326.54C86.8955 329.011 85.6628 336.217 96.6539 349.805C103.228 357.835 110.11 375.438 110.418 397.674Z" fill="#2ECC71"/>
<g opacity="0.2">
<path opacity="0.2" d="M110.418 397.674L119.458 392.424C119.458 392.424 122.539 372.762 119.458 355.776C115.143 331.893 98.7083 323.967 92.7505 326.54C86.8955 329.011 85.6628 336.217 96.6539 349.805C103.228 357.835 110.11 375.438 110.418 397.674Z" fill="black"/>
</g>
<path d="M114.527 387.586C114.116 387.586 113.911 387.277 114.014 386.968C116.582 364.423 107.029 340.129 96.6541 330.452C96.4486 330.246 96.4486 329.937 96.6541 329.731C96.8595 329.525 97.1677 329.525 97.3731 329.731C107.953 339.614 117.609 364.32 115.041 387.174C115.041 387.38 114.836 387.586 114.527 387.586Z" fill="white"/>
<path d="M90.4913 409.307C89.3614 410.027 86.7934 408.792 85.8689 408.174C84.2254 407.145 82.89 405.601 81.9655 403.954C80.9383 401.998 80.6302 399.836 80.8356 397.571C80.9383 396.439 81.2465 395.306 81.5547 394.174C81.8628 393.042 82.171 392.012 82.3764 390.88C82.6846 389.747 82.9927 388.615 82.7873 387.586C82.4791 385.321 80.4247 383.777 78.5758 382.541C76.5214 381.1 74.3643 379.144 74.3643 376.468C74.3643 374.409 75.3915 372.453 76.6241 370.703C77.8567 369.056 79.3975 367.512 80.5275 365.762C81.3492 364.526 81.9655 362.982 81.7601 361.541C81.6574 360.614 81.2465 359.791 80.8356 358.967C79.8084 357.217 78.5758 355.673 77.8567 353.717C77.1377 351.864 77.2404 349.497 78.6785 348.055C79.9111 346.923 81.6574 346.717 83.3009 346.82C86.1771 346.923 88.9505 348.982 91.2103 350.526C93.4702 352.07 95.2164 354.232 97.8871 355.158C101.277 356.394 105.797 355.673 108.056 359.173C110.008 362.159 108.57 365.556 108.365 368.747C108.056 373.894 112.884 375.85 115.247 379.556C116.069 380.791 116.274 382.233 116.171 383.674C116.069 386.144 115.658 387.894 114.63 390.674C113.706 392.939 110.83 397.571 110.83 397.571C110.727 397.674 90.6967 409.204 90.4913 409.307Z" fill="#2ECC71"/>
<path d="M102.407 402.718C102.098 402.718 101.893 402.512 101.893 402.204C102.304 380.997 91.7237 357.732 84.3279 351.041C84.1225 350.835 84.1225 350.526 84.3279 350.32C84.5333 350.114 84.8415 350.114 85.047 350.32C92.6482 357.114 103.331 380.688 102.92 402.204C102.92 402.512 102.715 402.718 102.407 402.718Z" fill="white"/>
<path d="M98.7091 377.703C98.6064 377.703 98.6064 377.703 98.5036 377.703C91.6214 375.747 83.1984 375.541 83.0956 375.541C82.7875 375.541 82.582 375.335 82.582 375.027C82.582 374.718 82.7875 374.512 83.0956 374.512C83.1984 374.512 91.8268 374.718 98.8118 376.674C99.12 376.777 99.2227 377.085 99.2227 377.291C99.12 377.497 98.9145 377.703 98.7091 377.703Z" fill="white"/>
<g style="mix-blend-mode:overlay">
<path d="M210.624 334.785C218.764 330.445 221.858 320.318 217.536 312.166C213.214 304.014 203.112 300.925 194.973 305.265C186.833 309.605 183.738 319.732 188.06 327.884C192.382 336.036 202.484 339.126 210.624 334.785Z" fill="#757575"/>
<path fill-rule="evenodd" clip-rule="evenodd" d="M196.607 320.873C197.786 320.244 197.988 320.136 197.988 320.136L197.431 319.085L195.877 319.913C195.128 320.312 194.568 321.037 194.308 321.87C194.069 322.652 194.112 323.535 194.536 324.335C195.012 325.232 195.741 325.79 196.549 326.037C197.42 326.298 198.388 326.192 199.235 325.74L201.801 324.372C201.961 324.287 202.034 324.216 202.045 324.147C202.058 324.069 202.015 323.958 201.937 323.811L199.111 318.48C198.971 318.216 198.937 317.974 198.982 317.777C199.015 317.617 199.102 317.484 199.212 317.378C199.318 317.282 199.45 317.219 199.596 317.197C199.803 317.157 200.038 317.198 200.236 317.32L206.874 321.446C206.978 321.509 207.075 321.528 207.152 321.511C207.195 321.503 207.226 321.487 207.254 321.465C207.275 321.445 207.287 321.423 207.299 321.401C207.31 321.363 207.296 321.308 207.264 321.246L204.32 315.695C204.193 315.455 204.169 315.231 204.224 315.037C204.266 314.88 204.35 314.741 204.463 314.641C204.575 314.542 204.714 314.476 204.856 314.447C205.07 314.404 205.301 314.439 205.509 314.564L212.073 318.642C212.19 318.714 212.306 318.739 212.393 318.724C212.436 318.717 212.479 318.694 212.513 318.668C212.54 318.646 212.555 318.614 212.57 318.583C212.581 318.529 212.573 318.455 212.53 318.375L208.661 311.077L207.593 311.647L209.901 316C209.901 316 208.539 315.141 206.298 313.765C204.092 312.441 202.355 314.424 203.235 316.084L204.669 318.789C204.669 318.789 203.345 317.91 201.11 316.531C198.898 315.211 197.124 317.214 198.004 318.874L200.377 323.349C200.462 323.509 200.436 323.728 200.246 323.829L198.827 324.586C195.754 326.216 194.038 322.282 196.607 320.873Z" fill="white"/>
<path fill-rule="evenodd" clip-rule="evenodd" d="M209.169 310.814L213.04 318.11C213.154 318.325 213.172 318.537 213.129 318.725C213.09 318.872 213.009 319.002 212.896 319.101C212.79 319.197 212.651 319.263 212.499 319.289C212.283 319.326 212.033 319.285 211.786 319.133L205.217 315.049C205.144 315.001 205.06 314.99 204.979 315.002C204.93 315.012 204.88 315.039 204.847 315.064C204.813 315.09 204.792 315.125 204.778 315.172C204.764 315.235 204.772 315.325 204.828 315.429L207.773 320.98C207.877 321.177 207.894 321.373 207.852 321.545C207.818 321.689 207.74 321.81 207.63 321.9C207.527 321.986 207.401 322.046 207.258 322.074C207.051 322.114 206.816 322.073 206.583 321.93L199.944 317.804C199.865 317.759 199.777 317.743 199.706 317.757C199.663 317.764 199.626 317.784 199.598 317.806C199.577 317.826 199.556 317.86 199.551 317.895C199.534 317.967 199.552 318.075 199.624 318.211L202.451 323.54C202.588 323.798 202.656 324.03 202.612 324.259C202.565 324.497 202.399 324.703 202.073 324.877L199.507 326.245C198.53 326.765 197.404 326.884 196.392 326.58C195.446 326.296 194.587 325.642 194.035 324.603C193.533 323.656 193.489 322.623 193.765 321.703C194.059 320.727 194.725 319.875 195.609 319.404L197.163 318.576L196.586 317.488L195.37 318.136C192.214 319.818 191.805 323.071 193.084 325.362C194.264 327.469 197.098 328.877 200.187 327.23L202.809 325.833C203.896 325.254 204.247 324.223 203.614 323.031L202.339 320.627C202.339 320.627 205.014 322.284 206.074 322.887C207.755 323.962 209.918 322.352 208.894 320.422L207.534 317.858C207.534 317.858 210.246 319.496 211.269 320.118C213.009 321.186 215.15 319.564 214.089 317.653L210.176 310.277L209.169 310.814Z" fill="white"/>
</g>
<g style="mix-blend-mode:soft-light">
<path d="M275.464 295.449C282.594 291.647 285.305 282.775 281.519 275.634C277.733 268.492 268.883 265.786 261.752 269.588C254.621 273.39 251.91 282.262 255.697 289.403C259.483 296.545 268.333 299.251 275.464 295.449Z" fill="#757575"/>
<path d="M272.3 283.196C272.337 283.266 272.374 283.336 272.412 283.406C272.586 283.734 272.757 284.071 272.937 284.397C273 284.515 272.969 284.573 272.856 284.633C271.731 285.233 270.613 285.829 269.489 286.429C269.376 286.489 269.307 286.477 269.244 286.359C269.039 285.957 268.827 285.559 268.611 285.163C268.545 285.039 268.57 284.97 268.692 284.913C268.824 284.849 268.955 284.772 269.087 284.709C269.187 284.662 269.215 284.599 269.161 284.497C268.907 284.017 268.661 283.54 268.396 283.067C268.185 282.696 267.853 282.59 267.453 282.734C266.751 282.984 266.487 283.656 266.833 284.322C267.019 284.685 267.216 285.043 267.404 285.412C267.464 285.526 267.528 285.554 267.643 285.485C267.769 285.411 267.91 285.35 268.033 285.271C268.159 285.197 268.228 285.208 268.299 285.343C268.502 285.739 268.71 286.132 268.924 286.522C268.99 286.646 268.967 286.707 268.843 286.773C267.743 287.353 266.654 287.94 265.557 288.525C265.213 288.709 265.265 288.729 265.082 288.385C264.902 288.045 264.725 287.698 264.534 287.364C264.455 287.227 264.474 287.147 264.623 287.089C264.747 287.037 264.865 286.96 264.986 286.902C265.091 286.853 265.106 286.79 265.046 286.691C264.693 286.036 264.35 285.376 264.004 284.725C263.953 284.628 263.895 284.61 263.806 284.664C263.675 284.741 263.532 284.811 263.401 284.888C263.301 284.948 263.238 284.919 263.186 284.822C262.967 284.408 262.752 283.99 262.527 283.578C262.473 283.476 262.504 283.418 262.601 283.366C263.494 282.89 264.384 282.422 265.274 281.941C265.403 281.872 265.464 281.909 265.521 282.03C265.633 282.267 265.761 282.496 265.879 282.73C265.896 282.763 265.924 282.789 265.958 282.84C265.984 282.785 266.007 282.752 266.015 282.713C266.177 281.901 266.656 281.321 267.343 280.899C267.735 280.663 268.156 280.48 268.615 280.408C269.448 280.275 270.098 280.591 270.514 281.35C270.854 281.964 271.177 282.586 271.494 283.211C271.571 283.356 271.637 283.376 271.766 283.294C271.884 283.217 272.013 283.162 272.164 283.082C272.111 283.02 272.077 282.983 272.044 282.946C271.413 282.329 271.06 281.584 271.081 280.689C271.101 280.022 271.361 279.434 271.788 278.937C272.641 277.944 273.69 277.294 275.014 277.162C275.951 277.069 276.699 277.451 277.27 278.19C277.354 278.297 277.35 278.368 277.227 278.448C276.68 278.809 276.144 279.177 275.603 279.549C275.488 279.631 275.417 279.613 275.348 279.498C275.289 279.398 275.216 279.299 275.14 279.208C274.738 278.725 274.215 278.7 273.746 279.13C273.482 279.374 273.413 279.673 273.495 280.01C273.648 280.598 273.928 281.126 274.326 281.59C274.651 281.97 275.094 282.024 275.559 281.755C276.002 281.498 276.156 281.112 275.998 280.644C275.965 280.544 275.986 280.491 276.077 280.443C276.663 280.13 277.252 279.823 277.836 279.505C277.986 279.425 278.024 279.508 278.059 279.627C278.334 280.6 278.12 281.446 277.41 282.163C276.9 282.684 276.311 283.095 275.622 283.331C274.752 283.629 273.865 283.805 272.958 283.487C272.739 283.411 272.531 283.293 272.319 283.192C272.324 283.176 272.311 283.19 272.3 283.196Z" fill="white"/>
<path d="M258.887 283.112C259.624 282.719 260.366 282.323 261.101 281.925C261.241 281.85 261.314 281.859 261.389 282.013C261.618 282.471 261.858 282.924 262.106 283.365C262.194 283.519 262.166 283.596 262.01 283.665C261.821 283.752 261.647 283.866 261.458 283.953C261.331 284.013 261.33 284.076 261.39 284.189C261.999 285.337 262.61 286.49 263.219 287.638C263.279 287.751 263.339 287.76 263.446 287.703C263.643 287.591 263.845 287.49 264.041 287.379C264.146 287.316 264.211 287.336 264.269 287.444C264.48 287.856 264.697 288.266 264.92 288.672C264.98 288.786 264.949 288.844 264.838 288.896C263.337 289.696 261.833 290.491 260.34 291.294C260.227 291.355 260.174 291.334 260.117 291.226C259.906 290.814 259.683 290.407 259.466 289.998C259.415 289.901 259.424 289.841 259.526 289.786C259.728 289.685 259.924 289.574 260.126 289.473C260.242 289.418 260.268 289.349 260.205 289.231C259.594 288.091 258.985 286.944 258.385 285.798C258.314 285.664 258.245 285.652 258.119 285.726C257.936 285.837 257.739 285.922 257.557 286.033C257.452 286.096 257.389 286.081 257.332 285.973C257.083 285.491 256.832 285.016 256.572 284.54C256.506 284.416 256.519 284.361 256.648 284.292C257.404 283.909 258.144 283.508 258.887 283.112Z" fill="white"/>
<path d="M280.242 279.74C280.473 280.176 280.285 280.85 279.849 281.082C279.494 281.272 278.817 281.218 278.523 280.677C278.267 280.206 278.443 279.614 278.919 279.353C279.387 279.104 279.999 279.282 280.242 279.74Z" fill="white"/>
</g>
<g style="mix-blend-mode:overlay">
<path d="M157.402 252.038C168.819 245.95 173.16 231.746 167.097 220.312C161.035 208.878 146.865 204.544 135.449 210.632C124.032 216.719 119.691 230.924 125.753 242.358C131.815 253.792 145.985 258.126 157.402 252.038Z" fill="#757575"/>
<path fill-rule="evenodd" clip-rule="evenodd" d="M127.866 237.984L129.348 237.194C130.166 236.758 130.5 236.679 131.104 236.921C131.447 237.026 131.671 237.283 131.831 237.585C132.028 237.956 132.037 238.327 131.708 238.79C132.682 238.647 133.039 239.32 133.157 239.545C133.354 239.915 133.445 240.442 133.258 240.819C133.007 241.429 132.833 241.621 132.014 242.058L130.464 242.885L127.866 237.984ZM130.107 239.168L130.478 238.971C130.624 238.893 130.926 238.732 130.729 238.361C130.532 237.99 130.239 238.146 130.084 238.229L129.714 238.426L130.107 239.168ZM131.132 241.101L131.648 240.825C131.795 240.747 132.165 240.55 131.927 240.101C131.69 239.652 131.319 239.85 131.173 239.928L130.656 240.204L131.132 241.101Z" fill="white"/>
<path fill-rule="evenodd" clip-rule="evenodd" d="M131.647 235.969L132.759 235.376L135.358 240.278L134.246 240.87L131.647 235.969Z" fill="white"/>
<path fill-rule="evenodd" clip-rule="evenodd" d="M135.643 235.27C136.978 234.558 138.121 235.276 138.597 236.173C139.068 237.062 139.063 238.491 137.728 239.203C136.393 239.915 135.14 239.156 134.669 238.268C134.198 237.379 134.316 235.977 135.643 235.27ZM137.18 238.168C137.627 237.929 137.801 237.361 137.486 236.766C137.211 236.248 136.644 236.075 136.196 236.314C135.679 236.589 135.506 237.158 135.78 237.675C136.096 238.271 136.663 238.444 137.18 238.168Z" fill="white"/>
<path fill-rule="evenodd" clip-rule="evenodd" d="M139.795 233.058C141.13 232.346 142.342 233.028 142.818 233.925C143.289 234.813 143.216 236.279 141.881 236.991C140.545 237.703 139.292 236.944 138.821 236.056C138.35 235.167 138.46 233.77 139.795 233.058ZM141.332 235.956C141.78 235.718 142.022 235.112 141.707 234.517C141.432 234 140.788 233.868 140.349 234.102C139.901 234.341 139.658 234.946 139.932 235.463C140.248 236.059 140.893 236.191 141.332 235.956Z" fill="white"/>
<path fill-rule="evenodd" clip-rule="evenodd" d="M142.091 232.022L143.125 231.471L143.322 231.842C143.321 231.654 143.418 231.127 144.081 230.773C144.374 230.617 144.899 230.525 145.466 230.886C145.494 230.396 145.709 229.905 146.303 229.588C146.527 229.469 147.007 229.312 147.464 229.445C147.953 229.659 148.15 229.842 148.58 230.653L149.641 232.654L148.53 233.246L147.505 231.314C147.35 231.021 147.071 230.495 146.554 230.771C145.891 231.124 146.165 231.642 146.284 231.866L147.345 233.867L146.311 234.418L145.251 232.417C145.173 232.271 144.857 231.675 144.263 231.992C143.669 232.309 143.984 232.904 144.103 233.129L145.128 235.061L144.016 235.653L142.091 232.022Z" fill="white"/>
<path fill-rule="evenodd" clip-rule="evenodd" d="M147.499 227.523L148.61 226.93L149.438 228.492C149.571 227.846 150.088 227.57 150.234 227.492C151.052 227.056 152.361 227.022 153.111 228.437C153.82 229.774 153.207 230.953 152.32 231.426C151.803 231.701 151.277 231.606 151.011 231.459L150.934 231.501L151.131 231.872L150.097 232.423L147.499 227.523ZM151.624 230.469C152.141 230.193 152.274 229.547 151.999 229.029C151.762 228.581 151.158 228.338 150.641 228.614C150.047 228.931 149.992 229.536 150.225 229.976C150.499 230.493 151.03 230.786 151.624 230.469Z" fill="white"/>
<path fill-rule="evenodd" clip-rule="evenodd" d="M157.574 227.009C157.547 227.499 157.478 227.912 157.304 228.292C157.053 228.714 156.838 229.017 156.39 229.256C155.356 229.807 153.989 229.396 153.399 228.283C152.887 227.317 153.193 225.915 154.304 225.322C155.416 224.73 156.705 225.182 157.295 226.294C157.373 226.441 157.414 226.519 157.45 226.588L154.711 228.048C155.027 228.456 155.511 228.474 155.882 228.276C156.252 228.079 156.321 227.854 156.389 227.629L157.57 227L157.574 227.009ZM156.019 226.41C155.823 226.227 155.374 225.902 154.78 226.219C154.263 226.495 154.277 227.063 154.314 227.32L156.019 226.41Z" fill="white"/>
<path fill-rule="evenodd" clip-rule="evenodd" d="M156.75 224.206L157.783 223.655L157.98 224.026C158.085 223.87 158.337 223.261 158.817 223.104L159.366 224.139C158.918 224.378 158.401 224.654 158.717 225.249L159.778 227.251L158.667 227.843L156.741 224.211L156.75 224.206Z" fill="white"/>
<path fill-rule="evenodd" clip-rule="evenodd" d="M164.671 224.079C164.945 224.597 165.261 225.38 165.275 225.76C165.219 226.365 164.781 227.163 163.816 227.49C162.517 228.083 161.835 227.694 161.442 227.14L162.631 226.506C162.974 226.799 163.345 226.601 163.422 226.56C164.017 226.243 164.268 226.009 163.642 224.827L163.601 224.75C163.532 224.974 163.427 225.506 162.841 225.818C161.876 226.333 160.554 225.987 159.964 224.874C159.297 223.614 159.791 222.399 160.756 221.885C161.203 221.646 161.652 221.595 162.027 221.782L161.872 221.489L162.983 220.896L164.671 224.079ZM162.439 224.705C162.956 224.429 163.129 223.861 162.855 223.343C162.539 222.748 161.972 222.575 161.455 222.85C161.007 223.089 160.765 223.694 161.039 224.212C161.355 224.807 161.991 224.944 162.439 224.705Z" fill="white"/>
</g>
<g style="mix-blend-mode:soft-light">
<path d="M243.208 314.33C250.466 310.46 253.225 301.43 249.371 294.162C245.518 286.893 236.51 284.138 229.253 288.008C221.995 291.878 219.235 300.908 223.089 308.176C226.943 315.445 235.95 318.2 243.208 314.33Z" fill="#757575"/>
<path fill-rule="evenodd" clip-rule="evenodd" d="M233.958 306.51C234.122 306.423 234.928 306.021 235.079 305.962L234.986 305.786C234.794 305.888 234.456 306.019 234.335 306.056L231.136 300.022C231.228 299.945 231.531 299.734 231.723 299.632L231.63 299.456C231.493 299.543 230.711 299.989 230.546 300.076C230.382 300.164 229.576 300.566 229.428 300.631L229.521 300.806C229.713 300.704 230.048 300.567 230.172 300.536L233.371 306.57C233.278 306.647 232.976 306.858 232.784 306.96L232.877 307.136C233.011 307.043 233.793 306.598 233.958 306.51Z" fill="white"/>
<path fill-rule="evenodd" clip-rule="evenodd" d="M227.047 302.411C227.184 302.338 228.717 301.52 229.237 301.243C229.338 301.393 229.701 302.064 229.701 302.064L229.794 302.015L229.137 300.775C229 300.862 226.531 302.207 226.367 302.295C226.203 302.383 223.711 303.684 223.562 303.749L224.219 304.988L224.313 304.938C224.313 304.938 223.958 304.269 223.893 304.093C224.413 303.816 225.946 302.998 226.083 302.925L229.191 308.787C229.098 308.864 228.795 309.075 228.604 309.177L228.697 309.353C228.833 309.266 229.613 308.815 229.777 308.727C229.941 308.64 230.747 308.238 230.898 308.179L230.805 308.003C230.613 308.105 230.275 308.236 230.154 308.273L227.047 302.411Z" fill="white"/>
<path fill-rule="evenodd" clip-rule="evenodd" d="M235.799 305.288C235.73 304.932 234.094 299.608 233.626 298.381L233.982 298.191C234.48 298.839 238.11 301.672 238.784 302.135C238.761 301.627 238.35 297.064 238.16 295.963L238.504 295.779C239.209 296.789 242.98 301.438 242.98 301.438C243.095 301.405 243.4 301.291 243.592 301.189L243.685 301.365C243.537 301.429 242.728 301.825 242.564 301.913C242.4 302.001 241.618 302.446 241.484 302.538L241.391 302.363C241.583 302.261 241.88 302.053 241.978 301.973C241.978 301.973 239.431 298.745 239.051 298.294C239.104 298.645 239.434 303.639 239.434 303.639L239.127 303.802C238.703 303.466 235.112 300.654 234.943 300.442C235.113 301.118 236.083 304.195 236.355 304.999C236.454 304.974 236.833 304.8 236.986 304.719L237.079 304.894C236.958 304.945 236.429 305.192 236.292 305.265C236.161 305.335 235.466 305.733 235.365 305.808L235.272 305.633C235.417 305.548 235.732 305.36 235.799 305.288Z" fill="white"/>
<path fill-rule="evenodd" clip-rule="evenodd" d="M244.389 300.69C244.297 300.767 243.994 300.978 243.802 301.08L243.895 301.255C244.032 301.168 245.315 300.449 245.485 300.358C245.649 300.271 248.75 298.646 248.901 298.586L248.244 297.347L248.151 297.396C248.151 297.396 248.505 298.066 248.571 298.242C248.05 298.519 245.405 299.93 245.268 300.003L242.251 294.31C242.387 294.237 244.934 292.879 245.449 292.605C245.549 292.755 245.913 293.427 245.913 293.427L246.006 293.377L245.349 292.138C245.212 292.225 242.239 293.838 242.075 293.926C241.91 294.013 240.595 294.687 240.447 294.751L240.54 294.927C240.732 294.825 241.067 294.688 241.191 294.657L244.389 300.69Z" fill="white"/>
<path fill-rule="evenodd" clip-rule="evenodd" d="M243.854 297.324C243.854 297.324 246.331 295.982 246.553 295.884C246.613 295.944 246.871 296.285 246.937 296.383L247.058 296.319C247.014 296.25 246.716 295.713 246.649 295.587C246.579 295.456 246.305 294.913 246.273 294.839L246.152 294.903C246.194 295.007 246.334 295.418 246.35 295.501C246.145 295.631 243.651 296.94 243.651 296.94L243.854 297.324Z" fill="white"/>
</g>
<g style="mix-blend-mode:color-burn">
<path d="M97.2119 320.729C105.352 316.389 108.446 306.262 104.124 298.11C99.8023 289.958 89.7001 286.868 81.5604 291.209C73.4208 295.549 70.326 305.676 74.648 313.828C78.97 321.979 89.0722 325.069 97.2119 320.729Z" fill="#757575"/>
<path d="M94.4439 296.49C94.0543 297.092 93.4767 297.637 92.8953 298.026C93.3424 297.235 93.4749 296.297 93.2966 295.366C92.8782 296.062 92.3659 296.73 91.6654 297.34C90.6927 296.991 89.6662 296.986 88.7451 297.477C86.9644 298.427 86.306 300.75 87.3495 302.718C87.48 302.964 87.643 303.272 87.8349 303.485C85.0679 304.802 81.9231 304.665 79.2178 303.425C79.1716 304.081 79.3749 304.761 79.7337 305.438C80.3859 306.668 81.4929 307.418 82.6787 307.575C82.126 307.87 81.537 307.947 80.9767 307.93L81.0093 307.992C81.8898 309.652 83.7451 310.478 85.4145 310.061C85.2015 310.253 84.9271 310.478 84.6201 310.642C84.4359 310.74 84.1902 310.871 83.9734 310.908C85.1533 312.093 86.8417 312.455 88.254 311.702C87.6379 313.214 86.5191 314.521 85.0454 315.306C84.7998 315.437 84.5542 315.568 84.2146 315.671C86.1487 315.902 88.1941 315.6 90.0362 314.618C95.9924 311.442 96.4422 304.418 93.9964 299.805C93.9312 299.682 93.8334 299.498 93.7681 299.375C94.1789 298.367 94.4054 297.457 94.4439 296.49Z" fill="white"/>
</g>
<g style="mix-blend-mode:color-burn">
<path d="M97.2119 233.434C89.0752 237.773 78.9684 234.682 74.648 226.533C70.3275 218.384 73.4237 208.253 81.5604 203.914C89.6971 199.575 99.8039 202.666 104.124 210.815C108.445 218.964 105.349 229.096 97.2119 233.434Z" fill="#757575"/>
<path d="M96.2437 208.926C95.5727 208.195 94.5542 207.879 93.5862 208.103C91.845 208.503 85.7231 211.767 85.7231 211.767C85.7231 211.767 79.6013 215.032 78.2969 216.256C77.5764 216.932 77.2653 217.95 77.4913 218.925C77.895 220.682 79.597 223.892 79.597 223.892C79.597 223.892 81.2989 227.102 82.5254 228.42C83.1964 229.151 84.2149 229.468 85.1829 229.243C86.9303 228.84 93.046 225.579 93.046 225.579C93.046 225.579 99.1678 222.315 100.472 221.091C101.193 220.414 101.504 219.397 101.278 218.421C100.874 216.664 99.1721 213.454 99.1721 213.454C99.1721 213.454 97.4702 210.244 96.2437 208.926ZM88.9282 222.655L85.8374 216.826L92.4977 217.013L88.9282 222.655Z" fill="white"/>
</g>
<path d="M429.215 151.205L343.375 188.54C341.074 189.542 338.45 188.168 337.934 185.716L326.217 128.825C326.063 128.041 326.138 127.257 326.432 126.551C326.827 125.547 327.631 124.724 328.695 124.334L416.52 91.0707C417.544 90.6764 418.622 90.7588 419.53 91.1581C420.668 91.6641 421.544 92.7051 421.795 94.0513L431.515 146.869C431.848 148.682 430.893 150.482 429.215 151.205Z" fill="#2ECC71"/>
<path d="M339.418 188.095L388.477 138.54L339.994 188.457C339.994 188.457 339.566 188.206 339.418 188.095Z" fill="#2ECC71"/>
<path d="M431.515 148.074L390.781 137.922L431.439 148.508C431.439 148.508 431.5 148.206 431.515 148.074Z" fill="#F8CE51"/>
<path opacity="0.6" d="M419.525 91.1546L392.161 143.246L326.441 126.54C326.836 125.536 327.639 124.713 328.703 124.324L416.515 91.0672C417.539 90.673 418.617 90.7554 419.525 91.1546Z" fill="#2ECC71"/>
<path d="M419.525 91.1542L392 139.905L326.442 126.538C326.837 125.535 327.64 124.712 328.704 124.322L416.515 91.0668C417.539 90.6727 418.617 90.7551 419.525 91.1542Z" fill="#F8CE51"/>
<path d="M419.524 91.1541L391.804 139.264L326.442 126.538C326.837 125.534 327.641 124.712 328.704 124.322L416.515 91.0668C417.539 90.6726 418.616 90.755 419.524 91.1541Z" fill="#2ECC71"/>
<path d="M422.392 126.003L409.322 131.681C408.97 131.829 408.577 131.623 408.498 131.251L406.721 122.591C406.695 122.467 406.708 122.348 406.747 122.245C406.805 122.09 406.926 121.969 407.094 121.908L420.456 116.842C420.611 116.779 420.77 116.797 420.911 116.853C421.091 116.928 421.22 117.09 421.251 117.295L422.736 125.33C422.797 125.619 422.645 125.898 422.392 126.003Z" fill="#F8CE51"/>
<g style="mix-blend-mode:soft-light">
<path d="M367.034 176.776C380.245 171.546 386.731 156.578 381.521 143.342C376.312 130.107 361.379 123.617 348.169 128.846C334.958 134.075 328.472 149.044 333.682 162.279C338.891 175.515 353.823 182.005 367.034 176.776Z" fill="#757575"/>
<path fill-rule="evenodd" clip-rule="evenodd" d="M347.582 149.57C347.879 149.359 348.214 149.215 348.563 149.135C348.951 149.039 349.357 149.016 349.759 149.1C349.873 149.389 349.987 149.679 350.101 149.969C349.842 149.898 349.582 149.851 349.323 149.838C348.973 149.826 348.625 149.907 348.303 150.057C348.148 150.13 348.014 150.229 347.906 150.364C347.836 150.45 347.784 150.551 347.769 150.661C347.756 150.804 347.798 150.938 347.869 151.06C347.932 151.162 348.035 151.248 348.152 151.283C348.311 151.335 348.474 151.34 348.633 151.334C348.966 151.33 349.304 151.311 349.636 151.307C349.921 151.298 350.217 151.319 350.491 151.43C350.748 151.524 350.978 151.699 351.126 151.929C351.288 152.165 351.394 152.434 351.422 152.711C351.453 152.965 351.396 153.23 351.279 153.461C351.156 153.705 350.96 153.91 350.739 154.078C350.435 154.302 350.09 154.451 349.735 154.545C349.287 154.665 348.811 154.715 348.354 154.607C348.236 154.307 348.122 154.018 348.004 153.718C348.571 153.898 349.195 153.905 349.758 153.694C349.997 153.599 350.228 153.484 350.394 153.291C350.49 153.184 350.551 153.045 350.55 152.895C350.554 152.732 350.482 152.576 350.387 152.452C350.282 152.332 350.129 152.266 349.972 152.247C349.701 152.204 349.435 152.229 349.16 152.234C348.828 152.238 348.507 152.273 348.175 152.22C347.932 152.189 347.68 152.104 347.482 151.952C347.206 151.749 347.031 151.449 346.939 151.128C346.855 150.827 346.884 150.492 347.015 150.209C347.144 149.951 347.35 149.742 347.582 149.57Z" fill="white"/>
<path fill-rule="evenodd" clip-rule="evenodd" d="M367.275 142.031C367.527 141.678 367.905 141.436 368.307 141.288C368.806 141.091 369.355 141.023 369.884 141.137C369.998 141.426 370.112 141.716 370.226 142.005C369.991 141.937 369.755 141.892 369.51 141.885C369.088 141.867 368.666 141.965 368.301 142.179C368.107 142.302 367.923 142.479 367.898 142.708C367.871 142.961 368.025 143.235 368.267 143.323C368.458 143.398 368.671 143.383 368.864 143.376C369.196 143.371 369.525 143.356 369.857 143.352C370.155 143.349 370.46 143.39 370.728 143.515C370.978 143.624 371.186 143.83 371.314 144.068C371.46 144.321 371.564 144.615 371.556 144.918C371.553 145.173 371.468 145.426 371.324 145.645C371.157 145.895 370.924 146.092 370.674 146.248C370.319 146.458 369.912 146.596 369.512 146.662C369.175 146.715 368.823 146.727 368.479 146.644C368.361 146.344 368.247 146.055 368.129 145.755C368.575 145.891 369.052 145.933 369.508 145.833C369.709 145.788 369.903 145.723 370.078 145.642C370.264 145.557 370.447 145.438 370.564 145.265C370.662 145.134 370.7 144.968 370.671 144.807C370.635 144.625 370.526 144.437 370.355 144.355C370.208 144.274 370.031 144.264 369.864 144.249C369.596 144.24 369.315 144.259 369.05 144.26C368.79 144.271 368.529 144.282 368.268 144.235C368.036 144.2 367.794 144.111 367.599 143.969C367.405 143.826 367.269 143.626 367.158 143.405C367.07 143.209 367.007 142.991 367.012 142.77C367.016 142.515 367.116 142.244 367.275 142.031Z" fill="white"/>
<path fill-rule="evenodd" clip-rule="evenodd" d="M372.612 139.727C372.819 139.553 373.049 139.404 373.302 139.315C373.807 139.104 374.372 139.019 374.921 139.125C374.945 139.127 374.953 139.147 374.96 139.167C375.071 139.446 375.181 139.726 375.291 140.005C375.032 139.935 374.758 139.882 374.493 139.883C374.157 139.877 373.808 139.958 373.507 140.1C373.352 140.173 373.208 140.276 373.1 140.411C373.023 140.511 372.969 140.636 372.972 140.762C372.975 141.003 373.125 141.267 373.36 141.335C373.622 141.416 373.905 141.374 374.173 141.383C374.496 141.382 374.806 141.351 375.122 141.365C375.419 141.386 375.711 141.455 375.957 141.611C376.221 141.784 376.408 142.056 376.522 142.345C376.635 142.601 376.667 142.888 376.604 143.167C376.541 143.446 376.398 143.698 376.198 143.893C375.986 144.116 375.727 144.276 375.451 144.396C375.15 144.539 374.815 144.625 374.489 144.674C374.182 144.714 373.86 144.715 373.568 144.646C373.44 144.35 373.336 144.057 373.218 143.757C373.784 143.937 374.419 143.94 374.981 143.729C375.22 143.634 375.462 143.515 375.634 143.309C375.72 143.205 375.781 143.066 375.783 142.926C375.788 142.763 375.711 142.597 375.616 142.473C375.511 142.353 375.363 142.297 375.215 142.274C374.945 142.231 374.664 142.25 374.39 142.255C374.057 142.259 373.737 142.294 373.405 142.241C373.148 142.204 372.882 142.113 372.68 141.951C372.46 141.772 372.304 141.523 372.208 141.249C372.12 140.995 372.105 140.724 372.176 140.465C372.205 140.188 372.392 139.93 372.612 139.727Z" fill="white"/>
<path fill-rule="evenodd" clip-rule="evenodd" d="M355.239 146.463C356.8 147.092 358.355 147.734 359.919 148.372C359.503 147.314 359.087 146.256 358.67 145.197C358.939 145.091 359.208 144.984 359.478 144.878C360.142 146.565 360.806 148.252 361.466 149.93C360.403 149.485 359.355 149.046 358.293 148.601C357.782 148.388 357.272 148.174 356.762 147.961C357.186 149.039 357.607 150.107 358.031 151.186C357.762 151.292 357.493 151.399 357.223 151.505C356.567 149.838 355.903 148.151 355.239 146.463Z" fill="white"/>
<path fill-rule="evenodd" clip-rule="evenodd" d="M335.22 154.472C335.659 154.299 336.087 154.129 336.526 153.955C336.835 153.833 337.13 153.704 337.459 153.632C337.768 153.567 338.086 153.557 338.39 153.656C338.632 153.744 338.844 153.903 338.984 154.113C339.146 154.349 339.256 154.628 339.279 154.919C339.295 155.224 339.194 155.553 338.964 155.759C339.026 155.77 339.08 155.76 339.131 155.774C339.432 155.805 339.717 155.946 339.915 156.156C340.07 156.314 340.186 156.522 340.248 156.74C340.335 157.017 340.351 157.322 340.264 157.599C340.169 157.914 339.939 158.178 339.667 158.366C339.432 158.529 339.176 158.641 338.907 158.748C338.329 158.977 337.751 159.206 337.173 159.435C336.524 157.787 335.872 156.13 335.22 154.472ZM336.324 154.878C336.501 155.327 336.682 155.786 336.859 156.236C337.188 156.105 337.526 155.971 337.855 155.841C338.061 155.748 338.264 155.621 338.379 155.414C338.455 155.257 338.456 155.084 338.403 154.92C338.347 154.746 338.242 154.568 338.081 154.482C337.934 154.402 337.757 154.391 337.596 154.42C337.411 154.447 337.235 154.528 337.066 154.595C336.813 154.684 336.573 154.779 336.324 154.878ZM337.137 156.944C337.326 157.424 337.519 157.913 337.707 158.392C338.056 158.254 338.415 158.112 338.764 157.974C338.963 157.895 339.161 157.782 339.283 157.595C339.397 157.446 339.434 157.247 339.397 157.065C339.352 156.864 339.254 156.672 339.091 156.552C338.961 156.453 338.792 156.405 338.623 156.414C338.473 156.415 338.33 156.461 338.19 156.516C337.845 156.664 337.482 156.796 337.137 156.944Z" fill="white"/>
<path fill-rule="evenodd" clip-rule="evenodd" d="M340.592 152.349C340.871 152.239 341.15 152.128 341.429 152.018C341.767 152.877 342.101 153.725 342.439 154.584C342.557 154.883 342.669 155.197 342.853 155.459C343.007 155.675 343.221 155.867 343.479 155.938C343.737 156.009 344.006 155.96 344.255 155.861C344.505 155.763 344.744 155.61 344.881 155.371C344.999 155.174 345.034 154.941 345.029 154.724C345.015 154.453 344.936 154.195 344.832 153.96C344.459 153.011 344.086 152.063 343.712 151.114C343.991 151.004 344.271 150.893 344.55 150.782C344.939 151.771 345.328 152.759 345.717 153.748C345.888 154.153 345.983 154.6 345.925 155.039C345.881 155.425 345.7 155.785 345.43 156.065C345.128 156.381 344.725 156.587 344.305 156.719C344.018 156.809 343.711 156.85 343.407 156.809C343.188 156.78 342.968 156.717 342.775 156.609C342.541 156.482 342.345 156.306 342.181 156.094C341.995 155.856 341.855 155.588 341.745 155.309C341.366 154.316 340.981 153.338 340.592 152.349Z" fill="white"/>
<path fill-rule="evenodd" clip-rule="evenodd" d="M352.032 147.821C352.312 147.71 352.591 147.6 352.87 147.489C353.523 149.147 354.175 150.805 354.828 152.463C354.553 152.583 354.269 152.684 353.98 152.799C353.338 151.137 352.685 149.479 352.032 147.821Z" fill="white"/>
<path fill-rule="evenodd" clip-rule="evenodd" d="M361.718 143.991C362.715 143.596 363.722 143.197 364.719 142.803C364.817 143.052 364.916 143.302 365.014 143.551C364.286 143.84 363.558 144.128 362.841 144.412C362.998 144.811 363.151 145.201 363.308 145.6C363.956 145.344 364.614 145.083 365.262 144.827C365.36 145.076 365.455 145.316 365.553 145.565C364.905 145.822 364.247 146.083 363.599 146.339C363.799 146.848 364.004 147.368 364.204 147.877C364.932 147.589 365.66 147.301 366.377 147.016C366.476 147.266 366.578 147.526 366.676 147.775C365.679 148.17 364.672 148.569 363.675 148.963C363.145 147.615 362.618 146.277 362.088 144.929C361.966 144.62 361.83 144.304 361.718 143.991Z" fill="white"/>
<path fill-rule="evenodd" clip-rule="evenodd" d="M344.712 159.365C346.259 159.987 347.806 160.609 349.353 161.232C348.944 160.193 348.536 159.155 348.123 158.107C348.392 158 348.662 157.894 348.931 157.787C349.583 159.444 350.235 161.102 350.887 162.759C349.337 162.127 347.782 161.485 346.227 160.842C346.644 161.901 347.06 162.959 347.477 164.017C347.207 164.124 346.938 164.23 346.669 164.337C346.017 162.68 345.355 161.026 344.712 159.365Z" fill="white"/>
<path fill-rule="evenodd" clip-rule="evenodd" d="M351.815 156.751C352.075 156.475 352.418 156.293 352.771 156.165C353.247 155.999 353.753 155.937 354.254 156.039C354.368 156.329 354.478 156.608 354.592 156.898C354.334 156.827 354.073 156.78 353.808 156.781C353.462 156.78 353.104 156.864 352.792 157.01C352.641 157.093 352.503 157.182 352.395 157.318C352.319 157.417 352.264 157.542 352.268 157.668C352.283 157.881 352.403 158.099 352.597 158.184C352.75 158.25 352.937 158.257 353.111 158.258C353.453 158.249 353.781 158.234 354.124 158.226C354.398 158.221 354.671 158.24 354.923 158.325C355.175 158.409 355.397 158.564 355.551 158.78C355.706 158.996 355.828 159.247 355.862 159.511C355.907 159.77 355.873 160.037 355.757 160.268C355.638 160.523 355.456 160.733 355.234 160.902C354.961 161.114 354.649 161.26 354.323 161.367C353.986 161.477 353.629 161.537 353.279 161.526C353.126 161.517 352.973 161.509 352.822 161.476C352.708 161.187 352.594 160.897 352.48 160.608C353.046 160.787 353.667 160.784 354.229 160.573C354.468 160.478 354.71 160.359 354.872 160.157C354.964 160.04 355.03 159.886 355.019 159.741C355.004 159.585 354.945 159.435 354.844 159.325C354.739 159.205 354.58 159.153 354.423 159.134C354.157 159.101 353.9 159.122 353.625 159.127C353.327 159.13 353.026 159.156 352.726 159.125C352.46 159.092 352.187 159.015 351.961 158.851C351.735 158.687 351.583 158.447 351.485 158.197C351.391 157.957 351.362 157.68 351.417 157.439C351.498 157.176 351.635 156.938 351.815 156.751Z" fill="white"/>
<path fill-rule="evenodd" clip-rule="evenodd" d="M341.518 160.722C341.797 160.612 342.076 160.501 342.355 160.391C342.996 162.019 343.641 163.657 344.282 165.284C344.002 165.395 343.723 165.506 343.444 165.616C342.799 163.978 342.158 162.35 341.518 160.722Z" fill="white"/>
<path fill-rule="evenodd" clip-rule="evenodd" d="M356.542 154.776C356.821 154.666 357.101 154.555 357.38 154.445C358.021 156.073 358.665 157.711 359.306 159.339C359.027 159.449 358.748 159.56 358.468 159.67C357.824 158.032 357.183 156.404 356.542 154.776Z" fill="white"/>
<path fill-rule="evenodd" clip-rule="evenodd" d="M359.811 153.484C360.459 153.228 361.097 152.975 361.744 152.718C362.247 152.531 362.816 152.456 363.343 152.593C363.79 152.705 364.191 152.962 364.487 153.306C364.737 153.588 364.928 153.928 365.065 154.277C365.262 154.776 365.347 155.343 365.232 155.873C365.145 156.323 364.902 156.731 364.576 157.044C364.314 157.286 364.009 157.477 363.684 157.617C363.036 157.873 362.388 158.13 361.75 158.383C361.091 156.739 360.451 155.112 359.811 153.484ZM360.935 153.882C361.383 155.02 361.831 156.158 362.278 157.296C362.548 157.19 362.807 157.087 363.076 156.98C363.235 156.917 363.409 156.86 363.557 156.767C363.85 156.605 364.106 156.376 364.249 156.066C364.373 155.797 364.415 155.493 364.378 155.195C364.346 154.908 364.26 154.631 364.134 154.369C364.02 154.137 363.875 153.917 363.689 153.737C363.507 153.567 363.283 153.436 363.038 153.372C362.756 153.299 362.456 153.325 362.175 153.402C362.007 153.445 361.842 153.522 361.682 153.585C361.433 153.684 361.184 153.783 360.935 153.882Z" fill="white"/>
<path fill-rule="evenodd" clip-rule="evenodd" d="M365.838 151.099C366.835 150.705 367.832 150.31 368.819 149.919C368.917 150.169 369.011 150.409 369.11 150.658C368.392 150.942 367.664 151.231 366.946 151.515C367.099 151.904 367.257 152.304 367.41 152.693C368.058 152.436 368.696 152.184 369.344 151.927C369.438 152.167 369.533 152.407 369.627 152.646C368.979 152.903 368.331 153.159 367.693 153.412C367.893 153.921 368.09 154.42 368.29 154.93C369.008 154.645 369.736 154.357 370.454 154.073C370.552 154.323 370.65 154.572 370.744 154.812C369.747 155.207 368.75 155.601 367.763 155.992C367.119 154.355 366.478 152.727 365.838 151.099Z" fill="white"/>
<path fill-rule="evenodd" clip-rule="evenodd" d="M371.308 148.934C371.916 148.693 372.524 148.452 373.142 148.207C373.445 148.099 373.774 148.027 374.104 148.046C374.362 148.059 374.619 148.154 374.817 148.306C375.061 148.486 375.234 148.752 375.348 149.042C375.462 149.331 375.53 149.651 375.479 149.959C375.444 150.193 375.323 150.413 375.159 150.582C375.037 150.711 374.904 150.81 374.752 150.894C375.603 151.33 376.455 151.766 377.31 152.212C376.991 152.338 376.672 152.464 376.363 152.587C375.535 152.153 374.704 151.709 373.866 151.279C373.667 151.358 373.478 151.433 373.278 151.512C373.538 152.171 373.801 152.84 374.06 153.498C373.781 153.609 373.502 153.72 373.233 153.826C372.588 152.189 371.948 150.561 371.308 148.934ZM372.418 149.325C372.614 149.824 372.811 150.323 373.007 150.823C373.326 150.696 373.655 150.566 373.974 150.44C374.194 150.353 374.399 150.202 374.51 149.985C374.58 149.842 374.591 149.665 374.556 149.517C374.511 149.316 374.403 149.128 374.24 149.007C374.082 148.897 373.873 148.864 373.684 148.882C373.485 148.903 373.309 148.984 373.13 149.055C372.886 149.14 372.657 149.23 372.418 149.325Z" fill="white"/>
</g>
<g style="mix-blend-mode:soft-light">
<path d="M170.312 283.879C178.452 279.539 181.547 269.412 177.225 261.26C172.903 253.108 162.801 250.019 154.661 254.359C146.521 258.699 143.427 268.826 147.749 276.978C152.071 285.13 162.173 288.22 170.312 283.879Z" fill="#757575"/>
<path fill-rule="evenodd" clip-rule="evenodd" d="M152.063 272.548L155.217 270.868L158.629 277.296L161.847 275.583L158.434 269.154L161.589 267.474L159.876 264.248L150.351 269.322L152.063 272.548Z" fill="white"/>
<path d="M169.626 259.044L163.165 262.489L164.875 265.715L171.336 262.27L169.626 259.044Z" fill="white"/>
<path fill-rule="evenodd" clip-rule="evenodd" d="M161.655 267.437L165.143 274.017L165.241 273.964L168.365 272.298L174.769 268.883L173.062 265.663L166.658 269.078L164.877 265.719L161.655 267.437Z" fill="white"/>
</g>
<path d="M411.381 406.706V400.007L423.356 399.929L423.458 410.039L422.716 410.094C419.411 410.305 405.905 410.618 403.694 409.93C401.218 409.171 411.381 406.706 411.381 406.706Z" fill="#2ECC71"/>
<path d="M403.405 409.312C403.405 409.421 407.881 409.515 413.412 409.515C418.935 409.515 423.418 409.421 423.418 409.312C423.418 409.202 418.942 409.108 413.412 409.108C407.889 409.108 403.405 409.194 403.405 409.312Z" fill="#263238"/>
<path d="M411.17 408.067C411.272 408.012 411.186 407.66 410.928 407.316C410.67 406.964 410.358 406.784 410.279 406.862C410.201 406.94 410.365 407.238 410.6 407.559C410.834 407.879 411.068 408.122 411.17 408.067Z" fill="#263238"/>
<path d="M410.405 408.513C410.506 408.474 410.451 408.075 410.217 407.66C409.983 407.238 409.67 406.987 409.584 407.058C409.498 407.128 409.647 407.473 409.866 407.856C410.084 408.247 410.303 408.552 410.405 408.513Z" fill="#263238"/>
<path d="M419.81 409.28C419.857 409.312 420.036 409.139 420.294 408.842C420.552 408.552 420.895 408.138 421.341 407.786C421.786 407.441 422.278 407.261 422.637 407.222C423.005 407.175 423.239 407.23 423.262 407.167C423.286 407.12 423.059 406.956 422.63 406.933C422.208 406.901 421.606 407.066 421.099 407.465C420.591 407.856 420.271 408.333 420.067 408.67C419.857 409.014 419.763 409.249 419.81 409.28Z" fill="#263238"/>
<path d="M411.131 406.815C411.069 406.909 411.279 407.144 411.623 407.269C411.967 407.394 412.272 407.355 412.287 407.238C412.303 407.128 412.061 406.995 411.764 406.886C411.467 406.776 411.194 406.714 411.131 406.815Z" fill="#263238"/>
<path d="M411.319 406.166C411.311 406.275 411.623 406.377 412.029 406.377C412.436 406.385 412.756 406.299 412.748 406.181C412.74 406.072 412.42 405.97 412.037 405.97C411.654 405.97 411.334 406.056 411.319 406.166Z" fill="#263238"/>
<path d="M381.893 406.706V400.007L393.868 399.929L393.969 409.938L393.227 409.992C389.923 410.204 376.417 410.618 374.206 409.938C371.73 409.171 381.893 406.706 381.893 406.706Z" fill="#2ECC71"/>
<path d="M373.917 409.327C373.917 409.437 378.393 409.531 383.924 409.531C389.446 409.531 393.93 409.437 393.93 409.327C393.93 409.218 389.454 409.124 383.924 409.124C378.393 409.124 373.917 409.21 373.917 409.327Z" fill="#263238"/>
<path d="M381.682 408.067C381.783 408.012 381.697 407.66 381.44 407.316C381.182 406.964 380.869 406.784 380.791 406.862C380.713 406.94 380.877 407.238 381.111 407.559C381.346 407.879 381.58 408.122 381.682 408.067Z" fill="#263238"/>
<path d="M380.916 408.513C381.018 408.474 380.963 408.075 380.729 407.66C380.494 407.238 380.182 406.987 380.096 407.058C380.01 407.128 380.159 407.473 380.377 407.856C380.596 408.247 380.807 408.552 380.916 408.513Z" fill="#263238"/>
<path d="M390.321 409.28C390.368 409.312 390.548 409.139 390.806 408.842C391.063 408.552 391.407 408.138 391.852 407.786C392.298 407.441 392.79 407.261 393.149 407.222C393.516 407.175 393.751 407.23 393.774 407.167C393.798 407.12 393.571 406.956 393.141 406.933C392.72 406.901 392.118 407.066 391.61 407.465C391.103 407.856 390.782 408.333 390.579 408.67C390.368 409.014 390.275 409.249 390.321 409.28Z" fill="#263238"/>
<path d="M381.643 406.815C381.588 406.909 381.791 407.144 382.135 407.269C382.479 407.394 382.783 407.355 382.799 407.238C382.814 407.128 382.572 406.995 382.275 406.886C381.971 406.776 381.705 406.714 381.643 406.815Z" fill="#263238"/>
<path d="M381.83 406.166C381.822 406.275 382.135 406.377 382.541 406.377C382.947 406.385 383.267 406.299 383.26 406.181C383.252 406.072 382.932 405.97 382.549 405.97C382.166 405.97 381.846 406.056 381.83 406.166Z" fill="#263238"/>
<path d="M337.773 208.019C338.086 207.698 338.851 207.847 338.851 207.847C338.851 207.847 338.718 206.931 338.859 206.493C339 206.047 339.984 206.133 339.984 206.133C339.984 206.133 340.046 205.71 339.96 205.022C339.937 204.85 340.031 204.724 340.187 204.63C340.656 204.349 341.656 204.364 341.656 204.364C342.257 203.934 339.82 200.514 338.914 199.419C338.031 198.339 338.179 197.47 338.984 197.47C339.531 197.47 342.382 200.757 343.249 201.86C344.116 202.964 346.452 206.031 346.53 203.582C346.608 201.132 347.592 199.278 348.202 198.965C348.819 198.652 349.475 199.387 349.139 200.068C348.866 200.616 348.694 201.68 348.592 202.478C348.514 203.136 348.538 203.809 348.686 204.458C349.092 206.289 349.53 207.487 349.74 207.995V212.62C349.74 212.62 365.62 225.771 366.846 226.937C367.955 227.985 391.345 224.264 395.782 223.795C396.993 223.662 398.789 223.411 400.352 223.482C402.273 223.568 402.617 223.842 404.546 223.865C410.444 223.944 415.365 224.523 419.021 225.141C423.442 225.892 427.075 229.046 428.442 233.326C432.918 247.334 440.423 277.567 442.228 296.191C443.649 298.868 447.877 304.921 448.518 306.681C449.775 310.109 449.471 310.219 449.049 310.305C447.916 310.516 446.612 304.365 446.127 305.852C445.643 307.339 448.588 313.184 447.393 313.357C445.83 313.583 444.588 307.12 444.448 306.58C444.307 306.055 443.518 306.235 443.674 306.713C443.901 307.401 446.096 314.702 444.573 314.937C443.729 315.07 443.635 313.521 443.635 313.521C443.635 313.521 442.081 306.541 441.362 306.674C440.636 306.807 441.409 310.938 441.768 312.316C442.128 313.677 441.62 314.397 440.893 314.053C440.394 313.818 439.198 309.639 438.87 308.27C438.55 306.901 437.722 303.137 436.621 305.32C435.519 307.503 433.847 308.771 433.16 308.802C432.473 308.826 432.184 307.879 432.777 307.401C433.262 307.018 433.863 306.134 434.285 305.445C434.636 304.882 434.894 304.263 435.035 303.614C435.582 301.11 435.582 299.654 435.582 299.654L436.621 296.583C434.871 287.904 428.918 264.698 421.669 248.429L418.685 254.58L417.389 259.134L425.341 278.807L391.431 278.361L396.485 258.845L390.345 238.499C383.697 238.647 366.621 238.898 363.754 237.614C360.169 236.002 345.364 214.807 345.364 214.807C344.114 213.813 339.132 210.546 338.195 209.615C338.203 209.615 337.094 208.715 337.773 208.019Z" fill="#FFBE9D"/>
<path d="M426.817 264.315C425.833 260.95 420.779 244.313 420.779 244.313C420.779 244.313 418.295 257.875 418.951 259.51C419.701 261.396 421.084 263.548 421.084 263.548C426.817 272.297 426.067 276.671 426.067 276.671L391.431 275.615C391.345 270.763 394.212 259.479 394.813 257.679C395.415 255.879 393.423 249.979 393.423 249.979C393.423 249.979 388.57 245.812 388.719 243.761C389.024 239.629 390.337 238.483 390.337 238.483L369.262 239.258L369.926 224.93L400.219 221.893C401.266 224.883 410.811 223.419 410.811 223.419C421.115 223.756 421.732 225.657 426.028 228.991C430.325 232.325 437.394 260.934 437.394 260.934L426.817 264.315Z" fill="#2ECC71"/>
<path d="M406.327 260.934C406.327 260.989 407.022 261.036 408.155 261.028C409.28 261.02 410.842 260.95 412.553 260.778C414.264 260.606 415.81 260.363 416.912 260.144C418.021 259.925 418.693 259.745 418.685 259.69C418.677 259.635 417.982 259.713 416.865 259.862C415.748 260.003 414.217 260.199 412.514 260.371C410.811 260.543 409.264 260.66 408.147 260.739C407.022 260.817 406.327 260.879 406.327 260.934Z" fill="#263238"/>
<path d="M403.96 257.984C403.945 258.031 404.663 258.305 405.851 258.634C407.038 258.954 408.71 259.314 410.584 259.541C412.459 259.76 414.17 259.807 415.396 259.776C416.631 259.745 417.388 259.643 417.388 259.588C417.388 259.526 416.623 259.526 415.396 259.487C414.17 259.447 412.483 259.361 410.631 259.134C408.78 258.915 407.116 258.602 405.913 258.352C404.718 258.101 403.976 257.921 403.96 257.984Z" fill="#263238"/>
<path d="M392.306 244.822C392.251 244.83 392.337 245.51 392.541 246.59C392.744 247.67 393.056 249.157 393.454 250.793C393.853 252.42 394.259 253.891 394.579 254.94C394.9 255.996 395.134 256.638 395.189 256.622C395.243 256.607 395.111 255.942 394.861 254.87C394.564 253.649 394.228 252.248 393.853 250.699C393.47 249.149 393.126 247.756 392.822 246.536C392.556 245.463 392.369 244.806 392.306 244.822Z" fill="#263238"/>
<path d="M426.451 262.327C426.482 262.437 428.872 261.881 431.786 261.083C434.707 260.285 437.043 259.549 437.012 259.44C436.98 259.33 434.59 259.894 431.676 260.684C428.763 261.482 426.419 262.218 426.451 262.327Z" fill="#263238"/>
<path d="M389.955 238.303C389.955 238.319 390.275 238.358 390.853 238.295C391.424 238.233 392.267 238.1 393.236 237.724C394.205 237.356 395.314 236.754 396.345 235.83C397.376 234.915 398.298 233.647 398.884 232.16C399.477 230.673 399.68 229.124 399.587 227.747C399.493 226.37 399.134 225.125 398.517 224.257C397.907 223.372 397.103 222.95 396.54 222.801C396.259 222.723 396.025 222.707 395.876 222.715C395.72 222.723 395.642 222.739 395.642 222.746C395.642 222.785 395.962 222.77 396.493 222.95C397.009 223.138 397.743 223.576 398.282 224.421C399.345 226.096 399.641 229.155 398.509 232.012C397.938 233.444 397.071 234.657 396.095 235.549C395.119 236.449 394.064 237.067 393.134 237.458C391.252 238.241 389.947 238.217 389.955 238.303Z" fill="#263238"/>
<path d="M371.753 238.976C371.863 238.976 371.949 235.744 371.941 231.769C371.933 227.786 371.839 224.554 371.722 224.554C371.613 224.554 371.527 227.786 371.535 231.769C371.542 235.752 371.636 238.984 371.753 238.976Z" fill="#263238"/>
<path d="M400.405 222.778C400.319 221.033 400.139 219.061 400.139 219.061C400.139 219.061 395.827 218.583 395.57 214.123C395.312 209.662 395.57 199.372 395.57 199.372L403.42 195.365L412.06 202.189L410.748 224.491L402.803 225C401.545 225.086 400.467 224.084 400.405 222.778Z" fill="#FFBE9D"/>
<path d="M399.633 210.593C399.617 210.593 399.617 210.68 399.703 210.789C399.781 210.891 399.953 211.016 400.195 211.008C400.695 210.985 401.18 210.429 401.351 209.756C401.437 209.412 401.437 209.067 401.375 208.762C401.32 208.465 401.148 208.168 400.906 208.089C400.789 208.042 400.664 208.05 400.578 208.097C400.484 208.144 400.43 208.214 400.398 208.277C400.344 208.41 400.383 208.488 400.398 208.481C400.414 208.481 400.414 208.41 400.477 208.324C400.539 208.238 400.687 208.16 400.844 208.246C401.008 208.324 401.125 208.535 401.164 208.801C401.211 209.067 401.211 209.38 401.125 209.686C400.969 210.288 400.547 210.789 400.18 210.836C399.992 210.86 399.844 210.789 399.758 210.719C399.68 210.648 399.649 210.586 399.633 210.593Z" fill="#EB996E"/>
<path d="M392.891 196.962C393.493 194.911 395.672 193.886 397.656 193.323C400.679 192.462 403.952 192.086 406.897 193.174C409.85 194.262 413.396 196.179 413.396 199.442C415.138 199.301 416.13 200.827 416.826 202.721C417.232 203.84 417.505 205.084 417.568 206.321L417.599 206.313C417.825 210.586 419.013 216.478 421.778 219.64C423.309 221.385 425.504 222.59 426.395 224.765C427.168 226.659 426.77 228.889 427.504 230.799C428.152 232.481 429.582 233.678 430.605 235.142C432.839 238.334 432.988 242.842 431.347 246.402C429.707 249.963 426.457 252.569 422.848 253.766C419.239 254.963 415.302 254.83 411.631 253.868C408.92 253.164 406.28 251.99 404.116 250.135C401.952 248.288 400.296 245.714 399.804 242.842C399.257 239.649 400.148 236.402 400.804 233.224C402.882 223.177 402.288 222.66 399.664 213.34C399.601 213.176 399.57 213.004 399.523 212.839C399.492 212.714 399.453 212.597 399.421 212.472H399.429C399.359 212.104 399.304 211.736 399.304 211.36C400.062 211.658 400.984 211.462 401.562 210.867C402.148 210.28 402.359 209.326 402.093 208.528C401.788 207.604 400.945 206.994 400.078 206.626C399.211 206.258 398.281 206.078 397.43 205.671C395.625 204.81 394.375 203.026 393.524 201.156C392.93 199.849 392.485 198.347 392.891 196.962Z" fill="#263238"/>
<path d="M399.32 210.781C399.297 210.773 399.14 211.063 398.906 211.556C398.672 212.049 398.359 212.745 398.016 213.551L397.953 213.7L398.117 213.716C398.375 213.739 398.641 213.763 398.914 213.786C399.461 213.825 399.914 213.888 400.445 213.88C400.531 213.864 400.625 213.786 400.648 213.7C400.679 213.614 400.672 213.544 400.664 213.481C400.64 213.356 400.617 213.27 400.593 213.16L400.453 212.605C400.281 211.932 400.156 211.517 400.125 211.525C400.093 211.533 400.156 211.963 400.289 212.644L400.398 213.207C400.437 213.395 400.507 213.677 400.406 213.661C400.015 213.645 399.461 213.583 398.945 213.544C398.672 213.52 398.414 213.505 398.148 213.481L398.242 213.638C398.578 212.832 398.859 212.119 399.055 211.611C399.25 211.102 399.351 210.789 399.32 210.781Z" fill="#2ECC71"/>
<path d="M426.059 276.671L391.423 275.615L376.362 334.571L379.135 402.198H397.469L395.196 336.011L408.593 294.967L406.531 404.812L425.036 405.086L426.989 301.83C427.067 298.958 428.012 292.486 427.661 289.638L426.059 276.671Z" fill="#263238"/>
<path d="M403.984 295.796C403.992 295.851 404.641 295.82 405.68 295.695C406.718 295.569 408.156 295.35 409.726 295.037C411.296 294.716 412.702 294.364 413.71 294.075C414.717 293.785 415.327 293.566 415.319 293.511C415.288 293.402 412.772 294.012 409.648 294.638C406.523 295.272 403.969 295.687 403.984 295.796Z" fill="#455A64"/>
<path d="M379.3 398.481C379.3 398.591 383.448 398.685 388.572 398.685C393.697 398.685 397.844 398.591 397.844 398.481C397.844 398.372 393.697 398.278 388.572 398.278C383.456 398.286 379.3 398.372 379.3 398.481Z" fill="#455A64"/>
<path d="M406.694 401.963C406.694 402.073 410.717 402.167 415.685 402.167C420.654 402.167 424.677 402.073 424.677 401.963C424.677 401.854 420.654 401.76 415.685 401.76C410.725 401.76 406.694 401.846 406.694 401.963Z" fill="#455A64"/>
<path d="M409.086 401.682C409.195 401.682 409.687 377.681 410.171 348.078C410.663 318.466 410.96 294.458 410.851 294.458C410.742 294.458 410.249 318.459 409.765 348.07C409.273 377.673 408.968 401.682 409.086 401.682Z" fill="#455A64"/>
<path d="M381.767 398.481C381.775 398.481 381.775 398.372 381.775 398.16C381.767 397.933 381.767 397.62 381.759 397.221C381.736 396.376 381.697 395.163 381.658 393.622C381.549 390.468 381.392 385.953 381.197 380.373C380.767 369.167 380.182 353.728 379.525 336.668C379.518 336.512 379.51 336.355 379.51 336.207L379.502 336.261C383.611 319.797 387.321 304.913 390.008 294.122C391.329 288.746 392.399 284.395 393.141 281.358C393.5 279.864 393.774 278.698 393.969 277.884C394.055 277.501 394.125 277.203 394.172 276.976C394.219 276.773 394.235 276.663 394.227 276.663C394.219 276.663 394.188 276.765 394.133 276.968C394.07 277.188 393.992 277.485 393.891 277.86C393.68 278.674 393.375 279.832 392.985 281.319C392.211 284.348 391.094 288.691 389.727 294.051C387.009 304.835 383.259 319.711 379.104 336.168L379.096 336.199V336.23C379.104 336.371 379.111 336.535 379.111 336.692C379.807 353.743 380.439 369.191 380.9 380.389C381.15 385.968 381.345 390.484 381.486 393.629C381.564 395.179 381.627 396.384 381.666 397.229C381.689 397.628 381.713 397.933 381.72 398.168C381.744 398.379 381.759 398.489 381.767 398.481Z" fill="#455A64"/>
<path d="M387.744 334.837C387.729 334.947 389.541 335.354 391.791 335.737C393.478 336.027 394.931 336.23 395.564 336.261V336.105C395.353 336.16 395.236 336.207 395.243 336.238C395.251 336.269 395.368 336.277 395.587 336.269L396.064 336.246L395.587 336.105C394.978 335.925 393.54 335.628 391.853 335.338C389.603 334.947 387.76 334.72 387.744 334.837Z" fill="#455A64"/>
<path d="M388.087 337.083C388.103 337.193 389.727 337.067 391.735 336.919C393.742 336.762 395.367 336.629 395.367 336.52C395.367 336.41 393.727 336.355 391.704 336.512C389.688 336.668 388.079 336.974 388.087 337.083Z" fill="#455A64"/>
<path opacity="0.2" d="M426.216 277.915C425.38 279.097 424.185 279.512 422.794 279.739C421.404 279.966 419.99 279.817 418.591 279.66C409.647 278.667 400.18 277.751 391.423 275.615C402.757 276.248 414.725 276.037 426.059 276.671C426.059 276.671 426.153 277.454 426.176 277.641" fill="black"/>
<g opacity="0.2">
<path opacity="0.2" d="M414.537 293.918L408.147 318.748L408.593 294.967L414.537 293.918Z" fill="black"/>
</g>
<path d="M211.271 451.378L161.052 480.428C160.625 480.672 160.106 480.672 159.68 480.428L85.9261 437.754C85.0116 437.225 85.0116 435.901 85.9261 435.371L136.145 406.321C136.572 406.077 137.09 406.077 137.517 406.321L211.271 448.995C212.195 449.525 212.195 450.849 211.271 451.378Z" fill="#08173C"/>
<path d="M208.09 449.301L159.203 477.587L88.4365 436.654L137.335 408.368L208.09 449.301Z" fill="url(#paint0_linear)"/>
<path d="M142.332 419.762L119.945 432.714C119.773 432.816 119.478 432.795 119.275 432.683C119.082 432.571 119.051 432.398 119.224 432.296L141.61 419.344C141.783 419.242 142.077 419.263 142.281 419.375C142.484 419.497 142.504 419.67 142.332 419.762Z" fill="#08173C"/>
<path d="M144.415 420.973L122.028 433.925C121.856 434.027 121.561 434.007 121.358 433.895C121.165 433.783 121.134 433.61 121.307 433.508L143.693 420.556C143.866 420.454 144.161 420.475 144.364 420.587C144.567 420.699 144.587 420.872 144.415 420.973Z" fill="#08173C"/>
<path d="M135.839 428.345L124.112 435.127C123.94 435.229 123.645 435.208 123.442 435.096C123.249 434.984 123.218 434.811 123.391 434.709L135.117 427.928C135.29 427.826 135.585 427.846 135.788 427.958C135.981 428.081 136.012 428.254 135.839 428.345Z" fill="#08173C"/>
<path d="M114.114 440.666L109.897 440.676C109.338 440.676 108.881 440.411 108.891 440.096C108.891 439.77 109.348 439.505 109.907 439.505L112.894 439.495L112.915 435.432C112.915 435.106 113.372 434.842 113.931 434.842C114.49 434.842 114.947 435.106 114.937 435.422L114.906 440.198C114.917 440.462 114.551 440.666 114.114 440.666Z" fill="#08173C"/>
<path d="M122.386 437.326L122.223 437.418L115.12 433.304L115.273 433.212L122.386 437.326Z" fill="#08173C"/>
<path d="M140.676 435.33L120.759 446.846C120.586 446.948 120.291 446.928 120.088 446.816C119.895 446.704 119.865 446.531 120.037 446.429L139.954 434.913C140.127 434.811 140.422 434.831 140.625 434.943C140.828 435.055 140.848 435.228 140.676 435.33Z" fill="#08173C"/>
<path d="M142.76 436.532L122.843 448.048C122.67 448.15 122.375 448.13 122.172 448.018C121.979 447.906 121.949 447.732 122.121 447.631L142.038 436.114C142.211 436.012 142.506 436.033 142.709 436.145C142.912 436.267 142.932 436.44 142.76 436.532Z" fill="#08173C"/>
<path d="M135.331 443.252L124.936 449.269C124.763 449.371 124.468 449.351 124.265 449.239C124.072 449.127 124.041 448.954 124.214 448.852L134.61 442.834C134.782 442.732 135.077 442.753 135.28 442.865C135.473 442.977 135.494 443.15 135.331 443.252Z" fill="#08173C"/>
<path d="M153.714 432.367L149.497 432.378C148.938 432.378 148.481 432.113 148.491 431.797C148.491 431.471 148.949 431.207 149.508 431.207L152.495 431.196L152.515 427.134C152.515 426.808 152.973 426.543 153.532 426.543C154.09 426.543 154.548 426.808 154.538 427.124L154.507 431.899C154.507 432.154 154.151 432.367 153.714 432.367Z" fill="#08173C"/>
<path d="M149.386 436.308L149.223 436.4L142.12 432.296L142.283 432.195L149.386 436.308Z" fill="#08173C"/>
<path d="M165.278 433.04L142.892 445.991C142.719 446.093 142.424 446.073 142.221 445.961C142.028 445.849 141.997 445.676 142.17 445.574L164.556 432.622C164.729 432.52 165.024 432.541 165.227 432.653C165.43 432.765 165.451 432.938 165.278 433.04Z" fill="#08173C"/>
<path d="M167.362 434.241L144.976 447.193C144.803 447.295 144.508 447.275 144.305 447.163C144.112 447.051 144.081 446.878 144.254 446.776L166.64 433.824C166.813 433.722 167.108 433.742 167.311 433.854C167.514 433.977 167.534 434.15 167.362 434.241Z" fill="#08173C"/>
<path d="M158.785 441.623L147.059 448.405C146.886 448.507 146.591 448.486 146.388 448.374C146.195 448.262 146.164 448.089 146.337 447.987L158.064 441.206C158.236 441.104 158.531 441.124 158.734 441.236C158.928 441.348 158.948 441.522 158.785 441.623Z" fill="#08173C"/>
<path d="M137.059 453.944L132.842 453.954C132.283 453.954 131.826 453.689 131.836 453.374C131.836 453.048 132.293 452.783 132.852 452.783L135.84 452.773L135.86 448.71C135.86 448.384 136.317 448.12 136.876 448.12C137.435 448.12 137.892 448.384 137.882 448.7L137.852 453.475C137.852 453.73 137.496 453.944 137.059 453.944Z" fill="#08173C"/>
<path d="M145.321 450.604L145.168 450.695L138.065 446.582L138.218 446.49L145.321 450.604Z" fill="#08173C"/>
<path d="M163.621 448.598L143.704 460.114C143.531 460.216 143.237 460.196 143.033 460.083C142.84 459.971 142.81 459.798 142.983 459.697L162.9 448.181C163.072 448.079 163.367 448.099 163.57 448.211C163.773 448.333 163.794 448.506 163.621 448.598Z" fill="#08173C"/>
<path d="M165.704 449.81L145.787 461.326C145.614 461.428 145.32 461.407 145.116 461.295C144.923 461.183 144.893 461.01 145.066 460.908L164.982 449.392C165.155 449.29 165.45 449.311 165.653 449.423C165.856 449.535 165.877 449.708 165.704 449.81Z" fill="#08173C"/>
<path d="M158.276 456.52L147.881 462.537C147.708 462.639 147.413 462.619 147.21 462.507C147.017 462.395 146.987 462.222 147.159 462.12L157.555 456.102C157.728 456 158.022 456.021 158.225 456.133C158.419 456.245 158.439 456.418 158.276 456.52Z" fill="#08173C"/>
<path d="M176.66 445.635L172.443 445.645C171.884 445.645 171.427 445.381 171.437 445.065C171.437 444.739 171.894 444.474 172.453 444.474L175.44 444.464L175.461 440.401C175.461 440.076 175.918 439.811 176.477 439.811C177.036 439.811 177.493 440.076 177.483 440.391L177.452 445.167C177.452 445.431 177.097 445.635 176.66 445.635Z" fill="#08173C"/>
<path d="M172.331 449.585L172.169 449.677L165.065 445.563L165.228 445.472L172.331 449.585Z" fill="#08173C"/>
</g>
<defs>
<filter id="filter0_d" x="0" y="0" width="522" height="501" filterUnits="userSpaceOnUse" color-interpolation-filters="sRGB">
<feFlood flood-opacity="0" result="BackgroundImageFix"/>
<feColorMatrix in="SourceAlpha" type="matrix" values="0 0 0 0 0 0 0 0 0 0 0 0 0 0 0 0 0 0 127 0" result="hardAlpha"/>
<feOffset dy="4"/>
<feGaussianBlur stdDeviation="2"/>
<feColorMatrix type="matrix" values="0 0 0 0 0 0 0 0 0 0 0 0 0 0 0 0 0 0 0.25 0"/>
<feBlend mode="normal" in2="BackgroundImageFix" result="effect1_dropShadow"/>
<feBlend mode="normal" in="SourceGraphic" in2="effect1_dropShadow" result="shape"/>
</filter>
<linearGradient id="paint0_linear" x1="123.821" y1="457.12" x2="148.342" y2="414.735" gradientUnits="userSpaceOnUse">
<stop stop-color="#FAF9F7"/>
<stop offset="1" stop-color="#EAE7DC"/>
</linearGradient>
<clipPath id="clip0">
<rect width="514" height="493" fill="white" transform="translate(4)"/>
</clipPath>
</defs>
</svg>
