<svg width="812" height="511" viewBox="0 0 812 511" fill="none" xmlns="http://www.w3.org/2000/svg">
<path opacity="0.7" d="M1541.81 -186.383L1540.39 -189.944L1536.63 -190.663L21.3123 -479.876L10.2616 -481.985L13.2518 -471.139C35.5047 -390.427 48.4273 -299.015 61.7767 -204.585C67.9354 -161.02 74.1849 -116.812 81.4833 -72.7164C104.495 66.3184 137.899 203.588 212.409 311.535C297.791 435.233 475.81 488.697 664.982 473.466C783.253 473.402 846.194 433.471 896.643 390.19C906.44 381.785 915.678 373.362 924.688 365.148C962.254 330.898 995.853 300.266 1049.47 289.578C1082.99 282.897 1116.85 283.249 1151.89 285.014C1159.74 285.409 1167.66 285.877 1175.65 286.349C1203.08 287.97 1231.3 289.637 1260 288.569C1334.88 285.784 1413.75 264.413 1499.12 177.138C1566.27 108.484 1576.56 17.0025 1570.51 -56.2629C1567.48 -92.9891 1560.33 -125.454 1553.94 -148.729C1550.74 -160.375 1547.73 -169.743 1545.51 -176.219C1544.39 -179.458 1543.48 -181.975 1542.84 -183.694C1542.52 -184.554 1542.27 -185.214 1542.1 -185.665C1542.01 -185.891 1541.94 -186.064 1541.89 -186.184L1541.84 -186.324L1541.82 -186.364L1541.82 -186.376C1541.82 -186.38 1541.81 -186.383 1535.31 -183.787L1541.81 -186.383Z" stroke="url(#paint0_linear)" stroke-width="14"/>
<path d="M1501.31 -193.628C1501.31 -193.628 1587.32 21.7114 1461.5 150.289C1299.22 316.137 1163.5 230.5 1030.5 257C897.5 283.5 884.956 434.5 660 434.5C478.206 449.197 309.07 397.682 228.5 281C86.3091 75.0778 100.091 -244.252 37 -473L1501.31 -193.628Z" fill="url(#paint1_linear)" fill-opacity="0.2"/>
<path d="M270.053 446.365C270.053 446.365 260.044 434.686 269.436 427.263C269.436 427.263 276.298 423.111 281.893 423.443C281.893 423.443 273.959 436.737 276.53 438.06C279.101 439.382 284.294 422.611 284.294 422.611C284.294 422.611 299.91 421.095 304.933 423.51C304.933 423.51 291.585 434.433 294.395 435.083C297.204 435.732 311.624 425.012 311.624 425.012C311.624 425.012 326.156 427.486 325.38 436.352C324.604 445.219 319.6 447.954 317.399 447.716C315.198 447.478 302.323 442.568 302.044 444.372C301.765 446.177 309.511 452.066 314.939 452.342C314.939 452.342 304.692 463.641 297.895 460.382C291.097 457.123 290.504 451.951 286.257 450.012C282.011 448.072 278.39 448.078 280.142 450.056C281.893 452.033 289.578 453.955 292.005 458.249C294.433 462.542 296.61 465.437 289.563 464.379C282.516 463.321 271.067 458.164 270.565 452.26L270.053 446.365Z" fill="#2ECC71"/>
<path d="M318.239 436.599C318.239 436.599 278.772 435.077 270.045 446.365C270.045 446.365 268.117 452.139 262.186 457.396L261.261 459.915C261.261 459.915 268.102 452.706 270.547 452.274C270.556 452.268 266.73 438.283 318.239 436.599Z" fill="#2ECC71"/>
<path d="M262.198 457.396C262.198 457.396 253.725 463.662 253.138 474.855L254.675 474.993C254.675 474.993 257.381 463.418 262.271 458.892C267.161 454.367 262.198 457.396 262.198 457.396Z" fill="#2ECC71"/>
<path d="M235.056 431.68C235.056 431.68 250.978 422.761 243.546 410.659C243.546 410.659 237.601 403.227 231.233 401.317C231.233 401.317 234.63 419.364 231.233 419.79C227.836 420.216 228.882 399.407 228.882 399.407C228.882 399.407 212.108 391.337 205.528 391.975C205.528 391.975 215.931 409.607 212.534 409.172C209.137 408.738 197.458 390.914 197.458 390.914C197.458 390.914 180.261 387.729 177.501 397.92C174.742 408.112 179.2 413.201 181.748 413.845C184.296 414.489 200.644 414.268 200.221 416.393C199.797 418.518 188.76 421.912 182.588 420.002C182.588 420.002 189.383 436.776 198.299 435.926C207.215 435.077 209.977 429.555 215.499 429.132C221.021 428.709 225.053 430.193 222.293 431.68C219.534 433.167 210.189 432.165 205.731 435.956C201.273 439.747 197.664 442.083 205.942 443.782C214.221 445.48 229.085 444.419 232.058 438.048L235.056 431.68Z" fill="#2ECC71"/>
<path d="M185.371 401.106C185.371 401.106 229.96 415.544 235.056 431.668C235.056 431.668 234.841 438.886 239.299 447.167V450.353C239.299 450.353 234.63 439.523 232.082 438.036C232.082 438.048 242.062 424.036 185.371 401.106Z" fill="#58D68D"/>
<path d="M239.298 447.178C239.298 447.178 246.175 457.62 242.254 470.33L240.491 469.854C240.491 469.854 242.21 455.856 238.613 448.815C235.016 441.774 239.298 447.178 239.298 447.178Z" fill="#58D68D"/>
<path d="M260.387 419.381C260.387 419.381 239.396 407.626 249.193 391.672C249.193 391.672 257.028 381.877 265.427 379.359C265.427 379.359 260.948 403.148 265.427 403.706C269.905 404.265 268.504 376.841 268.504 376.841C268.504 376.841 290.614 366.202 299.289 367.043C299.289 367.043 285.577 390.259 290.053 389.715C294.529 389.171 309.925 365.644 309.925 365.644C309.925 365.644 332.597 361.445 336.235 374.88C339.873 388.316 333.996 395.031 330.651 395.872C327.307 396.712 305.743 396.43 306.301 399.228C306.86 402.025 321.415 406.507 329.517 403.988C329.517 403.988 320.56 426.096 308.805 424.977C297.05 423.857 293.412 416.581 286.136 416.022C278.86 415.464 273.541 417.421 277.182 419.381C280.823 421.341 293.133 420.022 299.01 425.018C304.888 430.014 309.645 433.093 298.716 435.333C287.787 437.572 268.21 436.173 264.292 427.777L260.387 419.381Z" fill="#2ECC71"/>
<path d="M325.879 379.077C325.879 379.077 267.105 398.111 260.387 419.381C260.387 419.381 260.681 428.897 254.804 439.811V444.011C254.804 444.011 260.975 429.737 264.322 427.777C264.307 427.777 251.151 409.305 325.879 379.077Z" fill="#2ECC71"/>
<path d="M254.788 439.811C254.788 439.811 245.725 453.576 250.894 470.33L253.224 469.704C253.224 469.704 250.962 451.249 255.702 441.968C260.442 432.688 254.788 439.811 254.788 439.811Z" fill="#2ECC71"/>
<path d="M259.682 506.664C265.081 506.664 270.428 505.6 275.417 503.534C280.405 501.467 284.938 498.439 288.756 494.62C292.574 490.802 295.602 486.269 297.668 481.281C299.735 476.292 300.798 470.945 300.797 465.546H218.563C218.563 470.945 219.626 476.292 221.693 481.281C223.759 486.27 226.788 490.803 230.606 494.622C234.424 498.44 238.957 501.469 243.946 503.535C248.935 505.601 254.282 506.664 259.682 506.664Z" fill="#F8CE51"/>
<path d="M269.797 506.35C264.012 507.069 258.14 506.552 252.57 504.831C247 503.109 241.859 500.224 237.489 496.366C233.118 492.508 229.617 487.765 227.219 482.451C224.82 477.138 223.577 471.375 223.574 465.546H233.789C233.789 475.566 237.448 485.242 244.079 492.755C250.709 500.269 259.854 505.103 269.797 506.35Z" fill="#FBE297"/>
<path d="M301.367 508.756H217.993C217.994 507.411 218.529 506.121 219.481 505.17C220.432 504.218 221.723 503.684 223.068 503.684H296.286C297.632 503.684 298.922 504.218 299.874 505.17C300.826 506.121 301.361 507.411 301.361 508.756H301.367Z" fill="#F8CE51"/>
<path d="M301.735 465.546H217.212V466.806H301.735V465.546Z" fill="#F8CE51"/>
<path d="M666.414 494.839C666.414 494.839 667.266 508.583 669.923 508.78C670.278 508.806 683.412 508.806 683.412 508.806L700.162 508.706C700.162 508.706 700.053 504.669 695.166 503.813C690.279 502.958 682.063 499.517 679.095 493.04C675.971 486.225 666.414 494.839 666.414 494.839Z" fill="#060632"/>
<path d="M657.465 332.293C657.465 332.293 665.379 336.792 667.595 336.792C669.811 336.792 678.506 335.111 680.931 336.348C683.355 337.585 687.743 342.572 688.571 344.2C690.041 347.139 682.612 345.834 679.094 343.339C678.842 343.16 678.554 343.035 678.251 342.972C677.947 342.91 677.634 342.912 677.331 342.978C675.509 343.375 671.724 344.062 669.896 343.386C667.439 342.478 654.497 341.467 654.497 341.467L657.465 332.293Z" fill="#FFF0F0"/>
<path d="M597.252 271C597.252 271 605.454 329.313 619.04 334.535C625.743 337.112 655.371 342.954 664.134 343.542C664.134 343.542 666.279 341.8 665.756 334.726C665.756 334.726 634.718 323.33 630.309 317.135C623.747 307.91 634.383 279.455 626.148 270.795C617.914 262.134 604.043 258.393 597.252 271Z" fill="#43D17F"/>
<path d="M600.014 393.853C602.422 397.851 605.101 401.681 608.031 405.314C616.847 416.446 626.448 425.626 628.12 434.301C628.5 436.188 629.017 438.044 629.669 439.855C630.368 441.842 631.229 443.931 632.228 446.091C635.969 454.22 641.565 463.327 647.151 471.608C656.811 485.917 665.891 497.859 665.891 497.859L682.548 497.151C681.881 495.479 674.613 475.719 664.898 451.572C660.954 441.768 656.758 431.339 652.708 421.286L651.095 417.277C649.858 414.2 648.641 411.171 647.451 408.223C638.326 385.545 631.059 367.49 631.059 367.49C631.059 367.49 594.587 353.678 590.799 362.626C587.678 370.014 590.22 377.255 600.014 393.853Z" fill="#08173C"/>
<path d="M627.846 455.575C627.846 455.575 616.259 463.018 617.385 465.437C617.534 465.757 623.935 477.224 623.935 477.224L632.193 491.815C632.193 491.815 635.666 489.758 634.024 485.056C632.381 480.354 631.379 471.538 635.596 465.772C640.024 459.721 627.846 455.575 627.846 455.575Z" fill="#060632"/>
<path d="M633.512 468.649C633.512 468.649 626.274 462.263 624.99 457.579C624.99 457.579 654.824 421.835 661.295 413.821C661.589 413.454 661.518 413.051 661.124 412.608C656.24 407.101 601.956 395.901 594.862 384.863C592.747 381.621 591.197 378.044 590.278 374.284C588.67 367.549 589.943 362.897 589.943 362.897L644.153 361.327C644.153 361.327 689.289 389.433 694.405 408.596C699.521 427.76 633.512 468.649 633.512 468.649Z" fill="#212E50"/>
<path d="M661.131 412.617C656.246 407.109 601.963 395.91 594.869 384.872C592.754 381.63 591.204 378.053 590.284 374.293V367.443L613.327 363.819C613.327 363.819 619.859 383.923 639.211 391.464C657.337 398.525 660.769 411.05 661.131 412.617Z" fill="#08173C"/>
<path d="M629.325 267.327C618.355 270.16 600.179 260 600.179 260C600.179 260 607.232 255.254 609.853 244.834C609.984 244.309 610.104 243.77 610.211 243.218C611.361 242.974 613.526 242.512 615.845 242.024L624.22 249.527C624.22 249.527 624.029 252.645 622.983 257.999C622.801 258.934 622.59 259.936 622.351 261.006C625.043 262.668 627.407 264.811 629.325 267.327Z" fill="#FFF0F0"/>
<path d="M588.566 312.786C590.138 333.912 588.072 366.044 589.853 371.61C591.39 376.412 608.914 373.558 615.911 371.954C618.497 371.366 621.632 370.514 624.874 369.512C633.907 366.714 643.749 362.72 644.807 359.755C644.848 359.644 644.88 359.53 644.904 359.414C644.994 359.004 644.987 358.578 644.883 358.171C644.534 356.661 643.176 355.024 643.017 351.283C642.838 347.104 642.864 342.173 642.706 336.883C642.706 336.295 642.691 335.637 642.626 335.043V334.826V334.488C642.477 328.587 642.168 322.383 641.809 316.233C641.583 312.368 641.319 308.542 641.016 304.875C640.228 295.409 639.168 286.993 637.76 281.659C635.465 272.987 630.413 267.33 625.791 263.183L622.458 260.324C618.738 261.138 614.341 260.597 610.362 258.713C606.057 256.656 604.57 255.205 603.818 255.757C593.864 263.448 586.712 286.957 588.566 312.786Z" fill="#2ECC71"/>
<path d="M624.873 369.512C633.907 366.714 643.749 362.72 644.807 359.755C644.848 359.644 644.88 359.53 644.904 359.414C644.904 359 644.903 358.585 644.883 358.171C644.533 356.661 643.176 355.024 643.017 351.283C642.838 347.104 642.864 342.173 642.705 336.883C642.705 336.295 642.691 335.637 642.626 335.043V334.826V334.488L606.095 287.968C606.095 287.968 581.545 339.09 624.873 369.512Z" fill="#43D17F"/>
<path d="M624.232 249.527C624.232 249.527 624.041 252.645 622.994 257.999C614.813 255.354 611.104 247.966 609.864 244.834C609.996 244.309 610.115 243.77 610.223 243.218C611.372 242.974 613.538 242.512 615.856 242.024L624.232 249.527Z" fill="#FFDCDB"/>
<path d="M625.321 254.25C625.321 254.25 607.481 251.273 609.508 240.194C611.536 229.115 610.593 221.266 622.068 222.697C633.544 224.128 634.978 228.762 635.201 232.624C635.425 236.485 630.015 254.74 625.321 254.25Z" fill="#FFF0F0"/>
<path d="M695.528 349.073L697.102 349.584L710.485 308.393L708.912 307.882L695.528 349.073Z" fill="#2ECC71"/>
<path d="M651.655 348.643L697.095 349.611L697.153 346.893L651.713 345.926L651.655 348.643Z" fill="#2ECC71"/>
<path d="M652.582 350.768C652.582 350.768 667.182 354.618 672.659 354.213C678.137 353.807 682.686 351.206 683.377 349.846C684.067 348.485 685.513 346.075 681.784 346.522C678.055 346.969 672.968 347.759 672.809 347.042C672.65 346.325 675.848 346.393 675.848 346.393C675.848 346.393 676.815 344.988 675.598 344.923C674.381 344.859 670.834 343.91 669.515 344.568C668.195 345.226 666.979 347.662 666.018 347.559C665.057 347.457 653.799 342.49 653.799 342.49L652.582 350.768Z" fill="#FFF0F0"/>
<path d="M600.872 273.395C600.872 273.395 602.597 332.255 615.524 338.928C621.901 342.229 650.704 351.303 659.349 352.852C659.349 352.852 661.674 351.356 661.935 344.253C661.935 344.253 632.343 329.507 628.643 322.86C623.139 312.971 636.845 285.861 629.616 276.343C622.386 266.824 609.012 261.611 600.872 273.395Z" fill="#2ECC71"/>
<path d="M609.853 244.834C609.853 244.834 609.65 241.031 611.996 238.853C611.996 238.853 611.179 235.033 612.686 234.413C614.194 233.793 614.508 236.99 615.199 236.488C615.889 235.985 618.969 233.596 620.289 230.078C621.608 226.561 633.683 230.822 635.091 231.454C636.498 232.086 641.021 229.764 641.903 227.88C641.903 227.88 639.387 225.867 638.259 224.354C637.13 222.84 629.21 212.67 618.152 215.558C607.094 218.447 605.586 223.728 606.215 228.251C606.844 232.773 605.325 243.314 609.853 244.834Z" fill="#120E59"/>
<path d="M274.54 267.43L284.059 266.522C284.431 266.485 284.805 266.57 285.125 266.762C285.445 266.955 285.695 267.246 285.837 267.591L293.025 284.886C293.126 285.138 293.168 285.411 293.146 285.683C293.124 285.954 293.04 286.217 292.9 286.451C292.759 286.684 292.567 286.882 292.337 287.028C292.107 287.175 291.847 287.266 291.576 287.295L281.673 288.242C281.295 288.275 280.917 288.186 280.594 287.987C280.271 287.789 280.021 287.491 279.88 287.139L273.08 269.801C272.986 269.549 272.95 269.28 272.976 269.012C273.002 268.745 273.089 268.487 273.23 268.258C273.371 268.029 273.562 267.835 273.789 267.692C274.016 267.548 274.273 267.459 274.54 267.43Z" fill="#0D0D38"/>
<path d="M395.214 495.979L390.165 498.659C390.165 498.659 362.856 469.704 356.291 441.918C355.115 436.955 354.648 432.062 355.148 427.422C355.148 427.422 354.751 426.164 354.057 423.936C354.025 423.839 353.996 423.739 353.963 423.642C353.669 422.667 353.296 421.518 352.891 420.219C351.571 416.019 349.761 410.274 347.698 403.733C342.943 388.681 332.073 354.73 327.421 340.609L360.808 328.528C360.808 328.528 364.601 337.177 370.05 360.681C370.89 363.749 371.731 367.146 372.515 370.837C373.397 375.024 374.237 379.603 374.928 384.546C376.225 393.872 376.894 403.274 376.929 412.69C376.95 416.895 376.847 421.256 376.597 425.755C376.415 429.056 376.891 433.452 377.823 438.453C382.037 461.302 395.214 495.979 395.214 495.979Z" fill="#212E50"/>
<path d="M413.497 508.756H386.505C386.505 508.756 385.497 504.451 387.269 501.521C388.839 498.929 388.236 497.454 387.075 495.309C388.508 495.929 390.061 496.221 391.622 496.164C392.967 496.088 394.39 495.476 395.636 494.753C396.811 496.076 401.772 501.715 403.326 502.832C405.087 504.099 412.954 503.649 413.497 508.756Z" fill="#0D0D38"/>
<path d="M374.934 384.528L353.963 423.613C353.669 422.637 353.296 421.488 352.891 420.189C351.571 415.99 349.761 410.245 347.698 403.703C342.943 388.651 332.073 354.7 327.421 340.58L360.808 328.499C360.808 328.499 364.601 337.148 370.05 360.651C370.89 363.719 371.731 367.116 372.515 370.807C373.412 375.007 374.243 379.585 374.934 384.528Z" fill="#08173C"/>
<path d="M284.034 298.309C283.867 298.456 275.868 290.275 271.595 285.744L275.874 283.14L299.239 297.807L284.034 298.309Z" fill="#FFF1F0"/>
<path d="M326.888 500.307C326.888 500.307 326.259 504.892 328.016 508.756H339.192C339.192 508.756 339.277 505.418 336.427 501.227C333.576 497.037 326.888 500.307 326.888 500.307Z" fill="#0D0D38"/>
<path d="M348.924 201.949C349.077 201.235 350.981 193.58 362.863 195.229C362.863 195.229 356.935 194.911 355.486 197.286C355.486 197.286 359.988 194.82 363.033 196.404C366.077 197.988 366.986 203.948 366.683 205.808C366.38 207.668 363.547 213.337 361.417 213.49C360.571 213.515 359.728 213.37 358.939 213.064C359.365 214.076 359.73 215.114 360.033 216.17C363.062 226.664 356.556 235.271 352.75 233.532C350.308 232.418 348.824 236.658 348.824 236.658L327.469 212.208C327.469 212.208 339.888 194.899 348.924 201.949Z" fill="#12123C"/>
<path d="M327.069 267.515C329.855 269.449 333.349 271.041 337.734 272.055C354.17 275.852 360.471 261.958 362.836 252.422C361.114 251.47 359.212 250.888 357.253 250.711C356.077 250.57 354.814 250.479 353.779 250.417C351.934 249.004 349.183 243.218 348.575 234.234L347.802 234.443L334.848 237.987C334.848 237.987 335.436 242.101 335.73 245.998C335.953 249.045 335.988 251.954 335.412 252.666C334.401 252.886 333.796 253.03 333.796 253.03C331.096 257.632 328.843 262.483 327.069 267.515Z" fill="#FFF1F0"/>
<path d="M334.862 237.998C334.862 237.998 335.45 242.113 335.744 246.009C343.091 245.275 346.491 238.286 347.816 234.454L334.862 237.998Z" fill="#FFDCDB"/>
<path d="M332.671 241.866C332.671 241.866 350.092 240.905 349.325 230.064C348.558 219.223 350.295 211.8 339.14 211.956C327.984 212.111 326.118 216.399 325.492 220.078C324.866 223.757 328.119 241.836 332.671 241.866Z" fill="#FFF1F0"/>
<path d="M325.577 214.016C328.034 210.563 330.117 211.133 331.325 212.032C340.462 206.119 347.144 213.41 347.144 213.41C348.866 221.104 354.785 225.165 354.785 225.165C354.785 225.165 351.755 227.351 344.308 225.997C342.034 225.582 339.927 224.139 338.093 222.335C340.248 225.346 342.804 228.048 345.69 230.367C336.668 226.958 332.289 215.062 331.848 213.801C330.855 214.833 328.91 217.054 328.416 219.132C327.749 221.953 327.764 227.654 326.094 227.59C326.103 227.581 321.895 219.194 325.577 214.016Z" fill="#12123C"/>
<path d="M329.853 252.166C329.853 252.166 358.232 245.275 370.572 255.454L364.401 341.462L308.9 328.052C308.9 328.052 310.461 322.61 321.105 308.137C331.749 293.663 327.12 272.44 329.853 252.166Z" fill="#FFF1F0"/>
<path d="M346.395 331.887C346.395 331.887 346.363 332.181 346.307 332.734C346.28 332.972 346.248 333.263 346.213 333.598C345.975 335.828 345.522 340.104 344.937 345.667C343.415 360.252 341.026 383.682 339.398 402.172C338.123 416.631 337.314 428.074 337.752 429.911C339.066 435.438 337.752 501.536 337.752 501.536C333.033 503.799 325.88 501.536 325.88 501.536C325.88 501.536 313.317 441.974 315.074 433.696C316.832 425.417 313.899 418.35 313.899 418.35C304.142 372.914 305.212 347.733 307.14 335.678C307.513 333.191 308.071 330.735 308.809 328.331C308.993 327.715 309.216 327.11 309.476 326.521C331.005 320.714 346.395 331.887 346.395 331.887Z" fill="#212E50"/>
<path d="M364.405 341.459C358.227 344.04 351.629 345.466 344.936 345.667C339.554 345.822 334.174 345.312 328.917 344.147C318.276 341.832 310.171 337.547 307.147 335.678C307.52 333.191 308.078 330.735 308.817 328.331C315.367 323.665 331.568 328.129 344.801 333.077L346.212 333.612C356.347 337.474 364.405 341.459 364.405 341.459Z" fill="#08173C"/>
<path d="M374.397 279.984C373.027 290.331 367.547 302.994 365.581 309.809C365.581 309.809 368.851 333.471 365.727 339.966C365.372 340.709 364.934 341.227 364.396 341.459C352.824 346.502 307.753 341.606 305.848 327.059C305.158 321.769 323.016 303.194 324.068 300.94C324.5 300.005 324.95 296.984 322.866 290.719C319.898 299.867 314.418 310.435 308.905 312.236C302.845 314.217 278.886 296.367 278.886 296.367C278.886 296.367 278.748 294.198 281.777 292.147C283.726 290.828 288.198 290.384 288.198 290.384L303.518 297.24C305.44 293.949 310.23 271.191 315.567 260.918C319.59 253.195 330.325 252.075 330.325 252.075C330.325 252.075 334.792 259.163 345.606 258.158C356.421 257.153 358.389 250.538 358.389 250.538C358.389 250.538 367.973 251.811 370.926 254.194C371.44 254.614 376.195 266.431 374.397 279.984Z" fill="#2ECC71"/>
<path d="M367.014 309.997C367.014 309.997 368.862 333.471 365.738 339.966C357.307 335.734 346.316 326.601 349.66 312.324C354.518 291.586 374.398 279.999 374.398 279.999C373.029 290.331 368.971 303.182 367.014 309.997Z" fill="#43D17F"/>
<path d="M358.394 293.905C358.394 293.905 346.389 295.644 345.431 296.549C344.473 297.455 341.161 302.653 341.57 304.463C341.978 306.274 341.937 308.143 342.672 308.013C343.407 307.884 345.802 303.282 346.71 303.07C347.618 302.859 348.361 302.239 348.473 302.644C348.585 303.05 346.63 304.995 346.724 305.533C346.818 306.071 348.358 305.439 349.049 304.372C349.74 303.306 351.462 302.774 351.723 302.11C351.985 301.445 353.169 299.241 354.785 299.341C356.402 299.441 358.394 293.905 358.394 293.905Z" fill="#FFF1F0"/>
<path d="M370.072 293.431L358.393 293.904L354.396 299.35L370.28 299.882L370.072 293.431Z" fill="#FFF1F0"/>
<path d="M358.392 250.544C358.392 250.544 372.31 252.195 376.142 258.164C380.988 265.71 398.109 290.739 397.741 298.313C397.741 298.313 387.074 302.562 358.401 300.284C358.401 300.284 357.881 295.947 363.911 292.467C363.911 292.467 379.307 290.36 381.003 288.865L369.574 276.719L358.392 250.544Z" fill="#2ECC71"/>
<path d="M272.462 267.618L281.978 266.71C282.349 266.677 282.722 266.762 283.042 266.954C283.362 267.147 283.613 267.436 283.758 267.779L290.944 285.074C291.049 285.326 291.093 285.6 291.074 285.872C291.054 286.145 290.97 286.409 290.829 286.644C290.689 286.878 290.495 287.076 290.264 287.222C290.032 287.368 289.77 287.458 289.498 287.483L279.591 288.43C279.214 288.463 278.836 288.374 278.513 288.175C278.19 287.977 277.939 287.68 277.799 287.328L271.013 269.992C270.915 269.742 270.876 269.471 270.899 269.203C270.923 268.935 271.008 268.675 271.148 268.445C271.288 268.215 271.48 268.021 271.708 267.877C271.936 267.734 272.194 267.645 272.462 267.618Z" fill="#120E59"/>
<path d="M271.601 285.744C271.601 285.744 269.089 281.409 269.277 280.342C269.465 279.276 272.065 274.321 273.391 273.827C275.777 272.946 279.13 272.405 278.207 274.918C277.599 276.578 275.192 278.982 275.613 279.734C276.033 280.486 275.868 283.14 275.868 283.14L271.601 285.744Z" fill="#FFF1F0"/>
<path d="M650.535 472.427C646.955 494.158 623.551 507.997 599.545 507.997H552L555.719 381.332C555.719 381.332 601.084 367.537 612.464 380.66C622.447 392.158 649.518 437.67 650.943 464.608C651.09 467.221 650.954 469.841 650.535 472.427Z" fill="#525D77"/>
<path d="M530.648 394.57C530.648 394.57 591.774 363.376 603.346 383.753C609.491 394.573 626.406 437.742 627.655 464.831C628.869 491.156 606.064 508.462 582.605 508.462H540.94L530.648 394.57Z" fill="#08173C"/>
<path d="M542.14 411.873C541.625 414.518 536.676 416.986 529.333 419.161C528.04 419.553 526.675 419.928 525.239 420.286C500.245 426.672 455.977 430.234 451.757 428.353C445.926 425.749 410.139 298.6 410.139 298.6C410.139 298.6 444.301 297.316 471.431 296.69C480.712 296.479 489.169 296.343 495.155 296.361C495.844 296.361 496.531 296.409 497.213 296.505C499.529 296.779 501.671 297.875 503.249 299.594C507.619 304.296 508.7 313.558 512.744 323.806C516.743 333.941 521.651 346.586 526.306 359.138C527.505 362.37 528.689 365.603 529.832 368.777C530.155 369.676 530.476 370.568 530.793 371.454C537.676 390.702 542.974 407.579 542.14 411.873Z" fill="#525D77"/>
<path d="M650.908 472.693C647.496 494.548 625.194 508.465 602.319 508.465H580.097C594.917 498.421 608.317 467.473 650.908 472.693Z" fill="#525D77"/>
<path d="M530.795 371.454C529.661 371.269 528.194 371.028 526.534 370.746C526.214 370.437 525.949 370.077 525.749 369.679C525.079 368.21 525.538 363.984 526.305 359.138C521.65 346.587 516.742 333.942 512.742 323.806C508.699 313.559 507.617 304.287 503.247 299.594C501.67 297.875 499.528 296.779 497.211 296.505C493.606 296.555 489.797 296.617 485.871 296.691C484.475 299.459 482.071 302.068 477.916 304.255C459.381 314.011 473.132 334.115 473.132 334.115C473.264 334.206 480.478 348.562 480.478 348.562C480.452 347.56 481.425 345.764 483.091 343.481C484.322 352.062 486.323 360.819 488.71 367.099C487.402 373.726 484.043 383.597 482.245 391.146C480.805 397.171 480.361 401.708 482.738 401.931C483.032 401.957 483.326 401.957 483.62 401.931C483.474 404.225 483.975 406.512 485.066 408.535C489.712 417.512 512.058 419.114 529.326 419.161C536.672 416.986 541.618 414.524 542.132 411.873C542.973 407.58 537.674 390.703 530.795 371.454Z" fill="#6B748A"/>
<path d="M615.24 488.893C606.495 501.042 593.08 508.833 578.136 508.583L513.896 508.615H483.116L517.746 394.593C517.746 394.593 605.396 385.874 616.193 397.503C621.212 402.901 624.03 427.348 625.596 451.992C626.505 465.88 622.461 478.872 615.24 488.893Z" fill="#394563"/>
<path d="M615.242 488.894C606.496 501.042 593.081 508.833 578.138 508.583L513.897 508.615C521.456 502.268 545.23 484.262 570.688 485.106C589.984 485.77 605.306 485.491 615.242 488.894Z" fill="#08173C"/>
<path d="M536.269 314.763C536.269 314.763 541.605 322.663 544.65 339.266C547.315 353.807 549.646 359.176 553.504 362.159C557.363 365.142 578.807 373.946 578.807 373.946L577.202 377.705C577.202 377.705 545.758 373.42 542.231 368.166C538.705 362.911 525.234 331.861 526.277 324.711C527.32 317.561 536.269 314.763 536.269 314.763Z" fill="#FFECEC"/>
<path d="M613.25 488.221C612.956 491.289 617.235 492.041 622.181 492.279C627.127 492.517 625.631 493.54 632.408 494.765C639.184 495.991 641.9 494.139 642.399 493.222C642.837 492.411 639.684 491.142 636.328 489.696C635.905 489.517 635.482 489.331 635.058 489.146C631.279 487.486 629.16 484.098 626.213 480.953C623.424 477.979 620.773 468.449 620.773 468.449L611.566 466.483C611.566 466.483 614.152 475.058 615.049 478.72C615.578 480.874 614.796 483.281 614.105 485.114C613.682 486.107 613.394 487.151 613.25 488.221Z" fill="#FDB3B1"/>
<path d="M622.176 492.279C627.122 492.526 625.626 493.54 632.402 494.765C639.179 495.991 641.894 494.139 642.394 493.222C642.832 492.411 639.679 491.142 636.323 489.696L636.27 489.755C632.922 490.721 629.375 490.762 626.005 489.875C621.523 488.659 617.189 485.981 614.1 485.115C613.68 486.104 613.396 487.146 613.254 488.212C612.969 491.277 617.236 492.035 622.176 492.279Z" fill="#060632"/>
<path d="M521.564 379.018C521.564 379.018 582.754 374.413 594.273 381.684C605.793 388.954 624.272 473.645 624.272 473.645C624.272 473.645 623.129 474.558 620.584 474.82C618.215 475.076 612.999 473.683 612.999 473.683C612.999 473.683 586.445 435.791 584.576 426.246C582.707 416.701 583.162 408.182 578.904 407.956C574.646 407.729 521.555 414.421 513.527 400.262C505.498 386.103 512.134 372.109 512.134 372.109L521.564 379.018Z" fill="#43D17F"/>
<path d="M589.849 498.051C589.555 501.116 593.837 501.871 598.78 502.109C603.723 502.347 602.23 503.367 609.009 504.595C615.789 505.823 618.498 503.966 619.001 503.052C619.439 502.238 616.288 500.969 612.93 499.526C612.509 499.347 612.086 499.161 611.663 498.976C607.884 497.313 605.762 493.925 602.817 490.783C600.026 487.806 597.378 478.279 597.378 478.279L588.168 476.31C588.168 476.31 590.754 484.888 591.65 488.55C592.179 490.704 591.401 493.111 590.71 494.941C590.286 495.935 589.996 496.981 589.849 498.051Z" fill="#FDB3B1"/>
<path d="M598.765 502.109C603.711 502.356 602.215 503.367 608.995 504.595C615.774 505.823 618.484 503.966 618.986 503.052C619.424 502.238 616.274 500.969 612.915 499.526L612.865 499.582C609.517 500.549 605.97 500.592 602.6 499.705C598.116 498.486 593.784 495.808 590.695 494.941C590.276 495.933 589.99 496.975 589.846 498.042C589.555 501.116 593.822 501.856 598.765 502.109Z" fill="#060632"/>
<path d="M509.581 382.815C509.581 382.815 563.947 385.389 575.167 393.101C586.387 400.812 601.56 486.152 601.56 486.152C601.56 486.152 600.384 487.033 597.831 487.198C595.453 487.362 590.296 485.767 590.296 485.767C590.296 485.767 565.237 446.87 563.742 437.26C562.246 427.651 563.03 419.155 558.784 418.747C554.538 418.338 501.229 422.964 493.756 408.514C486.283 394.064 509.581 382.815 509.581 382.815Z" fill="#2ECC71"/>
<path d="M528.95 263.198C526.537 261.605 523.543 261.25 521.433 261.235C522.021 260.712 523.09 260.579 523.09 260.579C521.8 260.286 518.806 261.396 518.806 261.396C501.144 253.203 496.516 279.705 496.472 285.932C496.427 292.159 496.004 299.297 486.586 304.255C468.051 314.011 481.802 334.115 481.802 334.115C481.934 334.206 489.148 348.564 489.148 348.564C489.025 343.522 513.91 318.619 526.499 311.504C529.732 307.39 531.278 299.808 531.395 299.212C530.487 305.233 529.223 308.563 528.163 310.414C539.024 301.692 535.345 267.418 528.95 263.198Z" fill="#F8CE51"/>
<path d="M507.285 305.665C507.285 305.665 512.087 305.874 517.147 306.353C520.585 306.679 524.256 307.058 526.195 307.869C530.986 309.871 530.483 318.355 520.43 316.782C510.376 315.21 506.591 308.196 507.285 305.665Z" fill="#FDB3B1"/>
<path d="M525.782 311.851C525.841 311.88 527.213 319.148 520.633 318.857C516.311 318.666 506.992 313.438 507.815 309.747C508.206 307.984 511.471 303.426 512.129 292.996L512.913 293.205L526.138 296.752C526.138 296.752 525.55 300.951 525.277 304.925C525.05 308.266 525.041 311.443 525.782 311.851Z" fill="#FFF0F0"/>
<path d="M526.141 296.758C526.141 296.758 525.553 300.957 525.28 304.931C517.795 304.219 514.286 297.111 512.914 293.211L526.141 296.758Z" fill="#FFDCDB"/>
<path d="M511.629 291.659C511.629 291.659 508.102 285.194 507.515 279.813C507.091 275.993 509.96 262.055 523.948 265.02C526.764 265.601 529.414 266.806 531.703 268.546C534.642 270.821 538.756 275.599 532.993 287.522L531.433 291.577L511.629 291.659Z" fill="#F8CE51"/>
<path d="M528.393 300.687C528.393 300.687 510.628 299.805 511.348 288.744C512.068 277.683 510.267 270.13 521.634 270.23C533.001 270.33 534.932 274.694 535.587 278.459C536.242 282.223 533.033 300.634 528.393 300.687Z" fill="#FFF0F0"/>
<path d="M529.747 270.501C529.747 270.501 524.026 283.137 516.441 284.562C508.856 285.987 505.756 283.769 505.756 283.769C505.756 283.769 511.78 279.608 513.493 271.755C513.493 271.755 526.494 264.082 529.747 270.501Z" fill="#F8CE51"/>
<path d="M528.475 271.461C528.475 271.461 531.91 274.6 532.606 277.474C533.303 280.348 533.315 286.167 535.016 286.084C535.016 286.084 539.265 277.512 535.483 272.252C531.475 266.683 528.475 271.461 528.475 271.461Z" fill="#F8CE51"/>
<path d="M546.167 379.947C544.73 381.666 540.242 382.195 535.444 382.983C531.67 383.606 527.703 384.387 524.885 386.045C518.481 389.803 497.555 402.502 491.428 401.931C489.047 401.708 489.494 397.171 490.934 391.149C493.2 381.64 497.946 368.433 497.946 362.691C497.946 359.555 498.989 352.138 500.382 343.66C500.493 342.975 500.608 342.287 500.726 341.603C503.479 325.117 507.294 305.677 507.294 305.677C507.294 305.677 511.549 314.955 519.839 314.955C528.129 314.955 526.204 307.875 526.204 307.875C526.204 307.875 533.768 308.757 535.555 310.69C537.342 312.624 541.876 320.938 542.776 323.206C542.776 323.206 542.958 326.092 535.808 327.468C535.808 327.468 537.551 335.308 537.756 340.533C537.909 344.392 535.111 356.473 534.321 363.987C534.027 366.649 533.998 368.739 534.433 369.685C534.985 370.899 536.784 372.106 538.808 373.294C542.843 375.639 547.874 377.905 546.167 379.947Z" fill="#212E50"/>
<path d="M538.808 373.288C543.399 381.111 526.363 383.464 523.545 385.119C517.141 388.881 497.558 402.51 491.428 401.931C489.047 401.708 489.494 397.171 490.934 391.149C493.2 381.64 497.946 368.433 497.946 362.691C497.946 359.555 498.989 352.138 500.382 343.66L507.761 336.572C507.761 336.572 515.672 357.013 523.21 360.375C526.794 361.917 530.514 363.124 534.321 363.981C534.027 366.643 533.998 368.733 534.433 369.679C534.985 370.893 536.775 372.1 538.808 373.288Z" fill="#08173C"/>
<path d="M505.026 311.784C505.026 311.784 498.717 307.963 492.613 315.222C486.509 322.481 496.95 374.463 505.993 377.135C516.034 380.1 545.048 376.659 545.048 376.659L544.49 372.124C544.49 372.124 513.604 366.203 512.32 364.554C511.036 362.905 508.235 312.624 505.026 311.784Z" fill="#FFF0F0"/>
<path d="M507.286 305.665C507.286 305.665 494.326 306.841 490.562 311.096C486.797 315.351 485.698 326.912 485.698 326.912C485.698 326.912 497.112 336.125 510.862 332.549L507.286 305.665Z" fill="#212E50"/>
<path d="M565.196 379.089H548.078V381.111H565.196V379.089Z" fill="#F9D874"/>
<path d="M561.546 380.834C561.713 380.164 577.283 355.717 577.283 355.717H611.927L594.551 380.176L561.546 380.834Z" fill="#F9D874"/>
<path d="M563.005 381.111C563.172 380.44 578.792 355.717 578.792 355.717H611.928L595.395 381.111H563.005Z" fill="#F8CE51"/>
<path d="M592.214 368.495C592.028 368.995 591.701 369.43 591.273 369.748C590.845 370.067 590.334 370.255 589.802 370.29C588.811 370.29 588.285 369.485 588.626 368.495C588.813 367.995 589.14 367.56 589.568 367.242C589.996 366.924 590.507 366.737 591.039 366.702C592.029 366.702 592.555 367.505 592.214 368.495Z" fill="#2ECC71"/>
<path d="M541.963 371.856C541.963 371.856 552.019 369.908 553.154 370.387C554.288 370.866 560.615 376.558 559.965 377.687C559.316 378.815 556.733 379.632 553.794 378.66C550.855 377.687 544.549 377.19 543.415 375.738C542.28 374.287 541.963 371.856 541.963 371.856Z" fill="#FFF0F0"/>
<path d="M562.008 473.836C558.331 495.032 538.172 508.465 517.507 508.465H475.842L479.101 381.075C479.101 381.075 518.853 367.202 528.838 380.399C537.587 391.963 561.308 437.737 562.557 464.828C562.704 467.842 562.52 470.862 562.008 473.836Z" fill="#525D77"/>
<path d="M562.006 473.836C558.33 495.032 538.171 508.465 517.506 508.465H484.163C499.771 497.886 520.785 468.649 562.006 473.836Z" fill="#525D77"/>
<path d="M497.415 508.371L496.481 508.433C495.823 508.468 495.161 508.489 494.5 508.501H493.839H452.171V508.48L449.764 508.509C445.474 508.562 440.992 508.612 436.834 508.647L434.777 508.665H434.028C429.913 508.692 426.29 508.703 423.698 508.686C420.249 508.68 416.804 508.415 413.395 507.892C409.44 507.301 405.58 506.196 401.91 504.607C400.661 504.056 399.442 503.437 398.261 502.752C396.678 501.842 395.167 500.813 393.741 499.673C390.044 496.734 386.847 492.984 384.128 488.385C382.116 484.93 380.443 481.289 379.132 477.512C377.325 472.413 375.871 466.609 374.751 460.047C373.149 450.681 372.235 439.77 371.959 427.163C371.847 422.085 371.839 416.727 371.933 411.088C372.082 402.076 372.484 392.318 373.14 381.813C374.054 367.043 375.456 350.751 377.305 332.816C378.991 316.435 380.937 304.986 383.77 302.377C387.943 298.53 396.65 296.981 402.707 296.361C406.468 295.976 409.198 295.947 409.198 295.947C416.598 295.947 423.175 301.26 425.549 309.153C430.384 325.228 439.017 353.966 448.001 384.026C448.048 384.176 448.092 384.32 448.139 384.478L449.688 389.668C449.767 389.932 449.847 390.197 449.929 390.461L451.501 389.759L451.557 389.736C453.711 388.781 456.147 387.734 458.777 386.668C460.149 386.115 461.56 385.559 463.012 384.998C467.126 383.42 471.564 381.863 476.063 380.523C478.058 379.935 480.068 379.368 482.067 378.877C484.632 378.239 487.177 377.702 489.657 377.302L489.875 377.267L490.756 377.134C501.456 375.562 510.74 376.652 514.58 383.429C520.725 394.282 537.64 437.575 538.889 464.746C540.044 489.807 519.559 506.711 497.415 508.371Z" fill="#394563"/>
<path d="M430.586 395.551C430.586 395.551 409.202 308.43 407.665 301.107C406.977 297.842 404.855 296.664 402.722 296.361C406.48 295.976 409.216 295.947 409.216 295.947C416.613 295.947 423.19 301.236 425.564 309.115C430.745 326.283 440.281 357.939 449.956 390.185C449.441 390.185 430.586 395.551 430.586 395.551Z" fill="#525D77"/>
<path d="M751.292 509H166.708C166.317 509 166 509.408 166 509.912V510.088C166 510.592 166.317 511 166.708 511H751.292C751.683 511 752 510.592 752 510.088V509.912C752 509.408 751.683 509 751.292 509Z" fill="#2ECC71"/>
<defs>
<linearGradient id="paint0_linear" x1="1177.5" y1="750" x2="792.5" y2="-473" gradientUnits="userSpaceOnUse">
<stop stop-color="#EF3E18"/>
<stop offset="0.0001" stop-color="#F8CE51"/>
<stop offset="1" stop-color="#F9D874"/>
</linearGradient>
<linearGradient id="paint1_linear" x1="168.5" y1="509.5" x2="1014.59" y2="-121.233" gradientUnits="userSpaceOnUse">
<stop stop-color="#F8CE51"/>
<stop offset="1" stop-color="#FBE297"/>
</linearGradient>
</defs>
</svg>
