<?xml version="1.0" encoding="UTF-8"?>
<svg xmlns="http://www.w3.org/2000/svg" xmlns:xlink="http://www.w3.org/1999/xlink" width="50px" height="50px" viewBox="0 0 50 50" version="1.1">
<g id="surface1">
<path style=" stroke:none;fill-rule:nonzero;fill:rgb(71.764706%,74.901961%,81.176471%);fill-opacity:1;" d="M 42.222656 0 L 9.34375 0 C 7.214844 0 5.480469 1.734375 5.480469 3.863281 L 5.480469 8.609375 L 4.648438 8.609375 C 4.242188 8.609375 3.914062 8.9375 3.914062 9.34375 C 3.914062 9.75 4.242188 10.078125 4.648438 10.078125 L 5.480469 10.078125 L 5.480469 16.4375 L 4.648438 16.4375 C 4.242188 16.4375 3.914062 16.765625 3.914062 17.171875 C 3.914062 17.578125 4.242188 17.90625 4.648438 17.90625 L 5.480469 17.90625 L 5.480469 24.265625 L 4.648438 24.265625 C 4.242188 24.265625 3.914062 24.59375 3.914062 25 C 3.914062 25.40625 4.242188 25.734375 4.648438 25.734375 L 5.480469 25.734375 L 5.480469 32.09375 L 4.648438 32.09375 C 4.242188 32.09375 3.914062 32.421875 3.914062 32.828125 C 3.914062 33.234375 4.242188 33.5625 4.648438 33.5625 L 5.480469 33.5625 L 5.480469 39.921875 L 4.648438 39.921875 C 4.242188 39.921875 3.914062 40.25 3.914062 40.65625 C 3.914062 41.0625 4.242188 41.390625 4.648438 41.390625 L 5.480469 41.390625 L 5.480469 46.136719 C 5.480469 48.265625 7.214844 50 9.34375 50 L 42.222656 50 C 44.351562 50 46.085938 48.265625 46.085938 46.136719 L 46.085938 3.863281 C 46.085938 1.734375 44.351562 0 42.222656 0 Z M 44.617188 46.136719 C 44.617188 47.457031 43.542969 48.53125 42.222656 48.53125 L 9.34375 48.53125 C 8.023438 48.53125 6.945312 47.457031 6.945312 46.136719 L 6.945312 41.390625 L 7.777344 41.390625 C 8.183594 41.390625 8.511719 41.0625 8.511719 40.65625 C 8.511719 40.25 8.183594 39.921875 7.777344 39.921875 L 6.945312 39.921875 L 6.945312 33.5625 L 7.777344 33.5625 C 8.183594 33.5625 8.511719 33.234375 8.511719 32.828125 C 8.511719 32.421875 8.183594 32.09375 7.777344 32.09375 L 6.945312 32.09375 L 6.945312 25.734375 L 7.777344 25.734375 C 8.183594 25.734375 8.511719 25.40625 8.511719 25 C 8.511719 24.59375 8.183594 24.265625 7.777344 24.265625 L 6.945312 24.265625 L 6.945312 17.90625 L 7.777344 17.90625 C 8.183594 17.90625 8.511719 17.578125 8.511719 17.171875 C 8.511719 16.765625 8.183594 16.4375 7.777344 16.4375 L 6.945312 16.4375 L 6.945312 10.078125 L 7.777344 10.078125 C 8.183594 10.078125 8.511719 9.75 8.511719 9.34375 C 8.511719 8.9375 8.183594 8.609375 7.777344 8.609375 L 6.945312 8.609375 L 6.945312 3.863281 C 6.945312 2.542969 8.023438 1.46875 9.34375 1.46875 L 42.222656 1.46875 C 43.542969 1.46875 44.617188 2.542969 44.617188 3.863281 Z M 44.617188 46.136719 "/>
<path style=" stroke:none;fill-rule:nonzero;fill:rgb(71.764706%,74.901961%,81.176471%);fill-opacity:1;" d="M 11.691406 3.132812 C 11.289062 3.132812 10.957031 3.460938 10.957031 3.863281 L 10.957031 46.136719 C 10.957031 46.539062 11.289062 46.867188 11.691406 46.867188 C 12.097656 46.867188 12.425781 46.539062 12.425781 46.136719 L 12.425781 3.863281 C 12.425781 3.460938 12.097656 3.132812 11.691406 3.132812 Z M 36.90625 28.957031 C 36.898438 28.953125 36.890625 28.953125 36.886719 28.949219 L 34.445312 27.816406 C 33.691406 27.464844 32.789062 27.800781 32.433594 28.5625 C 31.660156 30.230469 29.96875 31.3125 28.132812 31.3125 C 26.292969 31.3125 24.601562 30.230469 23.828125 28.5625 C 23.472656 27.800781 22.570312 27.464844 21.816406 27.816406 L 19.375 28.949219 C 19.371094 28.953125 19.363281 28.953125 19.359375 28.957031 C 18.039062 29.617188 17.222656 30.941406 17.222656 32.414062 L 17.222656 35.957031 C 17.222656 36.796875 17.902344 37.476562 18.738281 37.476562 L 37.523438 37.476562 C 38.359375 37.476562 39.042969 36.796875 39.042969 35.957031 L 39.042969 32.414062 C 39.042969 30.941406 38.222656 29.617188 36.90625 28.957031 Z M 37.574219 35.957031 C 37.574219 35.984375 37.550781 36.007812 37.523438 36.007812 L 18.738281 36.007812 C 18.710938 36.007812 18.6875 35.984375 18.6875 35.957031 L 18.6875 32.414062 C 18.6875 31.503906 19.191406 30.683594 20.003906 30.273438 L 22.433594 29.148438 C 22.460938 29.136719 22.484375 29.15625 22.496094 29.179688 C 23.511719 31.367188 25.722656 32.777344 28.132812 32.777344 C 30.539062 32.777344 32.75 31.367188 33.765625 29.179688 C 33.777344 29.15625 33.804688 29.136719 33.828125 29.148438 L 36.257812 30.273438 C 37.070312 30.683594 37.574219 31.503906 37.574219 32.414062 Z M 37.574219 35.957031 "/>
<path style=" stroke:none;fill-rule:nonzero;fill:rgb(71.764706%,74.901961%,81.176471%);fill-opacity:1;" d="M 27.941406 28.863281 C 28.003906 28.863281 28.070312 28.863281 28.132812 28.863281 C 29.757812 28.863281 31.289062 28.246094 32.457031 27.109375 C 33.675781 25.929688 34.34375 24.347656 34.34375 22.652344 L 34.34375 17.953125 C 34.34375 15.390625 32.257812 13.308594 29.695312 13.308594 L 26.566406 13.308594 C 24.003906 13.308594 21.917969 15.390625 21.917969 17.953125 L 21.917969 22.421875 C 21.917969 25.875 24.621094 28.761719 27.941406 28.863281 Z M 23.386719 17.953125 C 23.386719 16.203125 24.8125 14.773438 26.566406 14.773438 L 29.695312 14.773438 C 31.449219 14.773438 32.875 16.203125 32.875 17.953125 L 32.875 22.652344 C 32.875 23.945312 32.363281 25.15625 31.4375 26.058594 C 30.507812 26.960938 29.28125 27.4375 27.984375 27.394531 C 25.449219 27.320312 23.386719 25.085938 23.386719 22.421875 Z M 23.386719 17.953125 "/>
</g>
</svg>
