<svg width="20" height="20" viewBox="0 0 20 20" fill="none" xmlns="http://www.w3.org/2000/svg">
<path d="M14.1665 2.49998H17.4998C17.7209 2.49998 17.9328 2.58778 18.0891 2.74406C18.2454 2.90034 18.3332 3.1123 18.3332 3.33331V16.6666C18.3332 16.8877 18.2454 17.0996 18.0891 17.2559C17.9328 17.4122 17.7209 17.5 17.4998 17.5H2.49984C2.27882 17.5 2.06686 17.4122 1.91058 17.2559C1.7543 17.0996 1.6665 16.8877 1.6665 16.6666V3.33331C1.6665 3.1123 1.7543 2.90034 1.91058 2.74406C2.06686 2.58778 2.27882 2.49998 2.49984 2.49998H5.83317V0.833313H7.49984V2.49998H12.4998V0.833313H14.1665V2.49998ZM16.6665 9.16665H3.33317V15.8333H16.6665V9.16665ZM12.4998 4.16665H7.49984V5.83331H5.83317V4.16665H3.33317V7.49998H16.6665V4.16665H14.1665V5.83331H12.4998V4.16665ZM4.99984 10.8333H6.6665V12.5H4.99984V10.8333ZM9.1665 10.8333H10.8332V12.5H9.1665V10.8333ZM13.3332 10.8333H14.9998V12.5H13.3332V10.8333Z" fill="#2ECC71"/>
</svg>
