<svg width="32" height="32" viewBox="0 0 32 32" fill="none" xmlns="http://www.w3.org/2000/svg">
<path d="M16 17.3333L24 29.3333H8.00001L16 17.3333ZM16 22.1333L12.9867 26.6667H19.0133L16 22.1333ZM14.5867 14.08C14.3902 13.8969 14.2326 13.6761 14.1233 13.4308C14.014 13.1854 13.9552 12.9206 13.9504 12.6521C13.9457 12.3835 13.9951 12.1168 14.0957 11.8677C14.1963 11.6187 14.346 11.3925 14.5359 11.2026C14.7258 11.0126 14.9521 10.8629 15.2011 10.7623C15.4501 10.6617 15.7169 10.6123 15.9854 10.6171C16.2539 10.6218 16.5188 10.6806 16.7641 10.7899C17.0094 10.8992 17.2302 11.0568 17.4133 11.2533C17.7666 11.6325 17.959 12.1339 17.9498 12.6521C17.9407 13.1702 17.7308 13.6646 17.3643 14.031C16.9979 14.3974 16.5035 14.6073 15.9854 14.6165C15.4673 14.6256 14.9658 14.4333 14.5867 14.08ZM7.04135 3.71066L8.92801 5.59733C7.0529 7.47266 5.99948 10.016 5.99948 12.668C5.99948 15.32 7.0529 17.8633 8.92801 19.7387L7.04135 21.6253C5.86494 20.4491 4.93176 19.0527 4.29509 17.5157C3.65841 15.9788 3.33072 14.3316 3.33072 12.668C3.33072 11.0044 3.65841 9.35716 4.29509 7.82025C4.93176 6.28334 5.86494 4.8869 7.04135 3.71066ZM24.956 3.71066C26.1324 4.8869 27.0656 6.28334 27.7023 7.82025C28.339 9.35716 28.6666 11.0044 28.6666 12.668C28.6666 14.3316 28.339 15.9788 27.7023 17.5157C27.0656 19.0527 26.1324 20.4491 24.956 21.6253L23.0693 19.7387C24.9445 17.8633 25.9979 15.32 25.9979 12.668C25.9979 10.016 24.9445 7.47266 23.0693 5.59733L24.956 3.71066ZM10.8133 7.48133L12.6987 9.36666C12.2653 9.80001 11.9215 10.3145 11.687 10.8807C11.4524 11.4469 11.3317 12.0538 11.3317 12.6667C11.3317 13.2795 11.4524 13.8864 11.687 14.4526C11.9215 15.0188 12.2653 15.5333 12.6987 15.9667L10.8133 17.852C9.43815 16.4767 8.66558 14.6115 8.66558 12.6667C8.66558 10.7218 9.43815 8.85659 10.8133 7.48133ZM21.184 7.48133C22.5592 8.85659 23.3318 10.7218 23.3318 12.6667C23.3318 14.6115 22.5592 16.4767 21.184 17.852L19.2987 15.9667C19.7321 15.5333 20.0759 15.0188 20.3104 14.4526C20.545 13.8864 20.6657 13.2795 20.6657 12.6667C20.6657 12.0538 20.545 11.4469 20.3104 10.8807C20.0759 10.3145 19.7321 9.80001 19.2987 9.36666L21.184 7.48133Z" fill="#4318FF"/>
</svg>
