<svg width="398" height="390" viewBox="0 0 398 390" fill="none" xmlns="http://www.w3.org/2000/svg">
<path d="M267.006 21.2597C336.339 21.2597 392.546 77.5448 392.546 146.977C392.546 216.41 336.339 272.695 267.006 272.695C197.673 272.695 141.467 216.41 141.467 146.977C141.467 77.5448 197.673 21.2597 267.006 21.2597Z" stroke="#4F5C71"/>
<path d="M253.74 16.2776C331.316 16.2776 394.205 79.2547 394.205 156.942C394.205 234.63 331.316 297.607 253.74 297.607C176.163 297.607 113.274 234.63 113.274 156.942C113.274 79.2547 176.163 16.2776 253.74 16.2776Z" stroke="#4F5C71"/>
<path d="M242.96 11.2948C327.863 11.2948 396.692 80.2202 396.692 165.246C396.692 250.271 327.863 319.196 242.96 319.196C158.057 319.196 89.2275 250.271 89.2275 165.246C89.2275 80.2202 158.057 11.2948 242.96 11.2948Z" stroke="#4F5C71"/>
<path d="M227.205 7.97336C318.519 7.97336 392.546 82.1036 392.546 173.549C392.546 264.995 318.519 339.125 227.205 339.125C135.89 339.125 61.8633 264.995 61.8633 173.549C61.8633 82.1036 135.89 7.97336 227.205 7.97336Z" stroke="#4F5C71"/>
<path d="M211.864 4.65222C309.361 4.65222 388.399 83.8014 388.399 181.438C388.399 279.075 309.361 358.225 211.864 358.225C114.366 358.225 35.3281 279.075 35.3281 181.438C35.3281 83.8014 114.366 4.65222 211.864 4.65222Z" stroke="#4F5C71"/>
<path d="M194.451 0.499878C301.565 0.499878 388.4 87.4563 388.4 194.724C388.4 301.992 301.565 388.948 194.451 388.948C87.3365 388.948 0.501953 301.992 0.501953 194.724C0.501953 87.4563 87.3365 0.499878 194.451 0.499878Z" stroke="#4F5C71"/>
</svg>
