<svg width="398" height="390" viewBox="0 0 398 390" fill="none" xmlns="http://www.w3.org/2000/svg">
<path d="M130.185 368.197C60.8523 368.197 4.64573 311.912 4.64573 242.48C4.64573 173.047 60.8523 116.762 130.185 116.762C199.518 116.762 255.725 173.047 255.725 242.48C255.725 311.912 199.518 368.197 130.185 368.197Z" stroke="#4F5C71"/>
<path d="M143.453 373.179C65.8767 373.179 2.98766 310.202 2.98766 232.515C2.98767 154.827 65.8767 91.8501 143.453 91.8501C221.029 91.8501 283.918 154.827 283.918 232.515C283.918 310.202 221.029 373.179 143.453 373.179Z" stroke="#4F5C71"/>
<path d="M154.232 378.162C69.329 378.162 0.499928 309.237 0.499932 224.211C0.499936 139.186 69.329 70.2607 154.232 70.2607C239.136 70.2607 307.965 139.186 307.965 224.211C307.965 309.237 239.136 378.162 154.232 378.162Z" stroke="#4F5C71"/>
<path d="M169.988 381.484C78.6729 381.484 4.64638 307.353 4.64639 215.908C4.64639 124.462 78.6729 50.3315 169.988 50.3315C261.303 50.3315 335.329 124.462 335.329 215.908C335.329 307.353 261.303 381.484 169.988 381.484Z" stroke="#4F5C71"/>
<path d="M185.328 384.805C87.8303 384.805 8.79198 305.656 8.79198 208.019C8.79199 110.382 87.8304 31.2327 185.328 31.2327C282.825 31.2327 361.863 110.382 361.863 208.019C361.863 305.656 282.825 384.805 185.328 384.805Z" stroke="#4F5C71"/>
<path d="M202.741 388.957C95.6271 388.957 8.79247 302.001 8.79247 194.733C8.79248 87.4652 95.6271 0.508776 202.741 0.508781C309.856 0.508785 396.69 87.4652 396.69 194.733C396.69 302.001 309.856 388.957 202.741 388.957Z" stroke="#4F5C71"/>
</svg>
