<svg width="196" height="5" viewBox="0 0 196 5" fill="none" xmlns="http://www.w3.org/2000/svg">
<mask id="mask0" mask-type="alpha" maskUnits="userSpaceOnUse" x="0" y="0" width="196" height="5">
<rect x="0.272461" y="0.208008" width="195.056" height="4.672" fill="#C4C4C4"/>
</mask>
<g mask="url(#mask0)">
<path d="M34.15 0.543096L34.6946 0.464216L33.6152 0.393133L34.1225 0.311802C34.6374 0.300812 35.3136 0.390241 35.6717 0.326522C35.7114 0.271762 35.1493 0.26717 35.0024 0.22757C34.872 0.186528 34.7649 0.145247 34.6823 0.10422C34.9627 0.0983497 35.2719 0.101742 35.5914 0.114202C36.0217 0.136622 36.4424 0.142745 36.807 0.131893C37.5539 0.123706 38.2739 0.0987863 39.0852 0.0823717L38.804 -0.0409103L39.8521 -0.0342518C39.9637 -0.0268983 40.0944 -0.0457311 40.2043 -0.0359968C41.1194 0.0467099 41.4978 -0.0181661 41.9286 -0.0746031C42.0168 -0.0886781 42.1234 -0.100111 42.2457 -0.108597C43.4565 -0.111179 44.559 0.00881625 45.6539 0.0584726C45.8605 0.072801 46.0591 0.0926927 46.2357 0.11674C46.6191 0.162585 47.0441 0.197485 47.4719 0.218248C47.8996 0.239011 48.3165 0.244971 48.6844 0.235589C49.4981 0.21601 50.4206 0.231226 51.3628 0.279764C51.6431 0.296428 51.923 0.305276 52.1845 0.305748C52.446 0.306221 52.6835 0.298307 52.8816 0.282506L53.521 0.342069C53.7927 0.305907 54.139 0.281608 54.5391 0.270651C54.9392 0.259694 55.3846 0.262306 55.8484 0.278327C56.3426 0.295908 56.8437 0.303965 57.3566 0.322771C58.4155 0.356951 59.4443 0.369246 60.4109 0.359277C61.8519 0.361879 63.2591 0.357271 64.7135 0.368242C65.6229 0.368856 66.5081 0.360497 67.3639 0.343225C68.3895 0.328334 69.5017 0.343266 70.6467 0.387298C70.5984 0.453962 70.0973 0.445906 69.762 0.45126C68.6798 0.464802 67.5707 0.461607 66.4564 0.465554C65.9546 0.468606 65.467 0.476481 64.9964 0.489139C64.2093 0.504197 63.3782 0.505494 62.5174 0.493007C61.1589 0.488555 59.8453 0.501333 58.59 0.53121C58.4919 0.536024 58.4021 0.542654 58.3222 0.550988C58.3059 0.557013 58.3033 0.564206 58.3144 0.571879C58.3256 0.579552 58.3502 0.587449 58.386 0.59481C58.4218 0.602171 58.4674 0.608751 58.5187 0.613923C58.5699 0.619094 58.625 0.622684 58.6786 0.624346C59.1811 0.657436 59.7208 0.692977 60.1916 0.689059C60.2098 0.68915 60.2293 0.689855 60.2486 0.691127C60.2679 0.692399 60.2866 0.694205 60.3033 0.696412C61.3641 0.76627 62.2282 0.730881 63.0495 0.727596C64.4145 0.738023 65.7285 0.727617 66.9716 0.696536C67.1596 0.692495 67.363 0.693265 67.5744 0.698817C68.8804 0.711185 70.0986 0.688356 71.1719 0.631408C71.6141 0.613135 72.0242 0.585269 72.5002 0.574209C72.7933 0.56631 73.0474 0.548699 73.2474 0.522431C73.4473 0.496163 73.589 0.461782 73.6638 0.421354C73.8664 0.437174 74.0719 0.450709 74.2779 0.461797C74.4009 0.46802 74.5184 0.467758 74.6064 0.461059C74.6945 0.45436 74.7467 0.441723 74.7525 0.425704C74.7853 0.380468 74.5044 0.364466 74.2607 0.350914C74.4059 0.338094 74.5698 0.328777 74.7488 0.323186C75.7563 0.290264 76.839 0.277814 77.9734 0.2861C78.8553 0.306765 79.5536 0.257964 80.4828 0.294209C80.5945 0.301562 80.6844 0.285037 80.7861 0.279261C81.0504 0.254963 81.3813 0.243372 81.7501 0.245492C82.1189 0.247612 82.5145 0.263379 82.9026 0.291426C83.373 0.18023 84.4184 0.271517 85.1838 0.264556C85.4237 0.310283 85.1528 0.30741 85.1425 0.321695C85.1321 0.33598 85.1424 0.321692 85.0494 0.315565C84.2924 0.405092 83.2479 0.444472 82.0626 0.428178C81.8441 0.433291 81.6362 0.441286 81.4409 0.452087C81.1449 0.467812 80.8103 0.474466 80.4517 0.471756C80.0602 0.47266 79.7015 0.48453 79.3929 0.506796C79.2146 0.510574 79.0645 0.521627 78.9565 0.538935C78.8486 0.556244 78.7862 0.579246 78.7753 0.605806C78.8961 0.623362 79.0298 0.638905 79.1709 0.651816C79.9064 0.698776 80.6366 0.708598 81.2178 0.679352C82.2294 0.628731 83.4384 0.628532 84.5158 0.594718C85.2444 0.574424 86.0209 0.567827 86.8309 0.575058C86.8309 0.575058 86.8119 0.601247 86.8102 0.603628C86.9067 0.612602 87.0078 0.619266 87.108 0.623237C87.108 0.623237 87.108 0.623237 87.1166 0.611333C87.0713 0.60111 87.0104 0.591908 86.9408 0.584792L86.6988 0.568859C86.8615 0.559617 87.0125 0.539628 87.1835 0.545897C87.5434 0.556587 87.8865 0.556783 88.1922 0.546478C88.4979 0.536172 88.7599 0.515578 88.9622 0.485933C89.322 0.445671 89.7717 0.4209 90.2822 0.413222C90.6729 0.40089 91.0491 0.384854 91.4089 0.365193C91.4089 0.365193 91.4296 0.336624 91.5992 0.317859C91.4357 0.303129 91.2656 0.291928 91.0967 0.28477C90.3636 0.27391 89.6288 0.265431 88.9092 0.262939C88.6445 0.266891 88.3962 0.27564 88.1689 0.289018C87.538 0.312914 86.8271 0.315276 86.0775 0.295968C86.0775 0.295968 85.9286 0.286164 85.8542 0.281262C86.0582 0.21488 86.7858 0.260294 87.0742 0.211944C87.2521 0.208689 87.5654 0.206873 87.5537 0.196125C87.528 0.182007 87.5239 0.168446 87.5417 0.156416C87.5594 0.144385 87.5985 0.134182 87.6563 0.126538C87.714 0.118895 87.7888 0.114 87.8755 0.112206C87.9622 0.110411 88.0585 0.111763 88.1575 0.116161C88.9827 0.133417 89.7578 0.125893 90.4354 0.0940507C90.6928 0.0885554 90.9823 0.0926548 91.2381 0.0895412C91.3947 0.0892079 91.5374 0.0842041 91.6582 0.0748034C92.2712 0.0118176 93.1015 -0.0105235 94.0246 0.0111342C94.4702 0.0163521 94.8855 0.00901535 95.2491 -0.0104943C95.5083 -0.0183702 95.6213 0.0140163 95.8074 0.0262718L96.5946 0.0431895L95.5913 0.109321C95.8153 0.203892 95.9894 0.232813 96.3416 0.231065C96.8555 0.228833 97.3555 0.221776 97.8388 0.209931C98.1962 0.201041 98.4895 0.172961 98.9768 0.200064C99.0629 0.204337 99.1454 0.204485 99.2105 0.200486C99.7743 0.15392 100.456 0.130757 101.209 0.132577C101.593 0.0605595 102.261 0.107064 102.879 0.142747C103.073 0.0906496 102.712 0.0768848 102.496 0.0526543C103.009 0.0440457 103.526 0.0306757 104.056 0.0256732C104.215 0.0195447 104.397 0.0197644 104.589 0.0263146C104.78 0.0328645 104.975 0.0455651 105.159 0.0634237C105.249 0.0756152 105.357 0.083883 105.46 0.0865108C105.564 0.089139 105.655 0.0859263 105.714 0.0775389C105.987 0.0506167 106.429 0.0597574 106.653 0.0196351C106.733 0.0097645 106.849 0.00603386 106.979 0.00910788C107.109 0.0121819 107.245 0.021863 107.363 0.0364147C107.236 0.0446539 107.123 0.0556578 107.027 0.0691834C106.683 0.113857 106.816 0.172504 107.265 0.251986C107.943 0.231754 108.635 0.217509 109.262 0.186458C109.611 0.163414 110.041 0.158451 110.503 0.172131C110.965 0.18581 111.441 0.217588 111.878 0.263891C112.036 0.281917 112.215 0.292824 112.38 0.294447C112.545 0.29607 112.684 0.28829 112.768 0.27265C112.82 0.255596 112.835 0.235166 112.811 0.213129L112.365 0.183717C112.365 0.183717 112.38 0.162289 112.384 0.157527L113.02 0.139603C113.357 0.131868 113.71 0.130121 114.028 0.12116C114.495 0.0988501 115.03 0.093329 115.6 0.104929C116.126 0.118146 116.642 0.125454 117.144 0.126788C117.63 0.128858 117.978 0.0794202 118.438 0.0623731C118.787 0.0494984 119.171 0.04617 119.576 0.0525104C120.277 0.0641777 120.917 0.0497631 121.44 0.0105803C122.064 0.144018 122.364 0.161245 122.928 0.108626L123.195 0.0912273L123.27 0.121163L123.474 0.109611C123.855 0.0948035 124.236 0.079998 124.634 0.0687976C125.189 0.0699569 125.79 0.0932193 126.379 0.136313C126.491 0.143667 126.645 0.173746 126.744 0.197766C126.844 0.221785 127.063 0.296081 127.223 0.34405C127.057 0.385468 126.872 0.42566 126.741 0.471911C126.728 0.479597 126.73 0.488369 126.747 0.497521C126.764 0.506673 126.795 0.515951 126.838 0.524608C126.881 0.533264 126.935 0.541058 126.995 0.547364C127.055 0.55367 127.119 0.558313 127.183 0.560917C127.308 0.566827 127.431 0.56987 127.547 0.569919C128.118 0.561629 128.664 0.545872 129.18 0.522806C129.367 0.502468 129.626 0.495105 129.914 0.501888C130.202 0.50867 130.504 0.529208 130.771 0.560244C131.446 0.522757 132.232 0.511572 133.076 0.527458C133.964 0.48615 135.043 0.504784 135.87 0.439528C135.853 0.463336 135.942 0.501641 136.063 0.522125C136.256 0.553068 136.473 0.580865 136.706 0.604337L138.468 0.620633C138.537 0.647937 138.621 0.675226 138.721 0.702144C138.79 0.723636 138.908 0.743516 139.051 0.757569C139.194 0.771623 139.35 0.778748 139.486 0.777428C139.836 0.778061 140.128 0.752363 140.549 0.790075C139.911 0.849128 139.044 0.862773 138.103 0.828571C137.221 0.806342 136.373 0.804409 135.592 0.822843C135.335 0.828337 134.996 0.838452 134.918 0.865726C134.746 0.941701 134.278 0.940859 133.733 0.939874C133.305 0.934999 132.914 0.945445 132.595 0.970356C132.275 0.995268 132.035 1.03393 131.894 1.08316C131.861 1.1284 131.952 1.16432 132.33 1.18169L133.899 1.25009C134.127 1.23157 134.344 1.21088 134.548 1.18809C134.892 1.15616 135.319 1.13989 135.795 1.14054C136.271 1.1412 136.785 1.15876 137.294 1.19185C137.555 1.20901 137.816 1.22617 138.002 1.21101C138.165 1.19474 138.316 1.1763 138.451 1.1558C138.478 1.14352 138.488 1.12985 138.481 1.11532C138.581 1.1199 138.681 1.12651 138.779 1.13493C139.559 1.24124 140.156 1.22563 140.695 1.18131C140.841 1.16846 140.951 1.15078 141.098 1.13555C141.246 1.12032 141.297 1.10372 141.432 1.10516C142.512 1.12141 142.811 0.978916 143.718 0.963867C143.762 0.957575 143.789 0.949041 143.796 0.939056C143.803 0.929071 143.791 0.917955 143.76 0.906727C143.695 0.897425 143.62 0.889856 143.542 0.884716C143.464 0.879575 143.385 0.877031 143.313 0.877314C142.894 0.869358 142.526 0.883016 142.271 0.915958C142.09 0.931158 141.898 0.944344 141.697 0.955448L140.771 0.779746C141.653 0.777854 142.485 0.758938 143.249 0.72343C143.415 0.709427 143.7 0.720669 143.935 0.71871L145.666 0.697997C146.021 0.691487 146.322 0.653887 146.824 0.714393C146.824 0.714393 147.152 0.718561 147.239 0.706797C147.325 0.695033 147.707 0.625397 147.935 0.580512C148.204 0.585767 148.578 0.607899 148.744 0.593896C149.033 0.562175 149.283 0.524253 149.489 0.48081L150.538 0.512503C150.541 0.56164 150.507 0.608702 150.436 0.652972C150.359 0.695884 150.366 0.745126 150.457 0.796669C150.549 0.84821 150.722 0.900593 150.963 0.949533L152.019 1.21368C152.189 1.22913 152.37 1.23803 152.536 1.23918C152.703 1.24034 152.848 1.23368 152.951 1.22013C153.391 1.17682 153.886 1.13957 154.327 1.09626C154.904 1.13426 154.764 1.21983 155.187 1.28257L156.545 1.37204C156.761 1.47851 156.979 1.58022 156.357 1.63155C156.234 1.64086 156.321 1.68155 156.209 1.70161C156.703 1.77402 157.239 1.78691 157.737 1.82714C157.934 1.85969 158.1 1.89513 158.226 1.93173C158.366 1.98797 158.645 2.04235 159.002 2.08314C159.36 2.12393 159.767 2.14785 160.135 2.14973C160.755 2.167 161.392 2.19961 162.015 2.2461C162.229 2.26235 162.447 2.27276 162.656 2.27663C162.865 2.28051 163.06 2.27775 163.228 2.26855C163.825 2.24552 164.329 2.20135 164.706 2.13891C165.079 2.08472 165.586 2.05122 166.18 2.04145C167.204 2.10886 167.421 2.24036 168.046 2.34639L166.985 2.38381C166.951 2.43142 167.026 2.48878 166.591 2.49753C166.156 2.50628 166.38 2.54602 166.525 2.588C166.577 2.60959 166.676 2.63078 166.806 2.64795C166.936 2.66513 167.088 2.67725 167.237 2.68226L168.146 2.71966C168.468 2.73442 168.779 2.73681 169.045 2.72657C169.31 2.71632 169.52 2.69384 169.65 2.66158C169.801 2.63036 170.011 2.6068 170.266 2.59237C170.591 2.56234 170.856 2.52258 171.053 2.47459L172.335 2.50909C172.385 2.4642 172.558 2.42962 172.823 2.4112C173.089 2.39279 173.431 2.39166 173.792 2.40802L174.656 2.42746C175.615 2.44827 175.824 2.42957 176.093 2.30013L174.927 2.10612C175.089 2.04443 175.245 1.98988 175.402 1.93533C175.11 1.86933 174.723 1.80941 174.28 1.76166C173.866 1.70895 173.44 1.65845 173.005 1.61036C172.533 1.56183 172.036 1.5216 171.45 1.46809C171.347 1.44883 171.197 1.41399 171.006 1.38147C170.815 1.34998 170.616 1.31938 170.41 1.2898C170.444 1.24218 170.475 1.19933 170.396 1.14674C170.755 1.156 171.126 1.17795 171.477 1.21063C171.827 1.24331 172.147 1.28569 172.406 1.33393C172.449 1.34254 172.502 1.35035 172.561 1.35683C172.621 1.36332 172.685 1.36832 172.749 1.3715C173.378 1.39052 173.684 1.45305 173.998 1.5311C174.208 1.56987 174.478 1.60244 174.769 1.62427C175.327 1.66104 175.875 1.71209 176.41 1.75478C176.574 1.76933 176.744 1.78051 176.912 1.78787C177.469 1.81081 178.031 1.8478 178.569 1.89695C178.744 1.90857 178.913 1.92538 179.061 1.94597C179.208 1.96655 179.331 1.99032 179.419 2.01529C179.29 2.04774 179.222 2.08654 179.219 2.12936C179.199 2.15793 179.593 2.20633 179.78 2.24362C179.968 2.28091 179.605 2.26952 179.483 2.27645C178.982 2.29581 178.89 2.31472 179.199 2.3999C179.302 2.42656 179.371 2.45399 179.402 2.4805C179.434 2.507 179.426 2.53202 179.38 2.554C179.316 2.64209 179.105 2.718 178.964 2.80595C179.2 2.85644 179.592 2.9072 179.64 2.97523C179.662 2.99008 179.706 3.00532 179.77 3.01987C179.834 3.03442 179.915 3.04789 180.009 3.05934C180.254 3.08304 180.478 3.11296 180.663 3.14678C180.849 3.1806 180.99 3.21741 181.076 3.25437C181.105 3.26981 181.172 3.28536 181.264 3.29791C181.356 3.31046 181.467 3.31907 181.573 3.32202C181.701 3.32571 181.814 3.32229 181.89 3.31244C181.966 3.30259 181.999 3.28708 181.982 3.26911C181.982 3.23463 181.962 3.19913 181.922 3.16292C181.941 3.13673 181.96 3.11054 181.873 3.06986C182.253 3.07685 182.653 3.09901 183.03 3.13395C183.407 3.16888 183.746 3.21525 184.011 3.26801C184.303 3.32218 184.573 3.37988 184.897 3.44364C184.839 3.52459 184.839 3.52459 185.528 3.6498L189.125 3.63722L189.869 3.71366C190.562 3.77928 190.725 3.77004 191.152 3.71836L191.439 3.67239C192.053 3.71284 192.761 3.75941 193.133 3.64923C193.262 3.71264 193.345 3.73305 193.318 3.74373C193.145 3.84554 192.836 3.93557 192.403 4.01027C192.293 4.02795 192.217 4.05284 192.088 4.0693C191.675 4.15506 191.588 4.27515 191.845 4.405C191.971 4.46216 192.153 4.51952 192.384 4.57523C192.061 4.66708 191.63 4.74688 191.101 4.8125C190.652 4.86417 190.284 4.92809 190.008 5.00244C189.761 5.07669 189.386 5.13677 188.905 5.17924C188.661 5.19819 188.485 5.2287 188.393 5.26772C188.373 5.36818 188.448 5.47359 188.614 5.5816C188.647 5.61488 188.734 5.64966 188.868 5.68319C189.003 5.71673 189.182 5.74813 189.391 5.77491C189.391 5.77491 189.492 5.79655 189.541 5.80975C189.591 5.92974 189.452 6.03963 189.132 6.13204C189.08 6.15737 188.972 6.17728 188.819 6.1896C188.666 6.20193 188.473 6.20621 188.262 6.20199C187.817 6.19761 187.402 6.2052 186.972 6.20681C186.508 6.20582 186.101 6.22404 185.794 6.25956C185.487 6.29509 185.291 6.3466 185.227 6.40868C185.224 6.42592 185.212 6.44262 185.191 6.45867C185.178 6.46699 185.172 6.47575 185.172 6.48486L186.175 6.6607L185.067 6.76479C185.008 6.84573 185.548 6.88128 185.821 6.93422L185.658 6.97087C185.446 6.99433 185.156 6.9652 184.893 6.95042L184.633 6.93326L184.605 6.97136C184.449 7.0259 183.857 6.98193 183.631 7.02443C183.405 7.06693 183.572 7.10538 183.919 7.13819C184.16 7.16295 184.418 7.1812 184.674 7.19157C184.93 7.20194 185.177 7.20417 185.396 7.19807C185.527 7.19112 185.635 7.17955 185.713 7.16408C186.172 7.09538 186.679 7.03376 187.231 6.97968C187.655 6.93275 188.187 6.90483 188.792 6.89787C188.969 6.89105 189.184 6.89505 189.398 6.90917C189.612 6.92329 189.813 6.94662 189.964 6.97508L190.278 6.97326C190.278 6.97326 190.452 7.00218 190.428 7.0081C190.317 7.10792 190.466 7.22355 190.852 7.33785L190.527 7.35633C190.06 7.35549 190.362 7.42278 190.295 7.46081C189.963 7.4614 189.53 7.44036 189.377 7.49014L189.142 7.4921L189.235 7.49823L189.345 7.48055L189.79 7.53976C189.583 7.55607 189.434 7.57368 189.251 7.58408C189.15 7.59181 189.07 7.60324 189.016 7.61768C188.962 7.63213 188.935 7.64929 188.936 7.66814C188.939 7.69713 188.887 7.72277 188.784 7.74261C188.681 7.76246 188.53 7.77584 188.347 7.78151C188.129 7.78707 188.006 7.82142 187.879 7.83549L188.453 8.01294C188.453 8.01294 188.173 7.99456 188.327 8.02463L188.344 8.00083L188.686 8.04078C188.933 8.07698 189.104 8.08325 189.245 8.05013C189.386 8.01701 189.356 8.05749 189.424 8.0445C189.402 8.07545 189.247 8.1002 189.115 8.12142C188.961 8.1392 188.788 8.15367 188.596 8.16458C188.954 8.29038 188.971 8.29399 188.469 8.34076C187.967 8.38754 188.146 8.43673 187.724 8.45385C187.302 8.47097 187.79 8.55052 188.075 8.56176C188.285 8.56862 188.501 8.58184 188.706 8.60052C188.911 8.61921 189.102 8.64291 189.264 8.66999L189.188 8.77475C189.063 8.76905 188.937 8.76078 188.816 8.75024C188.401 8.703 188.024 8.65822 187.663 8.69929L187.843 8.77351L186.569 8.75691C186.607 8.81473 186.806 8.87706 187.125 8.93075C187.081 8.9652 187.055 9.001 187.048 9.03789C187.029 9.06408 186.902 9.05073 186.82 9.05535C186.53 9.06623 186.292 9.08904 186.129 9.1218C185.966 9.15455 185.882 9.19624 185.885 9.24319C185.856 9.28366 186.31 9.35601 186.59 9.34697C187.289 9.33913 188.047 9.35263 188.823 9.38677C189.294 9.38285 189.351 9.27687 190.131 9.33072C190.15 9.37862 190.055 9.41992 189.858 9.44838C189.662 9.47684 189.375 9.49091 189.042 9.48848C189.24 9.59135 190.29 9.59563 190.346 9.70658C190.085 9.70456 189.804 9.69225 189.532 9.67085C189.261 9.64945 189.007 9.61972 188.797 9.58459C188.751 9.57579 188.694 9.56801 188.631 9.56198C188.568 9.55594 188.501 9.55184 188.437 9.55006C188.372 9.54828 188.311 9.54888 188.261 9.55179C188.21 9.5547 188.171 9.55984 188.147 9.56672C188.295 9.60394 188.459 9.64715 188.645 9.68682C188.83 9.72649 188.876 9.74445 189.008 9.75065C189.994 9.81561 190.473 9.96189 191.329 10.0457C191.552 10.0604 191.585 10.1224 191.392 10.1197C191.209 10.1167 191.043 10.1214 190.914 10.1332C190.785 10.145 190.698 10.1633 190.662 10.1863C190.522 10.2153 190.347 10.2399 190.141 10.2593C191.023 10.4006 192.071 10.5194 193.186 10.6045C193.397 10.6215 193.617 10.6299 193.812 10.6283C194.429 10.6145 195.085 10.6125 195.767 10.6223C196.008 10.6237 196.231 10.618 196.422 10.6056C197.051 10.5721 197.555 10.6029 198.023 10.711L198.796 10.8816C198.774 10.9126 198.65 10.9493 198.556 10.998L199.156 11.0849L203.647 10.7521L204.573 10.9552L205.87 10.9135C205.971 10.9177 206.071 10.9243 206.168 10.9331C206.437 10.9932 206.648 11.052 206.938 11.1085C207.229 11.1651 207.738 11.1612 208.1 11.2274C208.461 11.2936 208.817 11.2871 209.26 11.3213C209.307 11.3778 209.269 11.4305 209.148 11.4761C209.112 11.526 208.892 11.5614 208.857 11.609C208.865 11.6562 208.786 11.6982 208.626 11.7312C208.466 11.7642 208.23 11.7872 207.94 11.7981C207.136 11.917 206.162 12.0108 205.048 12.0766C204.95 12.0817 204.869 12.0903 204.81 12.1019C204.752 12.1135 204.716 12.1278 204.707 12.1439C204.712 12.1897 204.641 12.231 204.499 12.2648C204.356 12.2986 204.146 12.3239 203.883 12.3391C203.813 12.3425 203.76 12.3495 203.732 12.3591C203.632 12.3671 203.561 12.3798 203.523 12.3959C203.486 12.4121 203.485 12.4311 203.519 12.4512C203.553 12.4712 203.623 12.4917 203.72 12.5105C203.817 12.5294 203.94 12.546 204.075 12.5587C204.271 12.5798 204.472 12.5996 204.675 12.6182C204.665 12.6325 204.465 12.6393 204.495 12.6513C204.578 12.6898 204.599 12.7272 204.558 12.7604C204.517 12.7937 204.415 12.8218 204.259 12.8428L205.366 13.1451C206.025 13.1756 206.673 13.2379 207.189 13.3201C207.191 13.3354 207.163 13.3489 207.108 13.3593C207.052 13.3696 206.972 13.3765 206.874 13.3791C206.611 13.3917 206.363 13.4104 206.081 13.4242C205.908 13.4336 205.764 13.449 205.659 13.4695C205.554 13.49 205.489 13.5151 205.468 13.5434L206.112 13.6507C205.911 13.6849 205.762 13.7025 205.63 13.7237C205.709 13.7602 205.843 13.7968 206.021 13.8306C206.2 13.8644 206.418 13.8945 206.658 13.9187C206.723 13.9233 206.788 13.9263 206.851 13.9274C206.914 13.9286 206.973 13.9279 207.024 13.9253C207.511 13.8725 208.091 13.9332 208.654 13.9902C209.217 14.0473 209.523 14.0824 209.939 14.1272L210.727 14.1167C210.928 14.1379 211.108 14.164 211.253 14.193C211.398 14.2221 211.504 14.2532 211.561 14.2839C211.523 14.3363 211.147 14.3166 210.925 14.3269C210.401 14.3708 209.706 14.3797 208.958 14.3519C208.771 14.3397 208.583 14.3572 208.404 14.3629C208.017 14.378 207.645 14.3968 207.29 14.4193C207.057 14.4379 206.84 14.4594 206.639 14.4836C206.591 14.5503 207.446 14.5817 206.966 14.6249C207.134 14.6359 207.198 14.6551 207.282 14.6457C207.834 14.6759 208.375 14.6847 208.843 14.6712C209.742 14.6418 210.766 14.6486 211.832 14.6909C212.982 14.7337 214.082 14.7377 215.041 14.7026C215.406 14.6936 215.816 14.6984 216.239 14.7167C216.739 14.744 217.235 14.7571 217.693 14.7551C217.845 14.752 218.014 14.7547 218.188 14.7631C218.361 14.7715 218.534 14.7853 218.692 14.8034C218.68 14.8201 218.532 14.8353 218.566 14.8425C219.051 14.9542 219.254 15.0774 219.994 15.186C220.497 15.2191 221.074 15.2571 221.394 15.1909C221.715 15.1247 221.594 15.0768 220.932 14.941C221.073 14.9356 221.243 14.9388 221.413 14.95C221.583 14.9612 221.742 14.9797 221.863 15.0022L222.434 15.1022L222.949 15.1985C222.909 15.2532 222.878 15.2961 222.845 15.3413C222.792 15.3898 222.86 15.4458 223.042 15.5014C223.151 15.5316 223.246 15.562 223.327 15.5925C223.654 15.7144 223.756 15.8343 223.622 15.9387C223.36 16.0904 222.989 16.233 222.514 16.3646C222.011 16.4937 221.743 16.6481 221.332 16.7857C221.121 16.8488 220.864 16.907 220.563 16.9595C219.992 17.0741 219.366 17.185 218.794 17.302C218.222 17.4189 217.572 17.5084 216.934 17.6085C215.982 17.7318 214.95 17.843 213.846 17.9415C213.164 18.0213 212.464 18.0999 211.835 18.1881C211.091 18.2884 210.214 18.3682 209.226 18.4254C208.353 18.4869 207.576 18.5663 206.909 18.662C206.839 18.6723 206.785 18.6846 206.746 18.6987C206.632 18.7835 206.297 18.849 205.792 18.8853C205.825 18.9086 205.867 18.9322 205.917 18.9558C205.99 18.9837 206.007 19.011 205.966 19.0341C205.925 19.0572 205.827 19.075 205.687 19.0853C205.283 19.1148 204.949 19.157 204.699 19.2099C204.607 19.2238 204.551 19.2424 204.535 19.264C204.52 19.2855 204.545 19.3094 204.61 19.3337C204.667 19.3589 204.673 19.3831 204.627 19.4032C204.582 19.4233 204.486 19.4384 204.353 19.4465C204.012 19.4792 203.646 19.5076 203.258 19.5315C202.432 19.5835 201.468 19.6049 200.424 19.5943C200.312 19.587 200.202 19.6047 200.072 19.5961C199.332 19.5746 198.648 19.5841 198.102 19.6235C197.46 19.6486 196.788 19.6617 196.11 19.6819C195.13 19.7007 194.228 19.7412 193.43 19.8022C192.509 19.7815 192 19.8652 191.225 19.8841C190.511 19.9076 189.835 19.9407 189.204 19.9829C188.186 20.0431 187.171 20.0984 186.167 20.1646C185.224 20.2066 184.358 20.2658 183.583 20.3411C183.286 20.3739 182.741 20.3455 182.542 20.4048C182.343 20.464 181.932 20.4668 181.601 20.4925L180.557 20.5609C180.378 20.5756 180.18 20.5869 179.968 20.5944C178.994 20.6201 178.325 20.7083 177.422 20.7436L177.329 20.7375C175.733 20.8822 173.901 20.9832 171.886 21.0375C170.712 21.0974 169.425 21.1249 168.178 21.1775C167.884 21.2329 167.175 21.1888 166.806 21.2417C166.436 21.2947 165.823 21.2793 165.342 21.2975C164.861 21.3157 164.391 21.3446 163.876 21.3556C163.429 21.3659 163.053 21.3944 162.783 21.4383C162.164 21.5148 161.406 21.5687 160.542 21.5975C159.401 21.6396 158.323 21.7008 157.159 21.719C157.18 21.7641 157.112 21.8044 156.962 21.8358C156.813 21.8671 156.587 21.8884 156.309 21.8974C155.067 21.9429 153.943 22.0135 152.685 22.0554L152.348 22.0631L148.582 22.1743C147.567 22.2023 146.59 22.2327 145.555 22.2618C145.164 22.2361 145.16 22.2957 144.891 22.2904C144.813 22.2629 144.723 22.252 144.593 22.2708L144.567 22.3065L140.271 22.4501C138.59 22.5222 136.82 22.5724 134.976 22.6003C134.539 22.6136 134.131 22.6345 133.761 22.6625C133.416 22.6774 133.056 22.6887 132.683 22.6963C132.178 22.6988 131.685 22.7055 131.206 22.7163C129.948 22.7581 128.625 22.7807 127.245 22.8021C125.864 22.8234 124.821 22.8645 123.593 22.8909C122.761 22.9084 121.933 22.9212 121.071 22.9268C120.659 22.9297 120.15 22.9061 119.723 22.9029C119.297 22.8998 119.158 22.9031 119.103 22.9245C118.923 22.9849 118.454 22.9591 118.082 22.962C117.355 22.969 117.25 22.9521 117.04 22.8111L117.927 22.7447C118.144 22.7249 118.418 22.7161 118.723 22.7191C119.028 22.7222 119.354 22.737 119.669 22.7622C119.793 22.7732 119.923 22.7812 120.05 22.7858C120.177 22.7903 120.3 22.7912 120.41 22.7886C121.308 22.7604 122.193 22.7238 123.055 22.6908L123.18 22.6791L123.177 22.5492C123.062 22.539 122.942 22.5312 122.823 22.5259L118.485 22.5395C117.489 22.5413 116.453 22.518 115.476 22.521C114.499 22.524 113.972 22.5242 113.214 22.5217C112.893 22.5177 112.567 22.5103 112.235 22.4996C112.253 22.4867 112.263 22.4732 112.265 22.4592C112.28 22.4377 112.301 22.4092 112.159 22.3898C112.003 22.3615 111.797 22.339 111.581 22.3268C111.378 22.3201 111.182 22.3181 111 22.321C110.121 22.33 109.111 22.2841 108.187 22.1931L107.875 22.2748C106.498 22.264 105.101 22.2543 103.664 22.247C103.376 22.2426 103.072 22.2286 102.777 22.206C102.46 22.1852 102.166 22.1334 101.833 22.109C101.505 22.0934 101.179 22.0828 100.862 22.0774C100.945 22.0563 101.057 22.0384 101.193 22.0244C101.326 22.0175 101.423 22.0033 101.469 21.9839C101.514 21.9645 101.507 21.9408 101.446 21.9164C101.34 21.8744 101.291 21.8338 101.513 21.8235C101.718 21.8088 101.863 21.7836 101.932 21.751C102 21.7184 101.989 21.6797 101.9 21.6394C101.861 21.6156 101.832 21.5921 101.815 21.569L101.722 21.5628C101.409 21.4824 100.798 21.4646 100.355 21.403C100.148 21.387 99.9332 21.3799 99.7461 21.3829C99.2619 21.3784 98.7911 21.3823 98.2899 21.3743C98.0506 21.3708 97.7997 21.3602 97.552 21.3431C97.1984 21.3198 97.1612 21.3174 96.9476 21.2085C97.2641 21.2034 97.5134 21.1808 97.6533 21.1445C97.7933 21.1083 97.8153 21.0607 97.7155 21.0097C97.4443 20.8995 97.1579 20.7834 95.9699 20.7276C96.3545 20.7148 96.7245 20.6984 97.0779 20.6783C97.1809 20.6734 97.2573 20.6632 97.2971 20.6489C97.337 20.6347 97.3382 20.6171 97.3007 20.5987C97.2632 20.5802 97.1887 20.5617 97.0872 20.5455C96.9858 20.5294 96.8622 20.5165 96.733 20.5085C96.104 20.4569 95.4499 20.4276 94.8443 20.424C94.3346 20.4278 93.8755 20.4425 93.2809 20.4557L92.5737 20.4092C92.5841 20.3949 92.4793 20.378 92.5048 20.3697C92.6768 20.2937 92.8674 20.219 93.0632 20.1371C92.736 20.1026 92.4513 20.0586 92.2417 20.0099C92.032 19.9613 91.906 19.91 91.878 19.862C91.8592 19.8477 91.8626 19.8343 91.8879 19.8226C91.9132 19.8109 91.9598 19.8012 92.0244 19.7943C92.2083 19.7807 92.3494 19.7596 92.4366 19.7325C92.5239 19.7054 92.555 19.673 92.5277 19.6379L91.9704 19.5189C90.3191 19.4623 88.6997 19.4318 87.1422 19.4279L85.7367 19.4301C85.5644 19.3988 85.6154 19.3822 85.7746 19.3778C85.9338 19.3733 86.3826 19.3729 86.6959 19.3711C86.9666 19.3719 87.2062 19.3619 87.3913 19.3422C87.5763 19.3225 87.7007 19.2937 87.7523 19.2586L87.2681 19.1194C87.2888 19.0908 87.318 19.0504 87.5737 19.0472C87.7481 19.0401 87.8754 19.023 87.9354 18.9989C87.9953 18.9748 87.9842 18.945 87.904 18.9143C87.8902 18.8912 87.9059 18.8694 87.9505 18.8501C88.3283 18.84 88.7043 18.8323 89.0465 18.8175C89.206 18.8115 89.3401 18.7998 89.4396 18.7831C89.5392 18.7664 89.6019 18.7451 89.6235 18.7208C89.6338 18.6972 89.6013 18.6714 89.5287 18.6454C89.4561 18.6194 89.3454 18.5939 89.2054 18.571C88.6653 18.551 88.1737 18.5617 87.8385 18.6007C87.7202 18.6281 87.5279 18.6459 87.2869 18.6519C87.0459 18.6578 86.7675 18.6516 86.4885 18.6341C86.169 18.6138 85.8515 18.6089 85.5931 18.6202C85.3347 18.6315 85.1524 18.6584 85.0789 18.6959C84.7522 18.6893 84.4627 18.6852 84.1766 18.6764C83.8391 18.6647 83.5211 18.6662 83.2571 18.6807C82.834 18.6963 82.3772 18.703 81.8971 18.7009C80.5136 18.6996 79.1285 18.7006 77.7905 18.7173C77.4366 18.7214 77.1315 18.7387 76.781 18.7381C76.4305 18.7375 76.1558 18.7668 75.7143 18.7302C75.6304 18.7249 75.5462 18.7221 75.4683 18.7222C75.3904 18.7223 75.321 18.7251 75.2656 18.7306C74.5007 18.7847 73.6005 18.8102 72.618 18.8057C71.2749 18.8295 69.8811 18.8425 68.5362 18.8686C68.1422 18.8811 67.7704 18.8992 67.4247 18.9227C67.1614 18.9381 66.8853 18.9507 66.5979 18.9605C66.3777 18.9684 66.166 18.9645 66.2077 19.0146C66.2494 19.0648 65.9161 19.0403 65.7249 19.0352C65.0684 19.0253 64.3967 19.0069 63.7173 18.9803C63.0475 18.9499 62.3928 18.9382 61.7924 18.9459C61.3588 18.9522 60.9132 18.9753 60.3501 18.9182C60.369 18.892 60.388 18.8658 60.5069 18.8363C60.0461 18.7727 59.5222 18.7208 58.9785 18.685C58.4348 18.6492 57.887 18.6305 57.3802 18.6304L56.6706 18.5063C56.4975 18.4938 56.3211 18.4858 56.1523 18.4828C55.9835 18.4798 55.8258 18.482 55.6887 18.489C55.5826 18.4935 55.4527 18.4912 55.3228 18.4826C55.1929 18.4741 55.0717 18.4598 54.9814 18.4425C54.8469 18.4208 54.6833 18.4033 54.5111 18.3919C54.339 18.3806 54.1659 18.376 54.0137 18.3787C53.5332 18.3743 53.0187 18.3508 52.5227 18.3105C52.3926 18.2832 52.3099 18.2539 52.285 18.2261C52.2601 18.1983 52.294 18.1733 52.3825 18.1541C52.525 18.1205 52.6032 18.0801 52.6122 18.0352C52.6212 17.9904 52.5609 17.942 52.435 17.8931C52.37 17.8628 52.3466 17.8333 52.3662 17.8063C52.3857 17.7793 52.4478 17.7554 52.5487 17.736C52.9241 17.6485 52.8179 17.6066 52.181 17.4898C52.0775 17.4703 51.9533 17.4526 51.8161 17.438C51.679 17.4234 51.5321 17.4121 51.3846 17.4049C51.0387 17.3913 50.6981 17.3831 50.3689 17.3804C50.1828 17.3682 49.9945 17.3857 49.7812 17.3841C48.7145 17.3762 48.5543 17.3283 48.2 17.2251L47.9418 17.1508C47.4704 17.0964 46.9564 17.0541 46.4367 17.0268C45.917 16.9995 45.4047 16.9878 44.9365 16.9928C44.7506 16.9965 44.536 16.9903 44.3255 16.975C43.6407 16.9291 42.949 16.9022 42.2962 16.8962C41.8894 16.8937 41.4494 16.8734 41.0291 16.8378C40.6087 16.8021 40.2258 16.7526 39.9263 16.6953C39.6574 16.6435 39.3075 16.5996 38.9255 16.5695C38.4788 16.5401 38.4337 16.4947 38.6781 16.4534C38.9225 16.4121 39.333 16.3569 39.6976 16.311C39.8245 16.2954 39.902 16.2729 39.9215 16.246C39.941 16.219 39.9017 16.1888 39.8079 16.1587C39.7447 16.1048 39.73 16.0527 39.7642 16.0036C39.7829 15.9831 39.7667 15.9604 39.7167 15.9371C39.6667 15.9138 39.584 15.8905 39.4742 15.8686C39.3644 15.8467 39.23 15.8268 39.0802 15.8103C38.9303 15.7937 38.7685 15.7809 38.6055 15.7727C37.9169 15.7273 37.2469 15.6832 36.5462 15.6545C36.2524 15.6402 35.9584 15.6208 35.6715 15.5969C35.0831 15.5351 34.4551 15.4869 33.8242 15.4553C33.5248 15.4416 33.2308 15.4123 33.0057 15.374C32.2974 15.2729 31.6434 15.1646 31.0556 15.051C30.9132 15.0149 30.728 14.9807 30.5116 14.9505C30.2952 14.9204 30.0522 14.895 29.7981 14.8759C29.5933 14.8624 29.4245 14.8263 29.2656 14.8034C29.1465 14.7447 29.1293 14.6882 29.2158 14.6394C29.3024 14.5906 29.4897 14.5509 29.7602 14.5242C30.0163 14.4937 30.2555 14.4595 30.4761 14.4242C30.743 14.3936 31.0617 14.3716 31.4201 14.3591C31.844 14.3364 32.1549 14.2917 32.3125 14.2308C31.14 14.1536 30.0206 14.03 29.0038 14.0878L28.2207 14.0112C28.2483 13.9731 28.2725 13.9398 28.2949 13.9089C28.4743 13.8494 28.5257 13.7783 28.4448 13.7017C28.3805 13.6652 28.383 13.6307 28.452 13.6015C28.5211 13.5723 28.6543 13.5496 28.8381 13.5356C29.9235 13.41 31.1828 13.3133 32.1989 13.1757C32.5188 13.147 32.8945 13.1287 33.3104 13.1217C33.7119 13.1057 33.6906 13.0544 33.2222 13.0011C32.9595 12.9737 32.692 12.9477 32.4205 12.9234C31.2349 12.9451 30.7655 13.1087 29.4093 13.0968L28.7648 12.9096C28.595 12.9104 28.4304 12.9129 28.272 12.9171L26.0114 13.0501C25.8229 13.0585 25.677 13.0758 25.5905 13.1001C25.504 13.1243 25.4802 13.1546 25.5219 13.1875C25.5409 13.2284 25.513 13.267 25.4392 13.3018C25.3918 13.326 25.4261 13.3561 25.5347 13.3854C25.7794 13.4514 25.4743 13.4687 25.2827 13.491C25.2335 13.4939 25.1765 13.495 25.1151 13.4942C25.0537 13.4935 24.9892 13.491 24.9251 13.4867C24.861 13.4825 24.7988 13.4767 24.742 13.4697C24.6852 13.4626 24.6349 13.4545 24.5941 13.4457C24.2478 13.3854 23.9438 13.3205 23.6026 13.2531C23.8338 13.1761 23.544 13.0647 23.909 12.9915C23.9493 12.9776 23.9645 12.9614 23.9537 12.944C23.9428 12.9265 23.9062 12.9082 23.8459 12.89C23.6906 12.8432 23.6144 12.7959 23.6251 12.7528C23.6357 12.7097 23.7328 12.6724 23.9066 12.6446L23.9256 12.6184C23.4541 12.5425 23.5703 12.4628 23.3801 12.3755L22.9286 12.3258C21.8057 12.2069 21.804 12.2093 20.8486 12.2362C20.6511 12.1858 20.8952 12.1719 21.0782 12.1615L22.6102 12.0653C23.6118 12.0016 24.6437 11.9498 25.7652 11.9089C26.8867 11.868 28.134 11.7881 29.2914 11.7246C29.3498 11.7204 29.3942 11.7137 29.4208 11.705C29.4474 11.6963 29.4555 11.686 29.4444 11.6748C29.3972 11.6635 29.3357 11.653 29.2646 11.644C29.1935 11.635 29.1146 11.6277 29.0336 11.6228C28.6613 11.5983 28.2805 11.5857 27.8845 11.5671L27.1466 11.536L26.9154 11.4783C26.7651 11.4435 26.6607 11.3992 26.4628 11.3762C26.3 11.3594 26.1238 11.3478 25.9526 11.3427C25.7814 11.3375 25.6215 11.339 25.4896 11.347C25.1236 11.3678 24.793 11.3934 24.4439 11.4178C24.0947 11.4422 23.9031 11.4645 23.5998 11.4795C22.9825 11.4971 22.3864 11.5203 21.8142 11.549C21.3343 11.5971 20.8913 11.6512 20.4879 11.7111C20.2353 11.7368 19.9995 11.7662 19.5628 11.7499C19.3547 11.7309 19.1742 11.7039 19.0534 11.6735C18.9326 11.6432 18.8792 11.6116 18.9029 11.5842C18.9243 11.5628 18.9889 11.5447 19.0904 11.5317C19.1919 11.5188 19.3269 11.5114 19.4829 11.5102C19.9186 11.4965 20.3207 11.4744 20.681 11.4444C21.1817 11.3935 21.794 11.3626 22.4821 11.3535C22.7158 11.3539 22.8702 11.3292 23.0736 11.3176C23.2769 11.3061 23.4482 11.2849 23.6767 11.2925C24.386 11.3093 24.7203 11.2515 25.1408 11.2093C25.2828 11.1916 25.3696 11.1663 25.3915 11.136C25.4134 11.1058 25.3696 11.0718 25.2649 11.0379C25.0632 10.9702 24.8178 10.903 24.5326 10.8375C24.386 10.8054 24.1991 10.7761 23.9867 10.7517C23.7743 10.7273 23.5421 10.7086 23.3084 10.697C23.1655 10.656 23.0875 10.6142 23.0815 10.5755C23.0755 10.5368 23.1417 10.5023 23.274 10.4753C23.6118 10.4127 23.9106 10.3501 24.6809 10.3634C25.0428 10.3669 25.3826 10.3615 25.6869 10.3473C26.3623 10.322 27.1443 10.3263 27.9592 10.3598C28.17 10.3683 28.3769 10.3727 28.5737 10.3728C29.9775 10.3729 31.3137 10.3587 32.6534 10.3396C33.363 10.329 34.0778 10.3112 34.8195 10.3102C36.5586 10.305 38.1375 10.2518 39.8142 10.225C40.6924 10.2109 41.4759 10.1702 42.1238 10.1052C42.2493 10.0855 42.3567 10.0633 42.4447 10.039C42.0073 9.99037 41.5284 9.95482 41.054 9.93581C40.5795 9.9168 40.1254 9.91495 39.735 9.93045C39.5216 9.95167 39.244 9.96093 38.9334 9.95721C38.6228 9.95349 38.2913 9.93694 37.9759 9.9094L38.8824 9.86931C39.4838 9.84656 40.1004 9.82979 40.6849 9.80343C41.6134 9.75982 42.4726 9.70415 43.4349 9.66775C44.2117 9.63671 44.9048 9.58656 45.4925 9.51889C45.9171 9.46962 46.4035 9.43049 46.9418 9.40231C47.3247 9.38512 47.3247 9.38512 47.5629 9.29854C47.3637 9.2505 47.1114 9.24885 46.8743 9.25319C45.4503 9.2523 44.0975 9.27706 42.8432 9.32697C42.2096 9.34319 41.6493 9.37811 41.1892 9.43006C41.0772 9.45012 40.786 9.4484 40.5523 9.44798C39.8206 9.45584 39.1221 9.47413 38.4654 9.50262C37.5578 9.5459 36.5442 9.56339 35.4641 9.55442C35.2563 9.51828 35.4917 9.51632 35.5021 9.50204C36.3341 9.45705 37.1492 9.40846 37.9981 9.36709C38.23 9.35394 38.4783 9.34441 38.7401 9.33862C39.7189 9.33029 40.5302 9.27382 41.0604 9.17713C41.0845 9.1438 41.4384 9.13967 41.5929 9.11492C41.6681 9.09482 41.7174 9.07203 41.7393 9.04724C41.5064 8.99199 41.2489 8.99748 41.0507 9.00189C40.4763 9.02162 39.9242 9.04689 39.3971 9.07758C38.9072 9.10652 38.3636 9.12358 37.781 9.1283C37.3508 9.1299 36.9848 9.1507 36.5513 9.15707C36.3156 9.15519 36.0713 9.14914 35.8233 9.13906C36.0942 9.09077 36.4652 9.05645 36.9101 9.03852C37.2458 9.00575 37.6676 8.98863 37.7159 8.92197C37.5522 8.87876 37.3743 8.88202 37.232 8.8901C36.9348 8.89664 36.648 8.90607 36.3731 8.91835C35.7903 8.94485 35.158 8.95931 34.4896 8.96144C34.1378 8.96453 33.8045 8.97352 33.4953 8.98825C32.7939 9.0144 32.1228 9.05252 31.4807 9.07758C30.1645 9.11812 28.9665 9.1839 27.7027 9.23287C27.4214 9.24429 27.1705 9.26767 26.7965 9.24554C26.4226 9.22341 26.4057 9.2198 26.3602 9.20184C26.2536 9.17257 26.2194 9.14262 26.2648 9.11823C26.3365 9.09478 26.4789 9.0794 26.6666 9.07485C27.795 9.01464 28.8638 8.94172 29.8665 8.85654C30.309 8.83403 30.6955 8.79975 31.0124 8.75491C31.2641 8.72327 31.5639 8.69932 31.9023 8.6838C32.3939 8.65394 32.9069 8.62861 33.4392 8.60791C33.6868 8.59765 33.8965 8.57902 34.0559 8.5531C34.2153 8.52719 34.3212 8.49451 34.3673 8.45701L33.7032 8.35092C33.6001 8.34761 33.4978 8.34504 33.3968 8.34321L27.9806 8.55276L27.4436 8.56728C26.8543 8.57337 26.7088 8.5588 26.1381 8.43142C27.4097 8.3697 28.4031 8.25108 29.0195 8.08738C28.8668 8.07472 28.7105 8.06442 28.5542 8.05674C27.5326 8.04438 26.569 8.05673 25.7004 8.0933C25.1838 8.10667 24.652 8.11406 24.1185 8.12382C24.2684 8.05138 24.8678 8.05842 25.2559 8.03409C26.1842 7.98877 27.0027 7.91997 27.685 7.82989C27.92 7.79547 28.2155 7.77018 28.558 7.75517C28.9012 7.74492 29.1865 7.72086 29.3892 7.68507C29.5918 7.64929 29.7055 7.60288 29.7205 7.54987C29.7487 7.50154 29.8146 7.45574 29.9171 7.41315C29.7245 7.36035 29.4218 7.31245 29.0659 7.27845C28.71 7.24445 28.3253 7.22668 27.9839 7.22848C27.2543 7.22142 26.4963 7.20002 25.7293 7.16481C25.3471 7.14694 24.9733 7.14017 24.6322 7.14495C24.3314 7.14948 23.9881 7.1381 23.6545 7.11253C23.321 7.08697 23.0156 7.04862 22.7849 7.00334C22.474 6.94795 22.1835 6.8914 21.8929 6.83485C21.6024 6.7783 21.2647 6.70618 20.9252 6.63643C20.6308 6.63097 20.3445 6.62966 20.0702 6.6325C19.8572 6.64015 19.6076 6.63735 19.3509 6.62442C19.0943 6.6115 18.8412 6.58899 18.6216 6.55956C18.7456 6.52283 18.8866 6.48971 19.0345 6.44707C18.8223 6.39996 18.6671 6.35053 18.5783 6.30181C18.4896 6.25308 18.4691 6.20606 18.5183 6.16364C18.5459 6.12554 18.3146 6.06791 18.2322 6.02008C18.128 5.9796 18.1057 5.94013 18.1681 5.90685C18.2304 5.87357 18.3746 5.84803 18.5818 5.83358C18.8381 5.80975 19.0457 5.7779 19.1959 5.73933C19.2459 5.72907 19.2706 5.716 19.2678 5.70133C19.2651 5.68665 19.235 5.67084 19.1803 5.65532C19.1256 5.63981 19.048 5.6251 18.9546 5.61253C18.8613 5.59996 18.7552 5.58994 18.6459 5.58338C18.3115 5.56533 17.9801 5.55623 17.6709 5.55658C17.1381 5.55642 16.6283 5.56026 16.1417 5.56813C15.6033 5.57558 15.0024 5.5601 14.3998 5.52326C13.8601 5.48772 13.3762 5.45585 13.1063 5.37073C12.8365 5.28562 12.4181 5.29797 12.0903 5.23897C12.2659 5.17515 12.5837 5.12639 13.0116 5.0976C13.2921 5.08444 13.5252 5.06126 13.6959 5.02955C13.8666 4.99783 13.9712 4.95829 14.0029 4.91344L13.0093 4.75073C12.2211 4.68137 11.7951 4.75808 10.9486 4.74224L11.8116 4.6544C11.8285 4.64727 11.8343 4.6392 11.8289 4.6306C11.7324 4.49454 11.5956 4.46807 10.7005 4.41162L10.198 4.37853L9.40428 4.34372C9.27542 4.3183 9.18543 4.29079 9.14328 4.26394C9.10113 4.23709 9.1083 4.21183 9.1641 4.19071C9.27679 4.15476 9.30821 4.11137 9.25546 4.06453C9.17613 4.0345 9.16726 4.00537 9.23034 3.98218C9.29343 3.959 9.42451 3.94323 9.60084 3.93761C9.74145 3.93191 9.74869 3.89497 9.82349 3.87245C9.8971 3.84209 10.0255 3.81717 10.1999 3.79938C10.3742 3.7816 10.5905 3.77136 10.834 3.76938C11.5512 3.75606 12.2239 3.73009 12.8399 3.69195L12.7282 3.6846C13.3744 3.69128 13.977 3.68025 14.5066 3.65205C15.0371 3.61963 15.7212 3.61729 16.2854 3.59209C16.7459 3.58455 17.0938 3.54841 17.2553 3.49133C17.4118 3.43678 17.9977 3.43545 18.4464 3.43507C18.7123 3.43538 18.9689 3.43225 19.2136 3.42573C19.5412 3.40679 19.953 3.40838 20.3803 3.43022C20.5085 3.43701 20.6344 3.43929 20.746 3.43685C21.8264 3.42569 22.9052 3.4169 23.9705 3.39976C24.2159 3.39023 24.5049 3.39282 24.8035 3.40722C24.9291 3.41356 25.0508 3.41461 25.1523 3.41024C26.8329 3.35129 28.736 3.36187 30.3828 3.29571C30.5821 3.28437 30.8033 3.27795 31.0401 3.27664C31.5729 3.28163 32.0333 3.26027 32.3515 3.21583C32.5232 3.19214 32.7445 3.17622 33.0015 3.16909C33.2584 3.16196 33.5453 3.16378 33.8438 3.17442C34.3401 3.18624 34.7971 3.17842 35.1666 3.15178C35.8887 3.11857 36.6491 3.09445 37.4417 3.0796C37.6847 3.07707 37.8975 3.0657 38.0637 3.04636C38.2299 3.02702 38.3449 3.00024 38.3998 2.96809C38.2006 2.92006 37.9873 2.91848 37.7857 2.92765C37.0016 2.93339 36.2192 2.93674 35.4503 2.94847C34.7611 2.94791 34.1007 2.9579 33.4789 2.97828C33.1705 2.99239 32.7834 2.98484 32.4022 2.95726C31.9348 2.922 31.4556 2.91005 31.0615 2.92385C30.769 2.93167 30.4599 2.93471 30.1385 2.93291C29.9323 2.92665 29.7204 2.91269 29.5243 2.89247C29.4465 2.88352 29.3619 2.87643 29.2762 2.87164C29.1904 2.86686 29.1053 2.86449 29.0263 2.86468C28.9473 2.86488 28.876 2.86763 28.8171 2.87277C28.7583 2.87791 28.7131 2.88532 28.6844 2.89453C28.3939 2.97267 27.727 2.9512 27.1579 2.95614C26.2956 2.85445 25.668 2.94034 24.8661 2.89002C24.8027 2.88691 24.7404 2.88557 24.6831 2.88608C24.6257 2.88659 24.5745 2.88894 24.5324 2.89299C22.9956 2.96888 21.1972 2.97517 19.5811 3.02589C19.4029 3.032 19.1953 3.02956 18.9818 3.01885C17.5863 2.9476 16.2507 2.94858 15.2361 3.02162C15.1125 3.02893 14.9714 3.0323 14.8194 3.0316C14.1191 3.00657 13.4514 3.00536 12.8721 3.02808C11.9626 3.04551 11.0885 3.06777 10.1638 3.07921C9.52579 3.08019 8.96835 3.10713 8.54735 3.15735C8.53529 3.17401 8.25093 3.16277 8.03415 3.16595C7.90594 3.12758 7.79466 3.09281 7.66301 3.0592C7.54423 3.01662 7.36821 2.97479 7.14695 2.93655C6.92569 2.89831 6.66438 2.86455 6.38062 2.83756C5.89674 2.8057 5.84328 2.74481 6.17726 2.71442C7.03661 2.61943 8.12282 2.56396 9.35603 2.55209C10.3859 2.53011 11.4343 2.50936 12.4793 2.49337C13.089 2.48613 13.7324 2.48609 14.3252 2.47524C14.5257 2.47629 14.7318 2.47986 14.9415 2.48589C15.199 2.4957 15.4484 2.49857 15.6763 2.49437C16.4067 2.46472 17.2241 2.45772 18.0896 2.4737C18.4061 2.4743 18.7096 2.47005 18.9956 2.46103C19.6719 2.43612 20.4067 2.42662 21.1804 2.43279C21.6611 2.43527 22.1268 2.43173 22.5725 2.4222C22.73 2.4201 22.8572 2.40602 23.0095 2.41107C24.3516 2.46951 25.2907 2.38419 26.4946 2.39114C27.0791 2.38745 27.6367 2.37489 28.1596 2.35362C29.1818 2.33099 30.2332 2.31697 31.3098 2.31163C32.7339 2.31062 34.0501 2.27009 35.4084 2.25228C35.6765 2.24892 35.9352 2.24262 36.1825 2.23341C37.3848 2.18232 38.6934 2.15784 40.0764 2.16058C40.3902 2.1584 40.6711 2.14606 40.9015 2.12432C41.132 2.10259 41.3071 2.07193 41.4157 2.03427C41.4609 2.00908 41.4275 1.97845 41.322 1.94828C41.148 1.91063 40.9521 1.87432 40.7375 1.83994L33.0441 1.88207C32.7209 1.8825 32.4059 1.88591 32.1008 1.89229C31.2036 1.91141 30.2779 1.92207 29.3284 1.92423C28.3903 1.92731 27.4959 1.95072 26.5881 1.96577C26.3207 1.96998 26.0459 1.97187 25.7651 1.97144C23.8659 1.96066 22.0157 1.96966 20.2275 1.99838C19.4755 2.01371 18.6611 2.00747 17.8939 2.01682C17.1267 2.02616 16.0782 2.04691 15.1687 2.06434L12.3536 2.1284C11.7997 2.13932 11.261 2.15622 10.724 2.17075C10.0572 2.01459 9.829 1.97961 8.95256 1.92438C8.65255 1.90349 8.3484 1.89384 8.07579 1.89658C7.21346 1.92959 6.12504 1.89782 5.30683 1.92376C4.8124 1.93125 4.39479 1.9597 4.09675 2.00621C3.83774 2.04327 3.5406 2.07468 3.20992 2.09996C2.28696 1.97433 2.19843 1.8812 2.87981 1.82879C3.06455 1.81601 3.32028 1.8129 3.45263 1.79168C3.52851 1.77887 3.63295 1.77016 3.75762 1.76625C3.88228 1.76233 4.02373 1.76332 4.17086 1.76914C4.6348 1.78263 5.06818 1.77848 5.4275 1.7571C5.76521 1.73192 6.18113 1.72323 6.63514 1.73187C6.97013 1.75393 7.25864 1.70558 7.54505 1.68702C7.83146 1.66847 8.06547 1.64147 8.5173 1.66375C8.60009 1.66834 8.68205 1.67037 8.75691 1.66968C8.83177 1.66899 8.89753 1.6656 8.94915 1.65976C9.42956 1.62799 10.0052 1.61719 10.6294 1.62823C11.5854 1.63137 12.4805 1.61208 13.2835 1.57104C13.7637 1.54015 14.1715 1.4954 14.4909 1.43853C14.5777 1.41996 14.7079 1.40706 14.869 1.40106C15.6798 1.39311 16.5628 1.41217 17.4607 1.457C17.7992 1.47545 18.1367 1.48846 18.4661 1.49577C19.1433 1.51323 19.7971 1.51682 20.4082 1.50643C21.2958 1.48692 22.2209 1.47863 23.1754 1.48162C23.7644 1.48199 24.3312 1.47424 24.869 1.45846C25.4221 1.44426 26.0136 1.44132 26.6303 1.44972C27.2431 1.45407 27.7809 1.43145 28.1788 1.38457C28.3091 1.36121 28.4134 1.33462 28.4897 1.30527C27.5868 1.23579 26.6571 1.21111 25.8879 1.23621C25.5949 1.23687 25.3526 1.24835 25.0414 1.22037L25.0328 1.23228C24.9721 1.24125 24.8798 1.24512 24.7733 1.24317C24.6669 1.24122 24.5537 1.23358 24.4555 1.2217C24.4883 1.17647 24.5193 1.13361 24.5417 1.10266C25.1288 1.09477 25.6983 1.08147 26.2474 1.06283C26.71 1.0434 27.3458 1.10772 27.7442 1.06911C28.5297 1.08841 29.0232 1.02612 29.726 1.02501C30.4287 1.02389 31.2056 1.0551 31.9083 1.05398C32.5211 1.04824 33.1156 1.03657 33.6885 1.01905C33.8858 1.00816 34.114 1.00452 34.3592 1.00834C34.7042 1.01817 35.0239 1.0139 35.2817 0.996025C35.5395 0.978149 35.7249 0.94739 35.8167 0.907272C35.724 0.87373 35.5993 0.830595 35.4559 0.786233C35.7086 0.741416 36.096 0.716197 36.5608 0.714324L37.2164 0.69763C37.3902 0.694737 37.5221 0.681184 37.5848 0.659777C37.6475 0.638369 37.6362 0.610746 37.5531 0.582617C36.2966 0.459958 36.2493 0.444376 35.3453 0.561941L34.1297 0.54425L34.15 0.543096ZM50.5748 0.587061L50.4818 0.580934L50.5748 0.587061ZM202.976 13.2147L202.957 13.2409L202.978 13.2123L203.182 13.2258L203.194 13.2092L202.976 13.2147ZM172.494 2.61189C172.205 2.59032 171.912 2.57108 171.619 2.55429C171.543 2.55238 171.472 2.55317 171.411 2.55659C171.351 2.56001 171.304 2.56596 171.274 2.57392C171.253 2.60249 171.417 2.61829 171.566 2.62809C171.754 2.64157 171.945 2.64851 172.12 2.6482C172.295 2.64789 172.448 2.64033 172.562 2.62631L172.728 2.61231L172.494 2.61189ZM25.207 12.7876C25.3964 12.7881 25.5758 12.7848 25.7406 12.7778C26.4709 12.7386 27.1691 12.6898 27.9181 12.6518C28.8607 12.5771 29.9473 12.5308 31.1371 12.5146C31.6021 12.5094 31.993 12.4832 32.2642 12.4392C32.4268 12.4152 32.6379 12.3985 32.8846 12.3902L36.0223 12.2576C36.2155 12.2405 36.3819 12.2187 36.5176 12.193C36.2384 12.1746 36.0523 12.1623 35.9407 12.155C35.7105 12.1574 35.5136 12.1694 35.3696 12.1897C35.2158 12.2221 34.9526 12.2395 34.6323 12.2384C34.3091 12.2389 33.9941 12.2423 33.689 12.2487C33.1131 12.2631 32.5337 12.2823 31.9561 12.2992C31.7382 12.3846 31.0713 12.3631 30.5023 12.3681L30.0636 12.3816C28.632 12.4556 27.2661 12.5439 25.9725 12.6459C25.7223 12.6639 25.5076 12.6884 25.3349 12.7187C25.2708 12.7407 25.2519 12.7668 25.2797 12.7949L25.1867 12.7888L25.207 12.7876ZM89.9701 19.023C90.3188 19.0206 90.6824 19.0236 91.0554 19.0321C91.3433 19.0428 91.6235 19.0469 91.885 19.0443C93.3504 19.0293 94.8795 19.0364 96.4516 19.0657C96.6573 19.0708 96.8546 19.0712 97.0359 19.0667L98.3166 19.0214C98.7198 19.003 98.7267 18.9935 98.4217 18.8761C98.1755 18.8576 97.9267 18.8412 97.6773 18.8271C97.5284 18.8173 97.2865 18.8014 97.232 18.8227C96.8943 18.8853 96.2663 18.8639 95.7397 18.8641C94.2156 18.8685 92.6426 18.8597 91.1034 18.8581C90.7779 18.8566 90.4629 18.8592 90.1618 18.866C89.9748 18.8683 89.8047 18.8757 89.6586 18.8877C89.6158 18.8896 89.5801 18.893 89.5539 18.8977C89.5277 18.9024 89.5116 18.9084 89.5067 18.9151C89.5018 18.9219 89.5083 18.9293 89.5255 18.9369C89.5428 18.9445 89.5705 18.9521 89.6069 18.9591C89.735 18.9839 89.8825 19.0071 90.0446 19.0279L89.9701 19.023ZM99.5368 0.773224L101.034 0.724674C101.214 0.719038 101.365 0.699047 101.558 0.70178C102.586 0.701032 103.536 0.673327 104.366 0.619838C104.649 0.599283 104.981 0.588954 105.344 0.589419C106.455 0.589992 107.501 0.567425 108.454 0.522326C109.07 0.503667 109.647 0.474759 110.174 0.436035C110.214 0.4289 110.238 0.41989 110.246 0.409618C110.253 0.399346 110.243 0.388055 110.217 0.376514C110.209 0.369008 110.19 0.36118 110.161 0.353572C110.132 0.345963 110.094 0.338753 110.048 0.332439C110.003 0.326126 109.951 0.32086 109.898 0.317002C109.844 0.313143 109.79 0.310783 109.738 0.310088C109.066 0.288956 108.43 0.29067 107.882 0.315083C107.375 0.340953 106.827 0.357539 106.248 0.364577C105.694 0.375497 105.322 0.430848 104.635 0.410535C104.345 0.405295 104.09 0.414936 103.913 0.437838C103.558 0.477227 103.058 0.49026 102.502 0.474625C102.17 0.467864 101.853 0.468901 101.564 0.477698C100.863 0.503847 100.193 0.539589 99.5444 0.574176C99.3397 0.583408 99.1201 0.589005 98.8889 0.590874L95.6271 0.62551C94.843 0.631246 94.0606 0.634601 93.2917 0.646324C92.6622 0.64829 92.0777 0.665327 91.5588 0.696834C91.0055 0.730128 90.4009 0.752226 89.7562 0.762714C88.7567 0.796668 87.7624 0.823478 86.6733 0.846542C85.9788 0.863168 85.2675 0.876188 84.5409 0.88322C84.1727 0.879469 83.8619 0.896314 83.6683 0.930517C83.5511 0.957721 83.2685 0.944097 83.0348 0.943675C81.7863 0.916941 80.6187 0.930293 79.6138 0.982793C79.4856 0.990546 79.3444 0.995491 79.1936 0.997527C78.2231 1.01842 77.217 1.03448 76.2854 1.05545C76.0403 1.0633 75.8101 1.07485 75.5975 1.08997C75.6218 1.10624 75.6886 1.12297 75.7839 1.13668C75.8793 1.15039 75.9959 1.16003 76.1096 1.1636C76.9948 1.19062 77.8477 1.19618 78.6325 1.18008C79.938 1.14461 81.3072 1.12715 82.7259 1.12787C83.8275 1.13603 84.8286 1.10647 85.6548 1.04138C86.3008 0.99215 87.1463 0.986091 88.046 1.02424C88.4313 1.04347 88.8038 1.04622 89.1127 1.03213C89.4098 1.01608 89.7518 1.01062 90.1188 1.01607C90.8922 1.02472 91.6348 1.02006 92.3321 1.00219C93.0132 0.977192 93.647 0.936617 94.3467 0.912849C95.0463 0.889081 96.1133 0.86955 96.9756 0.83654C97.838 0.80353 98.6917 0.782426 99.5368 0.773224ZM37.3115 0.808655C37.3969 0.879136 37.681 0.917794 37.9839 0.930261C39.03 0.992371 40.0601 1.00559 40.901 0.96771C41.3539 0.931132 41.9615 0.927551 42.6046 0.957673C43.3529 0.987182 44.0492 0.979155 44.5709 0.935002C44.6988 0.926455 44.7962 0.912299 44.8542 0.893795C44.8645 0.87951 44.8835 0.853321 44.8869 0.84856C44.8308 0.837948 44.7623 0.828491 44.6866 0.820913C44.611 0.813337 44.5302 0.807845 44.4506 0.804862L41.0031 0.799828L40.402 0.795163C39.3028 0.772199 38.2577 0.776763 37.3115 0.808655ZM44.1789 1.79967C44.7262 1.90555 44.7278 1.90317 45.0053 1.92393C46.3422 2.00602 47.6736 2.03655 48.8412 2.01191C49.1007 2.00571 49.3199 1.98935 49.4803 1.9642C49.5635 1.9594 49.6159 1.94895 49.6259 1.93513C49.6359 1.9213 49.6028 1.90522 49.5337 1.89039L49.0995 1.8169C48.3209 1.79842 47.5541 1.78708 46.8037 1.78295C45.93 1.7778 45.1576 1.79428 44.2533 1.80457L44.1789 1.79967ZM89.8599 18.5019C90.3745 18.653 90.3762 18.6506 91.2175 18.6736C91.8038 18.6901 92.3715 18.6947 92.9039 18.6874C93.5542 18.6778 94.2215 18.6719 94.8701 18.6647C95.0288 18.6663 95.1626 18.659 95.2454 18.6441C95.3282 18.6293 95.3542 18.608 95.3182 18.5844C95.2309 18.5599 95.0956 18.5374 94.9344 18.5204C94.7732 18.5035 94.5956 18.4931 94.4304 18.4911L94.0764 18.4952C93.6463 18.4968 93.1993 18.4948 92.7843 18.5024C92.5157 18.5152 92.2035 18.517 91.8719 18.5077C91.5404 18.4985 91.1985 18.4783 90.8732 18.4489L89.8599 18.5019ZM46.7688 0.807856C46.9048 0.832966 47.0583 0.856495 47.225 0.877812C47.8683 0.932812 48.5462 0.956992 49.1258 0.945611C49.4001 0.943723 49.6493 0.922718 49.9302 0.93872C50.4331 0.957224 50.9193 0.96215 51.3626 0.95323C51.3626 0.95323 51.4863 0.943916 51.527 0.941605L51.6028 0.836849C51.3909 0.817762 51.1704 0.803241 50.9514 0.793953C50.2184 0.783093 49.4987 0.780602 48.7808 0.775729C48.0629 0.770857 47.8124 0.766829 47.3433 0.768366C47.1349 0.778052 46.9424 0.79128 46.7688 0.807856ZM32.0671 13.9502L33.0418 14.1391C33.3528 14.1504 33.6421 14.1472 33.8658 14.13C34.0895 14.1128 34.2351 14.0824 34.2808 14.0436C34.3579 14.0242 34.3636 13.9979 34.2963 13.9702C34.2291 13.9426 34.0944 13.9157 33.9203 13.8952C33.7523 13.87 33.5611 13.8484 33.3586 13.8316C33.1561 13.8149 32.9465 13.8033 32.743 13.7977L32.0671 13.9502ZM39.9364 12.7224C39.3079 12.7009 38.7084 12.6998 38.1839 12.7193C37.8548 12.7476 37.4058 12.7511 36.929 12.7289C36.0614 12.6829 35.229 12.6835 34.6074 12.7307C34.6074 12.7307 34.5867 12.7592 34.4816 12.7698C34.3765 12.7803 34.798 12.7906 34.891 12.7967C35.57 12.8015 36.2524 12.8016 36.8418 12.7955C37.2073 12.7869 37.5945 12.7848 37.9967 12.7892C38.5504 12.7975 39.0743 12.7925 39.548 12.7742C39.548 12.7742 39.731 12.7638 39.9347 12.7248L39.9364 12.7224ZM105.765 0.250466C105.463 0.21757 105.136 0.192666 104.809 0.177626C104.482 0.162585 104.164 0.157798 103.878 0.163621C103.659 0.166498 103.482 0.180967 103.377 0.204738C103.271 0.22851 103.243 0.260228 103.295 0.294878C103.519 0.309585 103.816 0.329194 103.984 0.340224C104.56 0.325768 105.05 0.295661 105.765 0.250466ZM161.975 2.32827C161.733 2.30177 161.467 2.28334 161.207 2.27507C160.948 2.2668 160.705 2.26904 160.508 2.28152C160.406 2.2873 160.479 2.322 160.463 2.34342C160.452 2.34845 160.453 2.35438 160.465 2.36059C160.477 2.3668 160.5 2.37307 160.532 2.37873C160.564 2.3844 160.603 2.38925 160.646 2.39278C160.688 2.39631 160.733 2.3984 160.774 2.39881C161.035 2.40669 161.281 2.40524 161.489 2.39459C161.698 2.38394 161.863 2.36443 161.969 2.3378L161.975 2.32827ZM165.762 2.69986C165.723 2.68186 165.643 2.66402 165.535 2.64959C165.427 2.63517 165.3 2.62513 165.175 2.62132C164.957 2.62536 164.759 2.63507 164.589 2.65006C164.404 2.66284 164.543 2.71434 164.796 2.74102C164.904 2.75161 165.018 2.75917 165.13 2.76312C165.243 2.76706 165.35 2.76727 165.443 2.76374C165.537 2.7602 165.614 2.75302 165.669 2.74275C165.723 2.73249 165.754 2.71943 165.759 2.70462L165.762 2.69986ZM56.5124 0.788499C55.9475 0.733841 55.5188 0.760483 55.0432 0.744128C54.5676 0.727774 54.4507 0.727562 54.5179 0.769402C54.5851 0.811243 54.9088 0.79514 55.1135 0.808622C55.3901 0.8264 55.6674 0.833932 55.9144 0.830378C56.1615 0.826825 56.3686 0.812325 56.5124 0.788499ZM173.989 9.54235C173.692 9.53394 173.401 9.52982 173.12 9.53005C173.084 9.53714 173.062 9.54585 173.055 9.55566C173.048 9.56547 173.056 9.57619 173.079 9.58719C173.079 9.58719 173.272 9.61734 173.383 9.62469C173.795 9.64927 173.81 9.60043 173.989 9.54235ZM216.385 14.866C216.589 14.9069 216.685 14.9357 216.848 14.9538C216.922 14.9597 216.999 14.9635 217.072 14.9649C217.145 14.9663 217.213 14.9652 217.271 14.9618C217.34 14.9471 217.355 14.9267 217.312 14.9046C217.312 14.9046 217.104 14.8685 217.026 14.8683C216.804 14.8637 216.588 14.8629 216.385 14.866ZM46.9642 0.618685C46.5362 0.590496 46.1267 0.56353 45.8365 0.614261C46.5151 0.646479 46.5151 0.646481 46.9642 0.618685ZM53.8813 0.894602C53.4454 0.823488 53.1931 0.821839 52.988 0.835773C52.9444 0.839099 52.9159 0.844964 52.9068 0.852479C52.8977 0.859993 52.9084 0.868749 52.9374 0.877421C52.9663 0.886094 53.012 0.89421 53.0674 0.900543C53.1228 0.906876 53.1849 0.911082 53.2444 0.912523C53.4683 0.909798 53.6815 0.903799 53.8813 0.894602ZM75.9581 0.430265C75.9667 0.418361 75.9771 0.404076 75.8654 0.396722C75.836 0.392374 75.8016 0.38884 75.7656 0.386474C75.7297 0.384107 75.6935 0.382993 75.6607 0.383242C75.6607 0.383242 75.6504 0.397528 75.6435 0.407051L75.9581 0.430265ZM92.9885 19.4861L92.7428 19.5024L92.8544 19.5097L93.1474 19.5091L92.9885 19.4861ZM178.504 2.22939C178.411 2.22326 178.318 2.21713 178.305 2.2338C178.286 2.23677 178.274 2.2407 178.271 2.24526C178.268 2.24981 178.273 2.25486 178.286 2.25999C178.286 2.25999 178.417 2.26857 178.473 2.27224L178.504 2.22939ZM164.135 2.685C164.074 2.68543 164.019 2.68777 163.974 2.69186L163.964 2.70614L164.15 2.7184L164.135 2.685ZM39.1087 8.85654C39.0366 8.84963 38.9604 8.84462 38.8853 8.84184L38.7923 8.83571C38.7923 8.83571 38.8936 8.85735 38.9494 8.86102C39.0052 8.8647 39.0494 8.85763 39.1087 8.85654Z" fill="#F8CE51"/>
</g>
</svg>
