<svg width="49" height="49" viewBox="0 0 49 49" fill="none" xmlns="http://www.w3.org/2000/svg">
<path d="M28.4917 43.1441H4.19879C3.23282 43.1441 2.44911 42.3446 2.44911 41.3592V13.0884C2.44911 12.103 3.23282 11.3035 4.19879 11.3035H41.2498C42.2158 11.3035 42.9995 12.103 42.9995 13.0884V28.1279C43.8812 28.5114 44.7013 29.0111 45.4486 29.6014V7.91726C45.4509 4.87729 43.0359 2.41371 40.056 2.41371H5.39487C2.41493 2.41371 0 4.87729 0 7.91726V40.6619C0 43.7019 2.41493 46.1655 5.39487 46.1655H30.4168C29.6262 45.2753 28.9746 44.2574 28.4917 43.1441Z" fill="#2ECC71"/>
<line x1="8.5" y1="2.5" x2="8.5" y2="1.5" stroke="#2ECC71" stroke-width="3" stroke-linecap="round"/>
<line x1="22.5" y1="2.5" x2="22.5" y2="1.5" stroke="#2ECC71" stroke-width="3" stroke-linecap="round"/>
<line x1="36.5" y1="2.5" x2="36.5" y2="1.5" stroke="#2ECC71" stroke-width="3" stroke-linecap="round"/>
<path fill-rule="evenodd" clip-rule="evenodd" d="M48.9998 38.9827C48.9998 44.5151 44.515 48.9999 38.9826 48.9999C33.4502 48.9999 28.9653 44.5151 28.9653 38.9827C28.9653 33.4503 33.4502 28.9655 38.9826 28.9655C44.515 28.9655 48.9998 33.4503 48.9998 38.9827ZM43.8157 36.5457C44.0028 36.3426 43.9898 36.0263 43.7867 35.8392C43.5836 35.6521 43.2673 35.6651 43.0802 35.8682L36.782 42.705L34.165 39.7874C33.9806 39.5818 33.6645 39.5646 33.4589 39.749C33.2534 39.9334 33.2362 40.2495 33.4206 40.4551L36.4049 43.7822L36.7722 44.1917L37.1448 43.7871L43.8157 36.5457Z" fill="#2ECC71"/>
<rect x="19.3125" y="24.1379" width="7.24138" height="7.24138" rx="2" fill="#2ECC71"/>
<rect x="19.3125" y="33.793" width="7.24138" height="7.24138" rx="2" fill="#2ECC71"/>
<rect x="9.6543" y="33.793" width="7.24138" height="7.24138" rx="2" fill="#2ECC71"/>
<rect x="9.6543" y="14.4827" width="7.24138" height="7.24138" rx="2" fill="#2ECC71"/>
<rect x="19.3125" y="14.4827" width="7.24138" height="7.24138" rx="2" fill="#2ECC71"/>
<rect x="9.6543" y="24.1379" width="7.24138" height="7.24138" rx="2" fill="#2ECC71"/>
<rect x="28.9653" y="14.4827" width="7.24138" height="7.24138" rx="2" fill="#2ECC71"/>
</svg>
