<svg width="32" height="32" viewBox="0 0 32 32" fill="none" xmlns="http://www.w3.org/2000/svg">
<path d="M8 25.3333H24V12.2093L16 4.93733L8 12.2093V25.3333ZM25.3333 28H6.66667C6.31305 28 5.97391 27.8595 5.72386 27.6095C5.47381 27.3594 5.33333 27.0203 5.33333 26.6667V14.6667H1.33333L15.1027 2.14933C15.3481 1.92597 15.6681 1.80219 16 1.80219C16.3319 1.80219 16.6519 1.92597 16.8973 2.14933L30.6667 14.6667H26.6667V26.6667C26.6667 27.0203 26.5262 27.3594 26.2761 27.6095C26.0261 27.8595 25.687 28 25.3333 28ZM10.6667 13.3333C13.142 13.3333 15.516 14.3167 17.2663 16.067C19.0167 17.8173 20 20.1913 20 22.6667H17.3333C17.3333 20.8986 16.631 19.2029 15.3807 17.9526C14.1305 16.7024 12.4348 16 10.6667 16V13.3333ZM10.6667 18.6667C11.7275 18.6667 12.7449 19.0881 13.4951 19.8382C14.2452 20.5884 14.6667 21.6058 14.6667 22.6667H10.6667V18.6667Z" fill="#4318FF"/>
</svg>
