<svg width="18" height="18" viewBox="0 0 18 18" fill="none" xmlns="http://www.w3.org/2000/svg">
<path d="M15.8847 9.59543L15.8944 9.60593L9.0004 16.4999L2.1064 9.60593L2.11615 9.59543C1.31558 8.66209 0.897285 7.46069 0.945096 6.23196C0.992907 5.00324 1.50329 3.83798 2.37397 2.96967C3.24465 2.10136 4.4113 1.59416 5.64015 1.5497C6.869 1.50524 8.06925 1.92681 9.0004 2.72993C9.93155 1.92681 11.1318 1.50524 12.3607 1.5497C13.5895 1.59416 14.7562 2.10136 15.6268 2.96967C16.4975 3.83798 17.0079 5.00324 17.0557 6.23196C17.1035 7.46069 16.6852 8.66209 15.8847 9.59543ZM3.43165 4.03718C3.11825 4.35057 2.86965 4.72263 2.70003 5.13211C2.53042 5.54159 2.44312 5.98046 2.44312 6.42368C2.44312 6.86689 2.53042 7.30577 2.70003 7.71524C2.86965 8.12472 3.11825 8.49678 3.43165 8.81018L9.0004 14.3789L14.5692 8.81018C15.2021 8.17724 15.5577 7.31879 15.5577 6.42368C15.5577 5.52856 15.2021 4.67011 14.5692 4.03718C13.9362 3.40424 13.0778 3.04865 12.1827 3.04865C11.2875 3.04865 10.4291 3.40424 9.79615 4.03718L6.6139 7.21943L5.5534 6.15743L7.9249 3.78593C7.27632 3.26793 6.45959 3.00711 5.63082 3.05332C4.80205 3.09953 4.01938 3.44953 3.4324 4.03643L3.43165 4.03718Z" fill="#283242"/>
</svg>
