<svg xmlns="http://www.w3.org/2000/svg" version="1.1" viewBox="0 0 15 15">
<rect x="5" y="5" width="5" height="5" fill="rgb(255, 255, 255)" stroke-width="0" stroke="white" mask="url(#clip)"/>
<polygon points="7.5,5.0 10.0,7.5 7.5,10.0 5.0,7.5 7.5,5.0" stroke-width="0" fill="#175fff" mask="(#clip)"/>
<rect x="5" y="0" width="5" height="5" fill="rgb(255, 255, 255)" stroke-width="0" stroke="white" mask="url(#clip)"/>
<polygon points="5.0,0.0 7.5,0.0 5.0,2.5 5.0,0.0" stroke-width="0" fill="#175fff" mask="(#clip)"/>
<rect x="10" y="5" width="5" height="5" fill="rgb(255, 255, 255)" stroke-width="0" stroke="white" mask="url(#clip)"/>
<polygon points="15.0,5.0 15.0,7.5 12.5,5.0 15.0,5.0" stroke-width="0" fill="#175fff" mask="(#clip)"/>
<rect x="5" y="10" width="5" height="5" fill="rgb(255, 255, 255)" stroke-width="0" stroke="white" mask="url(#clip)"/>
<polygon points="10.0,15.0 7.5,15.0 10.0,12.5 10.0,15.0" stroke-width="0" fill="#175fff" mask="(#clip)"/>
<rect x="0" y="5" width="5" height="5" fill="rgb(255, 255, 255)" stroke-width="0" stroke="white" mask="url(#clip)"/>
<polygon points="0.0,10.0 0.0,7.5 2.5,10.0 0.0,10.0" stroke-width="0" fill="#175fff" mask="(#clip)"/>
<rect x="0" y="0" width="5" height="5" fill="#175fff" stroke-width="0" stroke="white" mask="url(#clip)"/>
<polygon points="0.0,5.0 2.5,0.0 5.0,0.0 5.0,2.5 0.0,5.0" stroke-width="0" fill="rgb(255, 255, 255)" mask="(#clip)"/>
<rect x="10" y="0" width="5" height="5" fill="#175fff" stroke-width="0" stroke="white" mask="url(#clip)"/>
<polygon points="10.0,0.0 15.0,2.5 15.0,5.0 12.5,5.0 10.0,0.0" stroke-width="0" fill="rgb(255, 255, 255)" mask="(#clip)"/>
<rect x="10" y="10" width="5" height="5" fill="#175fff" stroke-width="0" stroke="white" mask="url(#clip)"/>
<polygon points="15.0,10.0 12.5,15.0 10.0,15.0 10.0,12.5 15.0,10.0" stroke-width="0" fill="rgb(255, 255, 255)" mask="(#clip)"/>
<rect x="0" y="10" width="5" height="5" fill="#175fff" stroke-width="0" stroke="white" mask="url(#clip)"/>
<polygon points="5.0,15.0 0.0,12.5 0.0,10.0 2.5,10.0 5.0,15.0" stroke-width="0" fill="rgb(255, 255, 255)" mask="(#clip)"/>

</svg>