<svg width="24" height="24" viewBox="0 0 35 24" fill="none" xmlns="http://www.w3.org/2000/svg">
<path d="M15.4161 9.75056C12.737 9.75056 10.5506 11.9369 10.5506 14.616C10.5506 17.2951 12.737 19.4815 15.4161 19.4815C18.0952 19.4815 20.2815 17.2951 20.2815 14.616C20.2815 11.9369 18.0952 9.75056 15.4161 9.75056ZM30.0088 14.616C30.0088 12.6012 30.027 10.6047 29.9139 8.59351C29.8007 6.25751 29.2678 4.18431 27.5596 2.47611C25.8478 0.764264 23.7782 0.235015 21.4422 0.121865C19.4274 0.00871453 17.4309 0.0269646 15.4197 0.0269646C13.4049 0.0269646 11.4084 0.00871453 9.39723 0.121865C7.06123 0.235015 4.98803 0.767914 3.27983 2.47611C1.56798 4.18796 1.03873 6.25751 0.925575 8.59351C0.812425 10.6083 0.830676 12.6049 0.830676 14.616C0.830676 16.6272 0.812425 18.6274 0.925575 20.6385C1.03873 22.9745 1.57163 25.0477 3.27983 26.7559C4.99168 28.4678 7.06123 28.997 9.39723 29.1102C11.412 29.2233 13.4086 29.2051 15.4197 29.2051C17.4345 29.2051 19.4311 29.2233 21.4422 29.1102C23.7782 28.997 25.8514 28.4641 27.5596 26.7559C29.2715 25.0441 29.8007 22.9745 29.9139 20.6385C30.0307 18.6274 30.0088 16.6308 30.0088 14.616ZM15.4161 22.1022C11.2733 22.1022 7.92993 18.7588 7.92993 14.616C7.92993 10.4733 11.2733 7.12986 15.4161 7.12986C19.5588 7.12986 22.9022 10.4733 22.9022 14.616C22.9022 18.7588 19.5588 22.1022 15.4161 22.1022ZM23.2088 8.57161C22.2416 8.57161 21.4605 7.79051 21.4605 6.82326C21.4605 5.85601 22.2416 5.07491 23.2088 5.07491C24.1761 5.07491 24.9572 5.85601 24.9572 6.82326C24.9575 7.05294 24.9124 7.28042 24.8247 7.49267C24.7369 7.70492 24.6081 7.89777 24.4457 8.06018C24.2833 8.22258 24.0905 8.35136 23.8782 8.43912C23.666 8.52688 23.4385 8.5719 23.2088 8.57161Z" fill="#022138"/>
</svg>
