<svg width="40" height="52" viewBox="0 0 40 52" fill="none" xmlns="http://www.w3.org/2000/svg">
<ellipse cx="2.77333" cy="2.42667" rx="2.77333" ry="2.42667" fill="#2ECC71"/>
<line x1="3.08008" y1="4.46671" x2="3.08008" y2="51" stroke="#2ECC71" stroke-width="2" stroke-linecap="round"/>
<path fill-rule="evenodd" clip-rule="evenodd" d="M39.3598 6.49577C39.489 6.18205 39.4614 5.80954 39.2006 5.59252C38.8539 5.30405 38.4082 5.13055 37.922 5.13055H7.67139C6.56682 5.13055 5.67139 6.02599 5.67139 7.13055V31.9732C5.67139 33.0778 6.56682 33.9732 7.67139 33.9732H37.922C38.3738 33.9732 38.7906 33.8234 39.1254 33.5708C39.4164 33.3513 39.4427 32.9462 39.2886 32.6159L33.7982 20.8509C33.6799 20.5974 33.6732 20.3059 33.7797 20.0473L39.3598 6.49577ZM39.922 31.9917V7.11204L39.922 7.13055V31.9732L39.922 31.9917ZM12.2783 8.73596C10.6214 8.73596 9.27826 10.0791 9.27826 11.736V27.3679C9.27826 29.0248 10.6214 30.3679 12.2783 30.3679H18.8969C20.5538 30.3679 21.8969 29.0248 21.8969 27.3679V11.736C21.8969 10.0791 20.5538 8.73596 18.8969 8.73596H12.2783Z" fill="#2ECC71"/>
</svg>
