<svg width="42" height="49" viewBox="0 0 42 49" fill="none" xmlns="http://www.w3.org/2000/svg">
<path d="M1.45503 21.656C1.06376 21.6623 0.711607 21.5181 0.450756 21.2862C0.183383 21.0418 0.0138294 20.7095 0.000786778 20.3209C-0.0122558 19.9448 0.137734 19.5876 0.385543 19.3369C0.639873 19.0799 0.985502 18.9169 1.38982 18.9044L4.52004 18.8041C4.91132 18.7915 5.28303 18.9357 5.54388 19.1739C5.81126 19.4183 5.98081 19.7505 5.99385 20.1392V20.158H6.00037L5.99385 20.2081C5.98733 20.5591 5.84386 20.8851 5.6091 21.1232C5.35476 21.3802 5.00914 21.5432 4.60482 21.5557H4.58525V21.562H4.55265L1.45503 21.656ZM20.732 1.34763C20.745 0.965276 20.9146 0.626802 21.1819 0.382349C21.4428 0.144165 21.8015 0 22.1862 0.00626802V0C22.2188 0 22.2514 0.00626802 22.284 0.00626802C22.6427 0.0376081 22.9688 0.194309 23.2035 0.426226C23.4513 0.676947 23.6013 1.01542 23.5948 1.3915H23.6013C23.6013 1.41657 23.6013 1.44165 23.5948 1.46045L23.5166 4.40015H23.5231C23.5231 4.43149 23.5166 4.46283 23.5166 4.49417C23.4905 4.84518 23.3209 5.15231 23.0796 5.37796C22.8188 5.61615 22.4601 5.76031 22.0754 5.75405C22.0427 5.75405 22.0101 5.75405 21.9775 5.74778C21.6123 5.7227 21.2928 5.55974 21.058 5.32782C20.8102 5.0771 20.6602 4.73236 20.6602 4.36254H20.6537C20.6537 4.33747 20.6537 4.3124 20.6602 4.2936L20.732 1.34763ZM34.2702 5.40304C34.4919 5.08337 34.8245 4.88906 35.1766 4.82011C35.5353 4.75116 35.92 4.81384 36.2526 5.02695L36.2592 5.03322C36.5852 5.24007 36.7939 5.566 36.8656 5.91075C36.9374 6.25549 36.8656 6.6253 36.6504 6.94497L34.9092 9.45218C34.6875 9.77185 34.3549 9.97243 33.9963 10.0414C33.6376 10.1103 33.2528 10.0476 32.9203 9.83453C32.5877 9.62142 32.3855 9.30175 32.3138 8.95701C32.242 8.61226 32.3073 8.24245 32.529 7.92278L34.2702 5.40304ZM40.4393 17.3875L40.485 17.3812C40.8567 17.3624 41.2023 17.4753 41.4762 17.6884C41.7631 17.9077 41.9522 18.2399 41.9979 18.616V18.6286C41.9979 18.6286 41.9979 18.6662 41.9979 18.6724C42.0175 19.0297 41.9001 19.3682 41.6783 19.6252C41.4501 19.901 41.1045 20.0827 40.7132 20.1266L37.596 20.44C37.2047 20.4776 36.8265 20.3585 36.5461 20.1392C36.2592 19.9198 36.0635 19.5876 36.0244 19.2115C35.9853 18.8354 36.1092 18.4719 36.3374 18.2023C36.5657 17.9265 36.9113 17.7385 37.3026 17.7009C38.3525 17.6006 39.3959 17.4815 40.4393 17.3875ZM5.20478 6.49994C4.91784 6.23668 4.76133 5.89194 4.74829 5.54093C4.73524 5.18992 4.85915 4.83265 5.12652 4.55685C5.40041 4.27479 5.75909 4.13063 6.12428 4.11809C6.48947 4.10556 6.86118 4.22465 7.14812 4.48164L9.44361 6.53755C9.73055 6.79454 9.88706 7.14555 9.9001 7.49656C9.91315 7.85383 9.78924 8.20484 9.52187 8.48063C9.2545 8.75643 8.88931 8.90686 8.52411 8.9194C8.1524 8.93193 7.78721 8.81284 7.50027 8.55585L5.20478 6.49994ZM12.4108 32.1863C11.8695 31.5908 11.3152 30.9828 10.7805 30.2871C10.2262 29.5725 9.69794 28.764 9.22841 27.805H9.22189C8.77192 26.871 8.41325 25.912 8.17196 24.9279C7.93068 23.9501 7.80677 22.9472 7.81981 21.913C7.82633 20.8851 7.9698 19.8508 8.25022 18.7978C8.53716 17.7448 8.95452 16.6855 9.52839 15.6262L9.58056 15.5322C10.324 14.3162 11.2239 13.2945 12.2282 12.4546C13.2977 11.5582 14.478 10.875 15.7171 10.3861L15.8149 10.3548C16.7866 9.97869 17.7909 9.72797 18.8017 9.59008C19.8712 9.43964 20.9667 9.42084 22.0623 9.51486C23.1253 9.60888 24.1752 9.81572 25.186 10.1291C26.2033 10.4425 27.175 10.8625 28.0815 11.3765C29.2683 12.0534 30.3509 12.8996 31.2704 13.8962C32.1573 14.8615 32.8811 15.9584 33.4028 17.1744C33.6832 17.8263 33.918 18.5345 34.0941 19.293C34.2702 20.0389 34.3745 20.8286 34.4006 21.6498C34.4267 22.5022 34.3615 23.3797 34.1854 24.2886C34.0224 25.141 33.755 26.0123 33.3833 26.9024C33.3507 26.9838 33.305 27.0591 33.2528 27.128L27.9445 35.0571C27.7554 35.3391 27.4554 35.5146 27.1294 35.5585L15.9975 37.1067C15.4106 37.1882 14.8693 36.8309 14.7128 36.2981C14.4324 35.5084 14.0737 34.7123 13.6694 33.9852C13.2847 33.2957 12.8542 32.6752 12.4108 32.1863ZM12.6456 28.9583C13.1347 29.5913 13.6498 30.1617 14.1585 30.7196C14.7259 31.3464 15.2541 32.1048 15.7171 32.9259C16.0432 33.5089 16.3431 34.1294 16.604 34.7625L26.2685 33.4274L31.2508 25.981C31.5508 25.2601 31.7595 24.5581 31.8899 23.8874C32.0334 23.1353 32.0921 22.4145 32.0725 21.7187V21.7124C32.0529 21.0418 31.9616 20.3961 31.8247 19.7819C31.6877 19.1802 31.4856 18.591 31.2443 18.0206C30.8269 17.0302 30.24 16.1464 29.5357 15.3755C28.7858 14.5606 27.8923 13.8649 26.9011 13.3007C26.1381 12.8683 25.323 12.5172 24.4817 12.254C23.6274 11.9907 22.747 11.8152 21.8601 11.7337C20.9602 11.6523 20.0472 11.6773 19.1408 11.7964C18.2995 11.9092 17.4778 12.1161 16.6953 12.417L16.604 12.4546C15.5867 12.8494 14.628 13.4073 13.7738 14.1281C12.9651 14.8051 12.2347 15.6387 11.6217 16.6416L11.6152 16.6541C11.1131 17.5818 10.7544 18.4781 10.5196 19.3557C10.2849 20.2269 10.1675 21.0856 10.161 21.9318C10.1544 22.7655 10.2588 23.5991 10.4609 24.4202C10.6631 25.2413 10.9631 26.0499 11.3544 26.8585H11.3478C11.7261 27.6671 12.176 28.344 12.6456 28.9583ZM23.7578 48.2826C23.0144 48.7025 22.1797 48.9407 21.345 48.9909C20.4972 49.041 19.6494 48.8843 18.8669 48.527C15.0584 46.7406 16.0953 42.5724 15.3389 39.3506L27.025 37.6771C26.1968 41.4254 27.8793 45.9885 23.7578 48.2826Z" fill="#2ECC71"/>
<path d="M1.45503 21.656C1.06376 21.6623 0.711607 21.5181 0.450756 21.2862C0.183383 21.0418 0.0138294 20.7095 0.000786778 20.3209C-0.0122558 19.9448 0.137734 19.5876 0.385543 19.3369C0.639873 19.0799 0.985502 18.9169 1.38982 18.9044L4.52004 18.8041C4.91132 18.7915 5.28303 18.9357 5.54388 19.1739C5.81126 19.4183 5.98081 19.7505 5.99385 20.1392V20.158H6.00037L5.99385 20.2081C5.98733 20.5591 5.84386 20.8851 5.6091 21.1232C5.35476 21.3802 5.00914 21.5432 4.60482 21.5557H4.58525V21.562H4.55265L1.45503 21.656ZM20.732 1.34763C20.745 0.965276 20.9146 0.626802 21.1819 0.382349C21.4428 0.144165 21.8015 0 22.1862 0.00626802V0C22.2188 0 22.2514 0.00626802 22.284 0.00626802C22.6427 0.0376081 22.9688 0.194309 23.2035 0.426226C23.4513 0.676947 23.6013 1.01542 23.5948 1.3915H23.6013C23.6013 1.41657 23.6013 1.44165 23.5948 1.46045L23.5166 4.40015H23.5231C23.5231 4.43149 23.5166 4.46283 23.5166 4.49417C23.4905 4.84518 23.3209 5.15231 23.0796 5.37796C22.8188 5.61615 22.4601 5.76031 22.0754 5.75405C22.0427 5.75405 22.0101 5.75405 21.9775 5.74778C21.6123 5.7227 21.2928 5.55974 21.058 5.32782C20.8102 5.0771 20.6602 4.73236 20.6602 4.36254H20.6537C20.6537 4.33747 20.6537 4.3124 20.6602 4.2936L20.732 1.34763ZM34.2702 5.40304C34.4919 5.08337 34.8245 4.88906 35.1766 4.82011C35.5353 4.75116 35.92 4.81384 36.2526 5.02695L36.2592 5.03322C36.5852 5.24007 36.7939 5.566 36.8656 5.91075C36.9374 6.25549 36.8656 6.6253 36.6504 6.94497L34.9092 9.45218C34.6875 9.77185 34.3549 9.97243 33.9963 10.0414C33.6376 10.1103 33.2528 10.0476 32.9203 9.83453C32.5877 9.62142 32.3855 9.30175 32.3138 8.95701C32.242 8.61226 32.3073 8.24245 32.529 7.92278L34.2702 5.40304ZM40.4393 17.3875L40.485 17.3812C40.8567 17.3624 41.2023 17.4753 41.4762 17.6884C41.7631 17.9077 41.9522 18.2399 41.9979 18.616V18.6286C41.9979 18.6286 41.9979 18.6662 41.9979 18.6724C42.0175 19.0297 41.9001 19.3682 41.6783 19.6252C41.4501 19.901 41.1045 20.0827 40.7132 20.1266L37.596 20.44C37.2047 20.4776 36.8265 20.3585 36.5461 20.1392C36.2592 19.9198 36.0635 19.5876 36.0244 19.2115C35.9853 18.8354 36.1092 18.4719 36.3374 18.2023C36.5657 17.9265 36.9113 17.7385 37.3026 17.7009C38.3525 17.6006 39.3959 17.4815 40.4393 17.3875ZM5.20478 6.49994C4.91784 6.23668 4.76133 5.89194 4.74829 5.54093C4.73524 5.18992 4.85915 4.83265 5.12652 4.55685C5.40041 4.27479 5.75909 4.13063 6.12428 4.11809C6.48947 4.10556 6.86118 4.22465 7.14812 4.48164L9.44361 6.53755C9.73055 6.79454 9.88706 7.14555 9.9001 7.49656C9.91315 7.85383 9.78924 8.20484 9.52187 8.48063C9.2545 8.75643 8.88931 8.90686 8.52411 8.9194C8.1524 8.93193 7.78721 8.81284 7.50027 8.55585L5.20478 6.49994ZM12.4108 32.1863C11.8695 31.5908 11.3152 30.9828 10.7805 30.2871C10.2262 29.5725 9.69794 28.764 9.22841 27.805H9.22189C8.77192 26.871 8.41325 25.912 8.17196 24.9279C7.93068 23.9501 7.80677 22.9472 7.81981 21.913C7.82633 20.8851 7.9698 19.8508 8.25022 18.7978C8.53716 17.7448 8.95452 16.6855 9.52839 15.6262L9.58056 15.5322C10.324 14.3162 11.2239 13.2945 12.2282 12.4546C13.2977 11.5582 14.478 10.875 15.7171 10.3861L15.8149 10.3548C16.7866 9.97869 17.7909 9.72797 18.8017 9.59008C19.8712 9.43964 20.9667 9.42084 22.0623 9.51486C23.1253 9.60888 24.1752 9.81572 25.186 10.1291C26.2033 10.4425 27.175 10.8625 28.0815 11.3765C29.2683 12.0534 30.3509 12.8996 31.2704 13.8962C32.1573 14.8615 32.8811 15.9584 33.4028 17.1744C33.6832 17.8263 33.918 18.5345 34.0941 19.293C34.2702 20.0389 34.3745 20.8286 34.4006 21.6498C34.4267 22.5022 34.3615 23.3797 34.1854 24.2886C34.0224 25.141 33.755 26.0123 33.3833 26.9024C33.3507 26.9838 33.305 27.0591 33.2528 27.128L27.9445 35.0571C27.7554 35.3391 27.4554 35.5146 27.1294 35.5585L15.9975 37.1067C15.4106 37.1882 14.8693 36.8309 14.7128 36.2981C14.4324 35.5084 14.0737 34.7123 13.6694 33.9852C13.2847 33.2957 12.8542 32.6752 12.4108 32.1863ZM12.6456 28.9583C13.1347 29.5913 13.6498 30.1617 14.1585 30.7196C14.7259 31.3464 15.2541 32.1048 15.7171 32.9259C16.0432 33.5089 16.3431 34.1294 16.604 34.7625L26.2685 33.4274L31.2508 25.981C31.5508 25.2601 31.7595 24.5581 31.8899 23.8874C32.0334 23.1353 32.0921 22.4145 32.0725 21.7187V21.7124C32.0529 21.0418 31.9616 20.3961 31.8247 19.7819C31.6877 19.1802 31.4856 18.591 31.2443 18.0206C30.8269 17.0302 30.24 16.1464 29.5357 15.3755C28.7858 14.5606 27.8923 13.8649 26.9011 13.3007C26.1381 12.8683 25.323 12.5172 24.4817 12.254C23.6274 11.9907 22.747 11.8152 21.8601 11.7337C20.9602 11.6523 20.0472 11.6773 19.1408 11.7964C18.2995 11.9092 17.4778 12.1161 16.6953 12.417L16.604 12.4546C15.5867 12.8494 14.628 13.4073 13.7738 14.1281C12.9651 14.8051 12.2347 15.6387 11.6217 16.6416L11.6152 16.6541C11.1131 17.5818 10.7544 18.4781 10.5196 19.3557C10.2849 20.2269 10.1675 21.0856 10.161 21.9318C10.1544 22.7655 10.2588 23.5991 10.4609 24.4202C10.6631 25.2413 10.9631 26.0499 11.3544 26.8585H11.3478C11.7261 27.6671 12.176 28.344 12.6456 28.9583ZM23.7578 48.2826C23.0144 48.7025 22.1797 48.9407 21.345 48.9909C20.4972 49.041 19.6494 48.8843 18.8669 48.527C15.0584 46.7406 16.0953 42.5724 15.3389 39.3506L27.025 37.6771C26.1968 41.4254 27.8793 45.9885 23.7578 48.2826Z" fill="#2ECC71"/>
</svg>
