<svg width="16" height="18" viewBox="0 0 16 18" fill="none" xmlns="http://www.w3.org/2000/svg">
<path fill-rule="evenodd" clip-rule="evenodd" d="M0.916504 7.59815C0.916504 3.76493 4.11974 0.666687 7.99438 0.666687C11.8799 0.666687 15.0832 3.76493 15.0832 7.59815C15.0832 9.52976 14.3807 11.323 13.2244 12.843C11.9488 14.5196 10.3766 15.9804 8.60696 17.127C8.20193 17.392 7.8364 17.412 7.39188 17.127C5.61212 15.9804 4.03991 14.5196 2.77525 12.843C1.61816 11.323 0.916504 9.52976 0.916504 7.59815ZM5.6617 7.81398C5.6617 9.09811 6.70956 10.1081 7.99438 10.1081C9.28004 10.1081 10.338 9.09811 10.338 7.81398C10.338 6.53985 9.28004 5.48071 7.99438 5.48071C6.70956 5.48071 5.6617 6.53985 5.6617 7.81398Z" fill="#456AF6"/>
</svg>
