<svg width="44" height="46" viewBox="0 0 44 46" fill="none" xmlns="http://www.w3.org/2000/svg">
<rect x="8.04883" y="26.7607" width="9.50226" height="9.4017" rx="2" fill="#2ECC71"/>
<path d="M32.6309 45H3.95557C2.32407 45 1 43.3178 1 41.24V4.76C1 2.68444 2.32232 1 3.95557 1H32.6327C34.2642 1 35.5882 2.68222 35.5882 4.76V35.7555" stroke="#2ECC71" stroke-width="2" stroke-miterlimit="10" stroke-linecap="round"/>
<path d="M8.41211 10.7777H30.6474" stroke="#2ECC71" stroke-width="2" stroke-miterlimit="10" stroke-linecap="round"/>
<path d="M8.41211 18.1111H30.6474" stroke="#2ECC71" stroke-width="2" stroke-miterlimit="10" stroke-linecap="round"/>
<path d="M21.4512 27.2424H30.0982" stroke="#2ECC71" stroke-width="2" stroke-miterlimit="10" stroke-linecap="round"/>
<path d="M21.4512 35.0005H30.0982" stroke="#2ECC71" stroke-width="2" stroke-miterlimit="10" stroke-linecap="round"/>
<path d="M35.733 10.7777H39.478C41.4232 10.7777 42.9994 12.2489 42.9994 14.0643V41.7134C42.9994 43.5288 41.4232 44.9999 39.478 44.9999H30.6465" stroke="#2ECC71" stroke-width="2" stroke-miterlimit="10" stroke-linecap="round"/>
</svg>
