<svg width="24" height="24" viewBox="0 0 34 24" fill="none" xmlns="http://www.w3.org/2000/svg">
<path d="M33.306 3.27189C32.1068 3.81696 30.8142 4.17515 29.4749 4.34645C30.8454 3.52107 31.9044 2.21291 32.4027 0.64C31.1101 1.41867 29.6774 1.96373 28.1668 2.2752C26.9365 0.935893 25.2078 0.157227 23.2456 0.157227C19.5859 0.157227 16.5958 3.14731 16.5958 6.83819C16.5958 7.36768 16.6581 7.8816 16.7671 8.36437C11.223 8.08405 6.28624 5.42101 3.00027 1.38752C2.42406 2.36864 2.09702 3.52107 2.09702 4.73579C2.09702 7.05621 3.26502 9.11189 5.07152 10.2799C3.96582 10.2799 2.93798 9.96843 2.03472 9.50123V9.54795C2.03472 12.7872 4.33958 15.497 7.39195 16.1043C6.41196 16.3725 5.38314 16.4098 4.3863 16.2133C4.80928 17.5409 5.63767 18.7026 6.75502 19.535C7.87238 20.3674 9.22251 20.8288 10.6156 20.8542C8.25413 22.7237 5.32692 23.7342 2.31504 23.7197C1.78555 23.7197 1.25606 23.6885 0.726562 23.6262C3.6855 25.5262 7.20507 26.6319 10.9738 26.6319C23.2456 26.6319 29.9889 16.4469 29.9889 7.61685C29.9889 7.32096 29.9888 7.04064 29.9733 6.74475C31.2814 5.81035 32.4027 4.62677 33.306 3.27189Z" fill="#022138"/>
</svg>
