<svg width="20" height="20" viewBox="0 0 20 20" fill="none" xmlns="http://www.w3.org/2000/svg">
<path d="M11.6668 11.8766V13.6183C10.9126 13.3517 10.1054 13.2699 9.313 13.3798C8.52061 13.4897 7.76616 13.7882 7.11302 14.2502C6.45988 14.7121 5.92712 15.324 5.55946 16.0345C5.19181 16.745 5.00001 17.5333 5.00016 18.3333L3.3335 18.3325C3.33324 17.3149 3.56593 16.3107 4.01375 15.397C4.46156 14.4832 5.11261 13.6841 5.91701 13.0608C6.72141 12.4376 7.65781 12.0068 8.65446 11.8014C9.6511 11.5959 10.6815 11.6214 11.6668 11.8758V11.8766ZM10.0002 10.8333C7.23766 10.8333 5.00016 8.59581 5.00016 5.83331C5.00016 3.07081 7.23766 0.833313 10.0002 0.833313C12.7627 0.833313 15.0002 3.07081 15.0002 5.83331C15.0002 8.59581 12.7627 10.8333 10.0002 10.8333ZM10.0002 9.16665C11.8418 9.16665 13.3335 7.67498 13.3335 5.83331C13.3335 3.99165 11.8418 2.49998 10.0002 2.49998C8.1585 2.49998 6.66683 3.99165 6.66683 5.83331C6.66683 7.67498 8.1585 9.16665 10.0002 9.16665ZM15.4885 14.1666L13.9643 12.6433L15.1435 11.4641L18.6785 15L15.1435 18.5358L13.9643 17.3566L15.4885 15.8333H12.5002V14.1666H15.4885Z" fill="#2ECC71"/>
</svg>
