<svg width="18" height="18" viewBox="0 0 18 18" fill="none" xmlns="http://www.w3.org/2000/svg">
<path d="M6.1875 11.25C8.20679 11.25 9.84375 9.61304 9.84375 7.59375C9.84375 5.57446 8.20679 3.9375 6.1875 3.9375C4.16821 3.9375 2.53125 5.57446 2.53125 7.59375C2.53125 9.61304 4.16821 11.25 6.1875 11.25Z" stroke="#B7BFCF" stroke-width="1.5" stroke-miterlimit="10"/>
<path d="M10.9274 4.07368C11.4303 3.93199 11.9577 3.89971 12.4741 3.97902C12.9905 4.05833 13.4839 4.24738 13.9211 4.53344C14.3583 4.8195 14.7291 5.19593 15.0086 5.63737C15.2881 6.07881 15.4697 6.57502 15.5412 7.09256C15.6128 7.61011 15.5726 8.13698 15.4234 8.63769C15.2742 9.13839 15.0194 9.60131 14.6762 9.99525C14.333 10.3892 13.9094 10.705 13.4338 10.9215C12.9583 11.1379 12.4419 11.2499 11.9194 11.25" stroke="#B7BFCF" stroke-width="1.5" stroke-linecap="round" stroke-linejoin="round"/>
<path d="M1.12451 13.8795C1.69554 13.0672 2.45362 12.4043 3.33475 11.9466C4.21588 11.489 5.19418 11.25 6.18707 11.25C7.17996 11.25 8.15828 11.4888 9.03944 11.9464C9.92061 12.404 10.6787 13.0669 11.2498 13.8791" stroke="#B7BFCF" stroke-width="1.5" stroke-linecap="round" stroke-linejoin="round"/>
<path d="M11.9194 11.25C12.9124 11.2493 13.8909 11.4878 14.7722 11.9455C15.6534 12.4031 16.4114 13.0664 16.982 13.8791" stroke="#B7BFCF" stroke-width="1.5" stroke-linecap="round" stroke-linejoin="round"/>
</svg>
