<svg width="34" height="24" viewBox="0 0 34 24" fill="none" xmlns="http://www.w3.org/2000/svg">
<path d="M32.4796 3.74351C32.2935 3.0521 31.9291 2.4217 31.4228 1.9154C30.9165 1.4091 30.2861 1.04466 29.5947 0.858554C27.0484 0.169434 16.8167 0.169434 16.8167 0.169434C16.8167 0.169434 6.58507 0.169434 4.03883 0.858554C3.34742 1.04466 2.71701 1.4091 2.21071 1.9154C1.70441 2.4217 1.33997 3.0521 1.15387 3.74351C0.678426 6.34029 0.447709 8.97595 0.464746 11.6158C0.447709 14.2557 0.678426 16.8914 1.15387 19.4882C1.33997 20.1796 1.70441 20.81 2.21071 21.3163C2.71701 21.8226 3.34742 22.187 4.03883 22.3731C6.58507 23.0622 16.8167 23.0622 16.8167 23.0622C16.8167 23.0622 27.0484 23.0622 29.5947 22.3731C30.2861 22.187 30.9165 21.8226 31.4228 21.3163C31.9291 20.81 32.2935 20.1796 32.4796 19.4882C32.9551 16.8914 33.1858 14.2557 33.1687 11.6158C33.1858 8.97595 32.9551 6.34029 32.4796 3.74351ZM13.5463 16.5214V6.71023L22.0377 11.6158L13.5463 16.5214Z" fill="white"/>
</svg>
